<svg width="1920" height="1080" viewBox="0 0 1920 1080" fill="none" xmlns="http://www.w3.org/2000/svg">
<path fill-rule="evenodd" clip-rule="evenodd" d="M920 -3.1955C853.137 -248.36 364.539 -271.761 177.856 -167.207C176.793 -163.321 175.706 -159.354 174.598 -155.309C170.387 -139.93 165.866 -123.419 161.096 -105.941C131.247 -101.822 101.486 -97.951 79.5 -95.1955L103 68.3045C102.541 52.2537 108.766 27.8543 129.722 10.2227C64.1944 256.038 -18.6659 590.843 -14.8745 736.099C-8.82643 967.812 253.659 1267.81 484.291 1424.65C714.923 1581.48 2004.77 1475.98 2188.63 1349.76C2321.88 1258.29 2341.61 993.17 2366.94 653C2376.56 523.791 2386.99 383.753 2404.75 238.291C2452.12 -149.722 2020.1 -168.025 1721.51 -180.674C1694.79 -181.806 1669.14 -182.893 1645 -184.195C1511.67 -93.2997 1376.79 113.651 1517.5 99.3045C1551.17 95.8711 1595.72 82.288 1643.82 67.6206C1777.85 26.7535 1939.49 -22.5323 1970.5 115.841C2030.74 384.603 1920.5 377.305 1723.36 361.033C1601.73 350.994 1600.5 637.533 1765 637.533C1843.25 637.533 1881.29 615.646 1912.76 597.545C1961.77 569.35 1994.81 550.339 2138.95 637.533C2375.63 780.706 2007.97 1073.06 1847.5 858.304C1687.03 643.546 1310.05 831.704 1359.64 1029.51C1384.93 1130.36 1492.19 1099.97 1566.51 1078.9C1637.95 1058.66 1678.95 1047.04 1587.45 1168.91C1400.77 1417.58 816.933 1080.37 948.377 1029.51C1079.82 978.644 1336.26 606.584 781.854 828.407C227.45 1050.23 270.996 810.982 428.649 685.235C514.588 616.688 452.198 585.367 381.901 550.077C323.241 520.629 259.075 488.416 270.996 429.502C283.357 368.418 327.992 368.469 378.737 368.526C435.584 368.59 500.1 368.663 535.5 282.805C539.804 272.367 543.891 262.399 547.794 252.879C606.981 108.529 624.033 66.9433 715.5 46.3045C743.523 39.9814 786.482 66.9872 827.174 92.5684C902.873 140.157 970.73 182.814 920 -3.1955ZM129.722 10.2227C146.847 -4.18484 173.809 -14.0735 215 -11.1955C306.6 -4.7955 200 46.3045 200 46.3045C200 46.3045 95.7 100.804 110.5 194.805C129 312.305 318.5 308.804 410.5 295.805C502.5 282.805 554.5 193.305 522.5 145.805C507.951 124.208 356.704 46.3045 413.5 155.805C441.5 214.805 399.633 238.376 339 212.305C189.779 148.141 382 18.3045 410.5 18.3045C439 18.3045 710 -28.1955 610 -119.195C510 -210.195 288.004 -133.195 279.5 -126.195C275.04 -122.524 217.908 -113.782 161.096 -105.941C151.477 -70.6953 140.85 -31.5193 129.722 10.2227Z" fill="url(#paint0_linear_258_130)"/>
<path d="M1180.19 126.3C1180.18 125.48 1180.2 124.707 1180.25 124C1180.25 124.792 1180.23 125.559 1180.19 126.3C1180.33 134.317 1183.74 146.857 1197 146.857C1191.49 147.327 1180.56 152.288 1180.25 168.315C1180.25 168.55 1180.25 168.778 1180.25 169C1180.25 168.769 1180.25 168.541 1180.25 168.315C1180.23 160.965 1177.18 147.658 1165.11 146.892C1164.72 146.9 1164.35 146.888 1164 146.857C1164.38 146.857 1164.75 146.869 1165.11 146.892C1170.52 146.773 1179.43 142.571 1180.19 126.3Z" fill="white"/>
<path d="M1180.19 126.3C1180.18 125.48 1180.2 124.707 1180.25 124C1180.25 124.792 1180.23 125.559 1180.19 126.3C1180.33 134.317 1183.74 146.857 1197 146.857C1191.49 147.327 1180.56 152.288 1180.25 168.315C1180.25 168.55 1180.25 168.778 1180.25 169C1180.25 168.769 1180.25 168.541 1180.25 168.315C1180.23 160.965 1177.18 147.658 1165.11 146.892C1164.72 146.9 1164.35 146.888 1164 146.857C1164.38 146.857 1164.75 146.869 1165.11 146.892C1170.52 146.773 1179.43 142.571 1180.19 126.3Z" fill="white"/>
<path d="M1180.19 126.3C1180.18 125.48 1180.2 124.707 1180.25 124C1180.25 124.792 1180.23 125.559 1180.19 126.3C1180.33 134.317 1183.74 146.857 1197 146.857C1191.49 147.327 1180.56 152.288 1180.25 168.315C1180.25 168.55 1180.25 168.778 1180.25 169C1180.25 168.769 1180.25 168.541 1180.25 168.315C1180.23 160.965 1177.18 147.658 1165.11 146.892C1164.72 146.9 1164.35 146.888 1164 146.857C1164.38 146.857 1164.75 146.869 1165.11 146.892C1170.52 146.773 1179.43 142.571 1180.19 126.3Z" fill="white"/>
<path d="M1180.19 126.3C1180.18 125.48 1180.2 124.707 1180.25 124C1180.25 124.792 1180.23 125.559 1180.19 126.3C1180.33 134.317 1183.74 146.857 1197 146.857C1191.49 147.327 1180.56 152.288 1180.25 168.315C1180.25 168.55 1180.25 168.778 1180.25 169C1180.25 168.769 1180.25 168.541 1180.25 168.315C1180.23 160.965 1177.18 147.658 1165.11 146.892C1164.72 146.9 1164.35 146.888 1164 146.857C1164.38 146.857 1164.75 146.869 1165.11 146.892C1170.52 146.773 1179.43 142.571 1180.19 126.3Z" fill="#D4E7EB"/>
<path d="M161.193 626.3C161.179 625.48 161.199 624.707 161.246 624C161.246 624.792 161.228 625.559 161.193 626.3C161.332 634.317 164.736 646.857 178 646.857C172.493 647.327 161.556 652.288 161.253 668.315C161.253 668.55 161.251 668.778 161.246 669C161.246 668.769 161.248 668.541 161.253 668.315C161.226 660.965 158.185 647.658 146.107 646.892C145.718 646.9 145.348 646.888 145 646.857C145.377 646.857 145.746 646.869 146.107 646.892C151.516 646.773 160.427 642.571 161.193 626.3Z" fill="white"/>
<path d="M161.193 626.3C161.179 625.48 161.199 624.707 161.246 624C161.246 624.792 161.228 625.559 161.193 626.3C161.332 634.317 164.736 646.857 178 646.857C172.493 647.327 161.556 652.288 161.253 668.315C161.253 668.55 161.251 668.778 161.246 669C161.246 668.769 161.248 668.541 161.253 668.315C161.226 660.965 158.185 647.658 146.107 646.892C145.718 646.9 145.348 646.888 145 646.857C145.377 646.857 145.746 646.869 146.107 646.892C151.516 646.773 160.427 642.571 161.193 626.3Z" fill="white"/>
<path d="M161.193 626.3C161.179 625.48 161.199 624.707 161.246 624C161.246 624.792 161.228 625.559 161.193 626.3C161.332 634.317 164.736 646.857 178 646.857C172.493 647.327 161.556 652.288 161.253 668.315C161.253 668.55 161.251 668.778 161.246 669C161.246 668.769 161.248 668.541 161.253 668.315C161.226 660.965 158.185 647.658 146.107 646.892C145.718 646.9 145.348 646.888 145 646.857C145.377 646.857 145.746 646.869 146.107 646.892C151.516 646.773 160.427 642.571 161.193 626.3Z" fill="white"/>
<path d="M161.193 626.3C161.179 625.48 161.199 624.707 161.246 624C161.246 624.792 161.228 625.559 161.193 626.3C161.332 634.317 164.736 646.857 178 646.857C172.493 647.327 161.556 652.288 161.253 668.315C161.253 668.55 161.251 668.778 161.246 669C161.246 668.769 161.248 668.541 161.253 668.315C161.226 660.965 158.185 647.658 146.107 646.892C145.718 646.9 145.348 646.888 145 646.857C145.377 646.857 145.746 646.869 146.107 646.892C151.516 646.773 160.427 642.571 161.193 626.3Z" fill="#D4E7EB"/>
<path d="M1486.06 898.221C1486.04 897.072 1486.07 895.99 1486.14 895C1486.14 896.109 1486.11 897.183 1486.06 898.221C1486.26 909.444 1491.11 927 1510 927C1502.16 927.657 1486.58 934.603 1486.15 957.041C1486.15 957.369 1486.15 957.689 1486.14 958C1486.14 957.677 1486.14 957.358 1486.15 957.041C1486.11 946.75 1481.78 928.121 1464.58 927.048C1464.02 927.06 1463.5 927.043 1463 927C1463.54 927 1464.06 927.016 1464.58 927.048C1472.28 926.882 1484.97 921 1486.06 898.221Z" fill="white"/>
<path d="M1486.06 898.221C1486.04 897.072 1486.07 895.99 1486.14 895C1486.14 896.109 1486.11 897.183 1486.06 898.221C1486.26 909.444 1491.11 927 1510 927C1502.16 927.657 1486.58 934.603 1486.15 957.041C1486.15 957.369 1486.15 957.689 1486.14 958C1486.14 957.677 1486.14 957.358 1486.15 957.041C1486.11 946.75 1481.78 928.121 1464.58 927.048C1464.02 927.06 1463.5 927.043 1463 927C1463.54 927 1464.06 927.016 1464.58 927.048C1472.28 926.882 1484.97 921 1486.06 898.221Z" fill="white"/>
<path d="M1486.06 898.221C1486.04 897.072 1486.07 895.99 1486.14 895C1486.14 896.109 1486.11 897.183 1486.06 898.221C1486.26 909.444 1491.11 927 1510 927C1502.16 927.657 1486.58 934.603 1486.15 957.041C1486.15 957.369 1486.15 957.689 1486.14 958C1486.14 957.677 1486.14 957.358 1486.15 957.041C1486.11 946.75 1481.78 928.121 1464.58 927.048C1464.02 927.06 1463.5 927.043 1463 927C1463.54 927 1464.06 927.016 1464.58 927.048C1472.28 926.882 1484.97 921 1486.06 898.221Z" fill="white"/>
<path d="M1486.06 898.221C1486.04 897.072 1486.07 895.99 1486.14 895C1486.14 896.109 1486.11 897.183 1486.06 898.221C1486.26 909.444 1491.11 927 1510 927C1502.16 927.657 1486.58 934.603 1486.15 957.041C1486.15 957.369 1486.15 957.689 1486.14 958C1486.14 957.677 1486.14 957.358 1486.15 957.041C1486.11 946.75 1481.78 928.121 1464.58 927.048C1464.02 927.06 1463.5 927.043 1463 927C1463.54 927 1464.06 927.016 1464.58 927.048C1472.28 926.882 1484.97 921 1486.06 898.221Z" fill="#D4E7EB"/>
<path d="M514.063 821.221C514.043 820.072 514.071 818.99 514.138 818C514.138 819.109 514.113 820.183 514.063 821.221C514.261 832.444 519.109 850 538 850C530.157 850.657 514.58 857.603 514.148 880.041C514.149 880.369 514.146 880.689 514.138 881C514.138 880.677 514.142 880.358 514.148 880.041C514.109 869.75 509.778 851.121 492.576 850.048C492.023 850.06 491.496 850.043 491 850C491.537 850 492.063 850.016 492.576 850.048C500.281 849.882 512.971 844 514.063 821.221Z" fill="white"/>
<path d="M514.063 821.221C514.043 820.072 514.071 818.99 514.138 818C514.138 819.109 514.113 820.183 514.063 821.221C514.261 832.444 519.109 850 538 850C530.157 850.657 514.58 857.603 514.148 880.041C514.149 880.369 514.146 880.689 514.138 881C514.138 880.677 514.142 880.358 514.148 880.041C514.109 869.75 509.778 851.121 492.576 850.048C492.023 850.06 491.496 850.043 491 850C491.537 850 492.063 850.016 492.576 850.048C500.281 849.882 512.971 844 514.063 821.221Z" fill="white"/>
<path d="M514.063 821.221C514.043 820.072 514.071 818.99 514.138 818C514.138 819.109 514.113 820.183 514.063 821.221C514.261 832.444 519.109 850 538 850C530.157 850.657 514.58 857.603 514.148 880.041C514.149 880.369 514.146 880.689 514.138 881C514.138 880.677 514.142 880.358 514.148 880.041C514.109 869.75 509.778 851.121 492.576 850.048C492.023 850.06 491.496 850.043 491 850C491.537 850 492.063 850.016 492.576 850.048C500.281 849.882 512.971 844 514.063 821.221Z" fill="white"/>
<path d="M514.063 821.221C514.043 820.072 514.071 818.99 514.138 818C514.138 819.109 514.113 820.183 514.063 821.221C514.261 832.444 519.109 850 538 850C530.157 850.657 514.58 857.603 514.148 880.041C514.149 880.369 514.146 880.689 514.138 881C514.138 880.677 514.142 880.358 514.148 880.041C514.109 869.75 509.778 851.121 492.576 850.048C492.023 850.06 491.496 850.043 491 850C491.537 850 492.063 850.016 492.576 850.048C500.281 849.882 512.971 844 514.063 821.221Z" fill="#D4E7EB"/>
<path d="M1446.19 883.045C1446.18 882.316 1446.2 881.629 1446.25 881C1446.25 881.704 1446.23 882.386 1446.19 883.045C1446.33 890.17 1449.74 901.317 1463 901.317C1457.49 901.735 1446.56 906.145 1446.25 920.391C1446.25 920.6 1446.25 920.803 1446.25 921C1446.25 920.795 1446.25 920.592 1446.25 920.391C1446.23 913.857 1443.18 902.029 1431.11 901.348C1430.72 901.356 1430.35 901.345 1430 901.317C1430.38 901.317 1430.75 901.328 1431.11 901.348C1436.52 901.242 1445.43 897.508 1446.19 883.045Z" fill="white"/>
<path d="M1446.19 883.045C1446.18 882.316 1446.2 881.629 1446.25 881C1446.25 881.704 1446.23 882.386 1446.19 883.045C1446.33 890.17 1449.74 901.317 1463 901.317C1457.49 901.735 1446.56 906.145 1446.25 920.391C1446.25 920.6 1446.25 920.803 1446.25 921C1446.25 920.795 1446.25 920.592 1446.25 920.391C1446.23 913.857 1443.18 902.029 1431.11 901.348C1430.72 901.356 1430.35 901.345 1430 901.317C1430.38 901.317 1430.75 901.328 1431.11 901.348C1436.52 901.242 1445.43 897.508 1446.19 883.045Z" fill="white"/>
<path d="M1446.19 883.045C1446.18 882.316 1446.2 881.629 1446.25 881C1446.25 881.704 1446.23 882.386 1446.19 883.045C1446.33 890.17 1449.74 901.317 1463 901.317C1457.49 901.735 1446.56 906.145 1446.25 920.391C1446.25 920.6 1446.25 920.803 1446.25 921C1446.25 920.795 1446.25 920.592 1446.25 920.391C1446.23 913.857 1443.18 902.029 1431.11 901.348C1430.72 901.356 1430.35 901.345 1430 901.317C1430.38 901.317 1430.75 901.328 1431.11 901.348C1436.52 901.242 1445.43 897.508 1446.19 883.045Z" fill="white"/>
<path d="M1446.19 883.045C1446.18 882.316 1446.2 881.629 1446.25 881C1446.25 881.704 1446.23 882.386 1446.19 883.045C1446.33 890.17 1449.74 901.317 1463 901.317C1457.49 901.735 1446.56 906.145 1446.25 920.391C1446.25 920.6 1446.25 920.803 1446.25 921C1446.25 920.795 1446.25 920.592 1446.25 920.391C1446.23 913.857 1443.18 902.029 1431.11 901.348C1430.72 901.356 1430.35 901.345 1430 901.317C1430.38 901.317 1430.75 901.328 1431.11 901.348C1436.52 901.242 1445.43 897.508 1446.19 883.045Z" fill="#D4E7EB"/>
<path d="M1360.19 666.045C1360.18 665.316 1360.2 664.629 1360.25 664C1360.25 664.704 1360.23 665.386 1360.19 666.045C1360.33 673.17 1363.74 684.317 1377 684.317C1371.49 684.735 1360.56 689.145 1360.25 703.391C1360.25 703.6 1360.25 703.803 1360.25 704C1360.25 703.795 1360.25 703.592 1360.25 703.391C1360.23 696.857 1357.18 685.029 1345.11 684.348C1344.72 684.356 1344.35 684.345 1344 684.317C1344.38 684.317 1344.75 684.328 1345.11 684.348C1350.52 684.242 1359.43 680.508 1360.19 666.045Z" fill="white"/>
<path d="M1360.19 666.045C1360.18 665.316 1360.2 664.629 1360.25 664C1360.25 664.704 1360.23 665.386 1360.19 666.045C1360.33 673.17 1363.74 684.317 1377 684.317C1371.49 684.735 1360.56 689.145 1360.25 703.391C1360.25 703.6 1360.25 703.803 1360.25 704C1360.25 703.795 1360.25 703.592 1360.25 703.391C1360.23 696.857 1357.18 685.029 1345.11 684.348C1344.72 684.356 1344.35 684.345 1344 684.317C1344.38 684.317 1344.75 684.328 1345.11 684.348C1350.52 684.242 1359.43 680.508 1360.19 666.045Z" fill="white"/>
<path d="M1732.19 930.045C1732.18 929.316 1732.2 928.629 1732.25 928C1732.25 928.704 1732.23 929.386 1732.19 930.045C1732.33 937.17 1735.74 948.317 1749 948.317C1743.49 948.735 1732.56 953.145 1732.25 967.391C1732.25 967.6 1732.25 967.803 1732.25 968C1732.25 967.795 1732.25 967.592 1732.25 967.391C1732.23 960.857 1729.18 949.029 1717.11 948.348C1716.72 948.356 1716.35 948.345 1716 948.317C1716.38 948.317 1716.75 948.328 1717.11 948.348C1722.52 948.242 1731.43 944.508 1732.19 930.045Z" fill="white"/>
<path d="M1818.06 892.965C1818.04 891.908 1818.07 890.912 1818.14 890C1818.14 891.021 1818.11 892.009 1818.06 892.965C1818.26 903.297 1823.11 919.46 1842 919.46C1834.16 920.066 1818.58 926.46 1818.15 947.117C1818.15 947.419 1818.15 947.714 1818.14 948C1818.14 947.703 1818.14 947.409 1818.15 947.117C1818.11 937.643 1813.78 920.492 1796.58 919.505C1796.02 919.516 1795.5 919.5 1795 919.46C1795.54 919.46 1796.06 919.475 1796.58 919.505C1804.28 919.352 1816.97 913.936 1818.06 892.965Z" fill="white"/>
<path d="M1818.06 892.965C1818.04 891.908 1818.07 890.912 1818.14 890C1818.14 891.021 1818.11 892.009 1818.06 892.965C1818.26 903.297 1823.11 919.46 1842 919.46C1834.16 920.066 1818.58 926.46 1818.15 947.117C1818.15 947.419 1818.15 947.714 1818.14 948C1818.14 947.703 1818.14 947.409 1818.15 947.117C1818.11 937.643 1813.78 920.492 1796.58 919.505C1796.02 919.516 1795.5 919.5 1795 919.46C1795.54 919.46 1796.06 919.475 1796.58 919.505C1804.28 919.352 1816.97 913.936 1818.06 892.965Z" fill="white"/>
<path d="M1818.06 892.965C1818.04 891.908 1818.07 890.912 1818.14 890C1818.14 891.021 1818.11 892.009 1818.06 892.965C1818.26 903.297 1823.11 919.46 1842 919.46C1834.16 920.066 1818.58 926.46 1818.15 947.117C1818.15 947.419 1818.15 947.714 1818.14 948C1818.14 947.703 1818.14 947.409 1818.15 947.117C1818.11 937.643 1813.78 920.492 1796.58 919.505C1796.02 919.516 1795.5 919.5 1795 919.46C1795.54 919.46 1796.06 919.475 1796.58 919.505C1804.28 919.352 1816.97 913.936 1818.06 892.965Z" fill="white"/>
<path d="M1818.06 892.965C1818.04 891.908 1818.07 890.912 1818.14 890C1818.14 891.021 1818.11 892.009 1818.06 892.965C1818.26 903.297 1823.11 919.46 1842 919.46C1834.16 920.066 1818.58 926.46 1818.15 947.117C1818.15 947.419 1818.15 947.714 1818.14 948C1818.14 947.703 1818.14 947.409 1818.15 947.117C1818.11 937.643 1813.78 920.492 1796.58 919.505C1796.02 919.516 1795.5 919.5 1795 919.46C1795.54 919.46 1796.06 919.475 1796.58 919.505C1804.28 919.352 1816.97 913.936 1818.06 892.965Z" fill="#D4E7EB"/>
<path d="M1809.72 976.789C1809.71 976.151 1809.73 975.55 1809.77 975C1809.77 975.616 1809.75 976.213 1809.72 976.789C1809.85 983.024 1812.94 992.778 1825 992.778C1819.99 993.143 1810.05 997.002 1809.78 1009.47C1809.78 1009.65 1809.77 1009.83 1809.77 1010C1809.77 1009.82 1809.77 1009.64 1809.78 1009.47C1809.75 1003.75 1806.99 993.4 1796.01 992.805C1795.65 992.811 1795.32 992.802 1795 992.778C1795.34 992.778 1795.68 992.787 1796.01 992.805C1800.92 992.712 1809.02 989.444 1809.72 976.789Z" fill="white"/>
<path d="M1809.72 976.789C1809.71 976.151 1809.73 975.55 1809.77 975C1809.77 975.616 1809.75 976.213 1809.72 976.789C1809.85 983.024 1812.94 992.778 1825 992.778C1819.99 993.143 1810.05 997.002 1809.78 1009.47C1809.78 1009.65 1809.77 1009.83 1809.77 1010C1809.77 1009.82 1809.77 1009.64 1809.78 1009.47C1809.75 1003.75 1806.99 993.4 1796.01 992.805C1795.65 992.811 1795.32 992.802 1795 992.778C1795.34 992.778 1795.68 992.787 1796.01 992.805C1800.92 992.712 1809.02 989.444 1809.72 976.789Z" fill="white"/>
<path d="M1809.72 976.789C1809.71 976.151 1809.73 975.55 1809.77 975C1809.77 975.616 1809.75 976.213 1809.72 976.789C1809.85 983.024 1812.94 992.778 1825 992.778C1819.99 993.143 1810.05 997.002 1809.78 1009.47C1809.78 1009.65 1809.77 1009.83 1809.77 1010C1809.77 1009.82 1809.77 1009.64 1809.78 1009.47C1809.75 1003.75 1806.99 993.4 1796.01 992.805C1795.65 992.811 1795.32 992.802 1795 992.778C1795.34 992.778 1795.68 992.787 1796.01 992.805C1800.92 992.712 1809.02 989.444 1809.72 976.789Z" fill="white"/>
<path d="M1809.72 976.789C1809.71 976.151 1809.73 975.55 1809.77 975C1809.77 975.616 1809.75 976.213 1809.72 976.789C1809.85 983.024 1812.94 992.778 1825 992.778C1819.99 993.143 1810.05 997.002 1809.78 1009.47C1809.78 1009.65 1809.77 1009.83 1809.77 1010C1809.77 1009.82 1809.77 1009.64 1809.78 1009.47C1809.75 1003.75 1806.99 993.4 1796.01 992.805C1795.65 992.811 1795.32 992.802 1795 992.778C1795.34 992.778 1795.68 992.787 1796.01 992.805C1800.92 992.712 1809.02 989.444 1809.72 976.789Z" fill="#D4E7EB"/>
<path d="M797.647 203.249C797.63 202.447 797.653 201.692 797.708 201C797.708 201.775 797.687 202.524 797.647 203.249C797.806 211.088 801.726 223.349 817 223.349C810.659 223.808 798.064 228.659 797.715 244.33C797.716 244.56 797.714 244.783 797.708 245C797.708 244.775 797.71 244.551 797.715 244.33C797.684 237.143 794.182 224.132 780.275 223.383C779.827 223.391 779.401 223.379 779 223.349C779.434 223.349 779.859 223.361 780.275 223.383C786.504 223.267 796.764 219.159 797.647 203.249Z" fill="white"/>
<path d="M797.647 203.249C797.63 202.447 797.653 201.692 797.708 201C797.708 201.775 797.687 202.524 797.647 203.249C797.806 211.088 801.726 223.349 817 223.349C810.659 223.808 798.064 228.659 797.715 244.33C797.716 244.56 797.714 244.783 797.708 245C797.708 244.775 797.71 244.551 797.715 244.33C797.684 237.143 794.182 224.132 780.275 223.383C779.827 223.391 779.401 223.379 779 223.349C779.434 223.349 779.859 223.361 780.275 223.383C786.504 223.267 796.764 219.159 797.647 203.249Z" fill="white"/>
<path d="M797.647 203.249C797.63 202.447 797.653 201.692 797.708 201C797.708 201.775 797.687 202.524 797.647 203.249C797.806 211.088 801.726 223.349 817 223.349C810.659 223.808 798.064 228.659 797.715 244.33C797.716 244.56 797.714 244.783 797.708 245C797.708 244.775 797.71 244.551 797.715 244.33C797.684 237.143 794.182 224.132 780.275 223.383C779.827 223.391 779.401 223.379 779 223.349C779.434 223.349 779.859 223.361 780.275 223.383C786.504 223.267 796.764 219.159 797.647 203.249Z" fill="white"/>
<path d="M797.647 203.249C797.63 202.447 797.653 201.692 797.708 201C797.708 201.775 797.687 202.524 797.647 203.249C797.806 211.088 801.726 223.349 817 223.349C810.659 223.808 798.064 228.659 797.715 244.33C797.716 244.56 797.714 244.783 797.708 245C797.708 244.775 797.71 244.551 797.715 244.33C797.684 237.143 794.182 224.132 780.275 223.383C779.827 223.391 779.401 223.379 779 223.349C779.434 223.349 779.859 223.361 780.275 223.383C786.504 223.267 796.764 219.159 797.647 203.249Z" fill="#D4E7EB"/>
<path d="M750.989 247.221C750.965 246.072 750.998 244.99 751.077 244C751.077 245.109 751.047 246.183 750.989 247.221C751.22 258.444 756.893 276 779 276C769.822 276.657 751.593 283.603 751.088 306.041C751.089 306.369 751.085 306.689 751.077 307C751.077 306.677 751.081 306.358 751.088 306.041C751.043 295.75 745.974 277.121 725.845 276.048C725.197 276.06 724.58 276.043 724 276C724.629 276 725.243 276.016 725.845 276.048C734.86 275.882 749.711 270 750.989 247.221Z" fill="white"/>
<path d="M750.989 247.221C750.965 246.072 750.998 244.99 751.077 244C751.077 245.109 751.047 246.183 750.989 247.221C751.22 258.444 756.893 276 779 276C769.822 276.657 751.593 283.603 751.088 306.041C751.089 306.369 751.085 306.689 751.077 307C751.077 306.677 751.081 306.358 751.088 306.041C751.043 295.75 745.974 277.121 725.845 276.048C725.197 276.06 724.58 276.043 724 276C724.629 276 725.243 276.016 725.845 276.048C734.86 275.882 749.711 270 750.989 247.221Z" fill="white"/>
<path d="M750.989 247.221C750.965 246.072 750.998 244.99 751.077 244C751.077 245.109 751.047 246.183 750.989 247.221C751.22 258.444 756.893 276 779 276C769.822 276.657 751.593 283.603 751.088 306.041C751.089 306.369 751.085 306.689 751.077 307C751.077 306.677 751.081 306.358 751.088 306.041C751.043 295.75 745.974 277.121 725.845 276.048C725.197 276.06 724.58 276.043 724 276C724.629 276 725.243 276.016 725.845 276.048C734.86 275.882 749.711 270 750.989 247.221Z" fill="white"/>
<path d="M750.989 247.221C750.965 246.072 750.998 244.99 751.077 244C751.077 245.109 751.047 246.183 750.989 247.221C751.22 258.444 756.893 276 779 276C769.822 276.657 751.593 283.603 751.088 306.041C751.089 306.369 751.085 306.689 751.077 307C751.077 306.677 751.081 306.358 751.088 306.041C751.043 295.75 745.974 277.121 725.845 276.048C725.197 276.06 724.58 276.043 724 276C724.629 276 725.243 276.016 725.845 276.048C734.86 275.882 749.711 270 750.989 247.221Z" fill="#D4E7EB"/>
<path d="M392.591 70.5561C392.572 69.6446 392.599 68.7858 392.662 68C392.662 68.8804 392.638 69.7322 392.591 70.5561C392.776 79.4631 397.314 93.3968 415 93.3968C407.657 93.9186 393.074 99.4308 392.67 117.239C392.671 117.5 392.668 117.754 392.662 118C392.662 117.744 392.664 117.49 392.67 117.239C392.634 109.072 388.58 94.2862 372.476 93.4352C371.958 93.4447 371.464 93.4308 371 93.3968C371.503 93.3968 371.995 93.4098 372.476 93.4352C379.688 93.3031 391.569 88.6349 392.591 70.5561Z" fill="white"/>
<path d="M392.591 70.5561C392.572 69.6446 392.599 68.7858 392.662 68C392.662 68.8804 392.638 69.7322 392.591 70.5561C392.776 79.4631 397.314 93.3968 415 93.3968C407.657 93.9186 393.074 99.4308 392.67 117.239C392.671 117.5 392.668 117.754 392.662 118C392.662 117.744 392.664 117.49 392.67 117.239C392.634 109.072 388.58 94.2862 372.476 93.4352C371.958 93.4447 371.464 93.4308 371 93.3968C371.503 93.3968 371.995 93.4098 372.476 93.4352C379.688 93.3031 391.569 88.6349 392.591 70.5561Z" fill="white"/>
<path d="M392.591 70.5561C392.572 69.6446 392.599 68.7858 392.662 68C392.662 68.8804 392.638 69.7322 392.591 70.5561C392.776 79.4631 397.314 93.3968 415 93.3968C407.657 93.9186 393.074 99.4308 392.67 117.239C392.671 117.5 392.668 117.754 392.662 118C392.662 117.744 392.664 117.49 392.67 117.239C392.634 109.072 388.58 94.2862 372.476 93.4352C371.958 93.4447 371.464 93.4308 371 93.3968C371.503 93.3968 371.995 93.4098 372.476 93.4352C379.688 93.3031 391.569 88.6349 392.591 70.5561Z" fill="white"/>
<path d="M392.591 70.5561C392.572 69.6446 392.599 68.7858 392.662 68C392.662 68.8804 392.638 69.7322 392.591 70.5561C392.776 79.4631 397.314 93.3968 415 93.3968C407.657 93.9186 393.074 99.4308 392.67 117.239C392.671 117.5 392.668 117.754 392.662 118C392.662 117.744 392.664 117.49 392.67 117.239C392.634 109.072 388.58 94.2862 372.476 93.4352C371.958 93.4447 371.464 93.4308 371 93.3968C371.503 93.3968 371.995 93.4098 372.476 93.4352C379.688 93.3031 391.569 88.6349 392.591 70.5561Z" fill="#D4E7EB"/>
<path d="M42.4608 287.374C42.4359 286.171 42.471 285.037 42.5539 284C42.5539 285.162 42.5222 286.286 42.4608 287.374C42.7045 299.131 48.6871 317.524 72 317.524C62.3212 318.213 43.0982 325.489 42.5652 348.995C42.5667 349.339 42.5628 349.675 42.5539 350C42.5539 349.662 42.5577 349.327 42.5652 348.995C42.5179 338.215 37.1729 318.698 15.9454 317.575C15.2627 317.587 14.6117 317.569 14 317.524C14.6628 317.524 15.3112 317.541 15.9454 317.575C25.4528 317.4 41.1137 311.238 42.4608 287.374Z" fill="white"/>
<path d="M42.4608 287.374C42.4359 286.171 42.471 285.037 42.5539 284C42.5539 285.162 42.5222 286.286 42.4608 287.374C42.7045 299.131 48.6871 317.524 72 317.524C62.3212 318.213 43.0982 325.489 42.5652 348.995C42.5667 349.339 42.5628 349.675 42.5539 350C42.5539 349.662 42.5577 349.327 42.5652 348.995C42.5179 338.215 37.1729 318.698 15.9454 317.575C15.2627 317.587 14.6117 317.569 14 317.524C14.6628 317.524 15.3112 317.541 15.9454 317.575C25.4528 317.4 41.1137 311.238 42.4608 287.374Z" fill="white"/>
<path d="M42.4608 287.374C42.4359 286.171 42.471 285.037 42.5539 284C42.5539 285.162 42.5222 286.286 42.4608 287.374C42.7045 299.131 48.6871 317.524 72 317.524C62.3212 318.213 43.0982 325.489 42.5652 348.995C42.5667 349.339 42.5628 349.675 42.5539 350C42.5539 349.662 42.5577 349.327 42.5652 348.995C42.5179 338.215 37.1729 318.698 15.9454 317.575C15.2627 317.587 14.6117 317.569 14 317.524C14.6628 317.524 15.3112 317.541 15.9454 317.575C25.4528 317.4 41.1137 311.238 42.4608 287.374Z" fill="white"/>
<path d="M42.4608 287.374C42.4359 286.171 42.471 285.037 42.5539 284C42.5539 285.162 42.5222 286.286 42.4608 287.374C42.7045 299.131 48.6871 317.524 72 317.524C62.3212 318.213 43.0982 325.489 42.5652 348.995C42.5667 349.339 42.5628 349.675 42.5539 350C42.5539 349.662 42.5577 349.327 42.5652 348.995C42.5179 338.215 37.1729 318.698 15.9454 317.575C15.2627 317.587 14.6117 317.569 14 317.524C14.6628 317.524 15.3112 317.541 15.9454 317.575C25.4528 317.4 41.1137 311.238 42.4608 287.374Z" fill="#D4E7EB"/>
<path d="M72.2862 210.096C72.2763 209.349 72.2902 208.644 72.3231 208C72.3231 208.722 72.3105 209.42 72.2862 210.096C72.3828 217.4 74.7552 228.825 84 228.825C80.1618 229.253 72.5389 233.773 72.3276 248.376C72.3282 248.59 72.3266 248.798 72.3231 249C72.3231 248.79 72.3246 248.582 72.3276 248.376C72.3088 241.679 70.1893 229.555 61.7714 228.857C61.5007 228.865 61.2426 228.853 61 228.825C61.2628 228.825 61.52 228.836 61.7714 228.857C65.5416 228.749 71.752 224.921 72.2862 210.096Z" fill="white"/>
<path d="M72.2862 210.096C72.2763 209.349 72.2902 208.644 72.3231 208C72.3231 208.722 72.3105 209.42 72.2862 210.096C72.3828 217.4 74.7552 228.825 84 228.825C80.1618 229.253 72.5389 233.773 72.3276 248.376C72.3282 248.59 72.3266 248.798 72.3231 249C72.3231 248.79 72.3246 248.582 72.3276 248.376C72.3088 241.679 70.1893 229.555 61.7714 228.857C61.5007 228.865 61.2426 228.853 61 228.825C61.2628 228.825 61.52 228.836 61.7714 228.857C65.5416 228.749 71.752 224.921 72.2862 210.096Z" fill="white"/>
<path d="M72.2862 210.096C72.2763 209.349 72.2902 208.644 72.3231 208C72.3231 208.722 72.3105 209.42 72.2862 210.096C72.3828 217.4 74.7552 228.825 84 228.825C80.1618 229.253 72.5389 233.773 72.3276 248.376C72.3282 248.59 72.3266 248.798 72.3231 249C72.3231 248.79 72.3246 248.582 72.3276 248.376C72.3088 241.679 70.1893 229.555 61.7714 228.857C61.5007 228.865 61.2426 228.853 61 228.825C61.2628 228.825 61.52 228.836 61.7714 228.857C65.5416 228.749 71.752 224.921 72.2862 210.096Z" fill="white"/>
<path d="M72.2862 210.096C72.2763 209.349 72.2902 208.644 72.3231 208C72.3231 208.722 72.3105 209.42 72.2862 210.096C72.3828 217.4 74.7552 228.825 84 228.825C80.1618 229.253 72.5389 233.773 72.3276 248.376C72.3282 248.59 72.3266 248.798 72.3231 249C72.3231 248.79 72.3246 248.582 72.3276 248.376C72.3088 241.679 70.1893 229.555 61.7714 228.857C61.5007 228.865 61.2426 228.853 61 228.825C61.2628 228.825 61.52 228.836 61.7714 228.857C65.5416 228.749 71.752 224.921 72.2862 210.096Z" fill="#D4E7EB"/>
<path d="M1163.74 171.687C1163.73 171.085 1163.74 170.519 1163.78 170C1163.78 170.581 1163.77 171.143 1163.74 171.687C1163.86 177.566 1166.75 186.762 1178 186.762C1173.33 187.106 1164.05 190.744 1163.79 202.498C1163.79 202.67 1163.79 202.837 1163.78 203C1163.78 202.831 1163.79 202.664 1163.79 202.498C1163.77 197.107 1161.19 187.349 1150.94 186.787C1150.61 186.794 1150.3 186.784 1150 186.762C1150.32 186.762 1150.63 186.77 1150.94 186.787C1155.53 186.7 1163.09 183.619 1163.74 171.687Z" fill="white"/>
<path d="M1163.74 171.687C1163.73 171.085 1163.74 170.519 1163.78 170C1163.78 170.581 1163.77 171.143 1163.74 171.687C1163.86 177.566 1166.75 186.762 1178 186.762C1173.33 187.106 1164.05 190.744 1163.79 202.498C1163.79 202.67 1163.79 202.837 1163.78 203C1163.78 202.831 1163.79 202.664 1163.79 202.498C1163.77 197.107 1161.19 187.349 1150.94 186.787C1150.61 186.794 1150.3 186.784 1150 186.762C1150.32 186.762 1150.63 186.77 1150.94 186.787C1155.53 186.7 1163.09 183.619 1163.74 171.687Z" fill="white"/>
<path d="M1163.74 171.687C1163.73 171.085 1163.74 170.519 1163.78 170C1163.78 170.581 1163.77 171.143 1163.74 171.687C1163.86 177.566 1166.75 186.762 1178 186.762C1173.33 187.106 1164.05 190.744 1163.79 202.498C1163.79 202.67 1163.79 202.837 1163.78 203C1163.78 202.831 1163.79 202.664 1163.79 202.498C1163.77 197.107 1161.19 187.349 1150.94 186.787C1150.61 186.794 1150.3 186.784 1150 186.762C1150.32 186.762 1150.63 186.77 1150.94 186.787C1155.53 186.7 1163.09 183.619 1163.74 171.687Z" fill="white"/>
<path d="M1163.74 171.687C1163.73 171.085 1163.74 170.519 1163.78 170C1163.78 170.581 1163.77 171.143 1163.74 171.687C1163.86 177.566 1166.75 186.762 1178 186.762C1173.33 187.106 1164.05 190.744 1163.79 202.498C1163.79 202.67 1163.79 202.837 1163.78 203C1163.78 202.831 1163.79 202.664 1163.79 202.498C1163.77 197.107 1161.19 187.349 1150.94 186.787C1150.61 186.794 1150.3 186.784 1150 186.762C1150.32 186.762 1150.63 186.77 1150.94 186.787C1155.53 186.7 1163.09 183.619 1163.74 171.687Z" fill="#D4E7EB"/>
<path d="M550.959 349.205C403.288 88.2898 563.425 -19.2299 661.951 -40.3754C956.138 -320.175 1377.19 -744.726 707.888 -204.531C-128.734 470.713 493.249 493.015 526.849 640.075C553.729 757.722 500.153 791.866 473.834 889.183C459.773 941.172 698.629 610.119 550.959 349.205Z" fill="#3F2B66" fill-opacity="0.4"/>
<path d="M1436.84 87.0057C1430.61 86.227 1344.59 165.093 1304.14 206.733L1344.05 241.45C1377.14 189.428 1443.07 87.7844 1436.84 87.0057Z" fill="url(#paint1_linear_258_130)" fill-opacity="0.35"/>
<g filter="url(#filter0_i_258_130)">
<circle cx="1323.61" cy="224.903" r="26.606" fill="#596B9A"/>
</g>
<path d="M358.239 815.191C352.2 813.474 255.179 878.337 208.866 913.34L243.03 953.724C283.653 907.341 364.278 816.908 358.239 815.191Z" fill="url(#paint2_linear_258_130)" fill-opacity="0.35"/>
<g filter="url(#filter1_i_258_130)">
<circle cx="225.344" cy="934.259" r="26.606" transform="rotate(8.74898 225.344 934.259)" fill="#596B9A"/>
</g>
<path d="M537.818 87.4863C532.025 85.0664 428.008 137.991 377.878 167.265L407.022 211.409C452.849 170.16 543.611 89.9062 537.818 87.4863Z" fill="url(#paint3_linear_258_130)" fill-opacity="0.35"/>
<g filter="url(#filter2_i_258_130)">
<circle cx="391.764" cy="189.988" r="26.606" transform="rotate(15.5465 391.764 189.988)" fill="#596B9A"/>
</g>
<path d="M1964.84 614.006C1958.61 613.227 1872.59 692.093 1832.14 733.733L1872.05 768.45C1905.14 716.428 1971.07 614.784 1964.84 614.006Z" fill="url(#paint4_linear_258_130)" fill-opacity="0.35"/>
<g filter="url(#filter3_i_258_130)">
<circle cx="1851.61" cy="751.903" r="26.606" fill="#596B9A"/>
</g>
<path d="M132.5 1076.5H110" stroke="black"/>
<circle cx="72" cy="265" r="3" fill="#D9D9D9"/>
<circle cx="710" cy="239" r="3" fill="#D9D9D9"/>
<circle cx="1348" cy="213" r="3" fill="#D9D9D9"/>
<circle cx="1194" cy="1025" r="3" fill="#D9D9D9"/>
<circle cx="565" cy="841" r="3" fill="#D9D9D9"/>
<circle cx="53" cy="1031" r="3" fill="#D9D9D9"/>
<circle cx="346" cy="432" r="3" fill="#D9D9D9"/>
<circle cx="18" cy="252" r="3" fill="#D9D9D9"/>
<circle cx="1316" cy="226" r="3" fill="#D9D9D9"/>
<circle cx="1859" cy="501" r="3" fill="#D9D9D9"/>
<circle cx="1859" cy="537" r="3" fill="#D9D9D9"/>
<circle cx="1530" cy="605" r="3" fill="#D9D9D9"/>
<circle cx="1558" cy="620" r="3" fill="#D9D9D9"/>
<circle cx="1215" cy="1004" r="3" fill="#D9D9D9"/>
<circle cx="1167" cy="442" r="3" fill="#D9D9D9"/>
<circle cx="1188" cy="426" r="3" fill="#D9D9D9"/>
<ellipse cx="956" cy="555.5" rx="8" ry="7.5" fill="#D9D9D9"/>
<ellipse cx="89" cy="110.5" rx="8" ry="7.5" fill="#D9D9D9"/>
<ellipse cx="77" cy="1014.5" rx="8" ry="7.5" fill="#D9D9D9"/>
<defs>
<filter id="filter0_i_258_130" x="1297" y="198.297" width="53.2119" height="53.2119" filterUnits="userSpaceOnUse" color-interpolation-filters="sRGB">
<feFlood flood-opacity="0" result="BackgroundImageFix"/>
<feBlend mode="normal" in="SourceGraphic" in2="BackgroundImageFix" result="shape"/>
<feColorMatrix in="SourceAlpha" type="matrix" values="0 0 0 0 0 0 0 0 0 0 0 0 0 0 0 0 0 0 127 0" result="hardAlpha"/>
<feOffset dx="19" dy="-11"/>
<feComposite in2="hardAlpha" operator="arithmetic" k2="-1" k3="1"/>
<feColorMatrix type="matrix" values="0 0 0 0 0.199062 0 0 0 0 0.257014 0 0 0 0 0.408333 0 0 0 1 0"/>
<feBlend mode="normal" in2="shape" result="effect1_innerShadow_258_130"/>
</filter>
<filter id="filter1_i_258_130" x="198.734" y="907.649" width="53.2197" height="53.2197" filterUnits="userSpaceOnUse" color-interpolation-filters="sRGB">
<feFlood flood-opacity="0" result="BackgroundImageFix"/>
<feBlend mode="normal" in="SourceGraphic" in2="BackgroundImageFix" result="shape"/>
<feColorMatrix in="SourceAlpha" type="matrix" values="0 0 0 0 0 0 0 0 0 0 0 0 0 0 0 0 0 0 127 0" result="hardAlpha"/>
<feOffset dx="19" dy="-11"/>
<feComposite in2="hardAlpha" operator="arithmetic" k2="-1" k3="1"/>
<feColorMatrix type="matrix" values="0 0 0 0 0.199062 0 0 0 0 0.257014 0 0 0 0 0.408333 0 0 0 1 0"/>
<feBlend mode="normal" in2="shape" result="effect1_innerShadow_258_130"/>
</filter>
<filter id="filter2_i_258_130" x="365.151" y="163.375" width="53.2256" height="53.2256" filterUnits="userSpaceOnUse" color-interpolation-filters="sRGB">
<feFlood flood-opacity="0" result="BackgroundImageFix"/>
<feBlend mode="normal" in="SourceGraphic" in2="BackgroundImageFix" result="shape"/>
<feColorMatrix in="SourceAlpha" type="matrix" values="0 0 0 0 0 0 0 0 0 0 0 0 0 0 0 0 0 0 127 0" result="hardAlpha"/>
<feOffset dx="19" dy="-11"/>
<feComposite in2="hardAlpha" operator="arithmetic" k2="-1" k3="1"/>
<feColorMatrix type="matrix" values="0 0 0 0 0.199062 0 0 0 0 0.257014 0 0 0 0 0.408333 0 0 0 1 0"/>
<feBlend mode="normal" in2="shape" result="effect1_innerShadow_258_130"/>
</filter>
<filter id="filter3_i_258_130" x="1825" y="725.297" width="53.2122" height="53.2119" filterUnits="userSpaceOnUse" color-interpolation-filters="sRGB">
<feFlood flood-opacity="0" result="BackgroundImageFix"/>
<feBlend mode="normal" in="SourceGraphic" in2="BackgroundImageFix" result="shape"/>
<feColorMatrix in="SourceAlpha" type="matrix" values="0 0 0 0 0 0 0 0 0 0 0 0 0 0 0 0 0 0 127 0" result="hardAlpha"/>
<feOffset dx="19" dy="-11"/>
<feComposite in2="hardAlpha" operator="arithmetic" k2="-1" k3="1"/>
<feColorMatrix type="matrix" values="0 0 0 0 0.199062 0 0 0 0 0.257014 0 0 0 0 0.408333 0 0 0 1 0"/>
<feBlend mode="normal" in2="shape" result="effect1_innerShadow_258_130"/>
</filter>
<linearGradient id="paint0_linear_258_130" x1="2785.5" y1="1503.3" x2="-141.5" y2="-163.696" gradientUnits="userSpaceOnUse">
<stop offset="0.0376415" stop-color="#37215F"/>
<stop offset="1" stop-color="#1C1032"/>
</linearGradient>
<linearGradient id="paint1_linear_258_130" x1="1341.78" y1="196.993" x2="1451.44" y2="51.6335" gradientUnits="userSpaceOnUse">
<stop stop-color="#9FC7F8"/>
<stop offset="1" stop-color="#1C1032"/>
</linearGradient>
<linearGradient id="paint2_linear_258_130" x1="247.547" y1="909.438" x2="378.05" y2="782.451" gradientUnits="userSpaceOnUse">
<stop stop-color="#9FC7F8"/>
<stop offset="1" stop-color="#1C1032"/>
</linearGradient>
<linearGradient id="paint3_linear_258_130" x1="416.749" y1="167.97" x2="561.365" y2="57.3215" gradientUnits="userSpaceOnUse">
<stop stop-color="#9FC7F8"/>
<stop offset="1" stop-color="#1C1032"/>
</linearGradient>
<linearGradient id="paint4_linear_258_130" x1="1869.78" y1="723.993" x2="1979.44" y2="578.633" gradientUnits="userSpaceOnUse">
<stop stop-color="#9FC7F8"/>
<stop offset="1" stop-color="#1C1032"/>
</linearGradient>
</defs>
</svg>
