<svg width="1920" height="1080" viewBox="0 0 1920 1080" fill="none" xmlns="http://www.w3.org/2000/svg">
<g clip-path="url(#clip0_103_130)">
<rect width="1920" height="1080" fill="#1C1032"/>
<path fill-rule="evenodd" clip-rule="evenodd" d="M920 -3.1955C853.137 -248.36 364.539 -271.761 177.856 -167.207C176.793 -163.321 175.706 -159.354 174.598 -155.309C170.387 -139.93 165.866 -123.419 161.096 -105.941C131.247 -101.822 101.486 -97.951 79.5 -95.1955L103 68.3045C102.541 52.2537 108.766 27.8543 129.722 10.2227C64.1944 256.038 -18.6659 590.843 -14.8745 736.099C-8.82643 967.812 253.659 1267.81 484.291 1424.65C714.923 1581.48 2004.77 1475.98 2188.63 1349.76C2321.88 1258.29 2341.61 993.17 2366.94 653C2376.56 523.791 2386.99 383.753 2404.75 238.291C2452.12 -149.722 2020.1 -168.025 1721.51 -180.674C1694.79 -181.806 1669.14 -182.893 1645 -184.195C1511.67 -93.2997 1376.79 113.651 1517.5 99.3045C1551.17 95.8711 1595.72 82.288 1643.82 67.6206C1777.85 26.7535 1939.49 -22.5323 1970.5 115.841C2030.74 384.603 1920.5 377.305 1723.36 361.033C1601.73 350.994 1600.5 637.533 1765 637.533C1843.25 637.533 1881.29 615.646 1912.76 597.545C1961.77 569.35 1994.81 550.339 2138.95 637.533C2375.63 780.706 2007.97 1073.06 1847.5 858.304C1687.03 643.546 1310.05 831.704 1359.64 1029.51C1384.93 1130.36 1492.19 1099.97 1566.51 1078.9C1637.95 1058.66 1678.95 1047.04 1587.45 1168.91C1400.77 1417.58 816.933 1080.37 948.377 1029.51C1079.82 978.644 1336.26 606.584 781.854 828.407C227.45 1050.23 270.996 810.982 428.649 685.235C514.588 616.688 452.198 585.367 381.901 550.077C323.241 520.629 259.075 488.416 270.996 429.502C283.357 368.418 327.992 368.469 378.737 368.526C435.584 368.59 500.1 368.663 535.5 282.805C539.804 272.367 543.891 262.399 547.794 252.879C606.981 108.529 624.033 66.9433 715.5 46.3045C743.523 39.9814 786.482 66.9872 827.174 92.5684C902.873 140.157 970.73 182.814 920 -3.1955ZM129.722 10.2227C146.847 -4.18484 173.809 -14.0735 215 -11.1955C306.6 -4.7955 200 46.3045 200 46.3045C200 46.3045 95.7 100.804 110.5 194.805C129 312.305 318.5 308.804 410.5 295.805C502.5 282.805 554.5 193.305 522.5 145.805C507.951 124.208 356.704 46.3045 413.5 155.805C441.5 214.805 399.633 238.376 339 212.305C189.779 148.141 382 18.3045 410.5 18.3045C439 18.3045 710 -28.1955 610 -119.195C510 -210.195 288.004 -133.195 279.5 -126.195C275.04 -122.524 217.908 -113.782 161.096 -105.941C151.477 -70.6953 140.85 -31.5193 129.722 10.2227Z" fill="url(#paint0_linear_103_130)"/>
<path d="M1180.19 126.3C1180.18 125.48 1180.2 124.707 1180.25 124C1180.25 124.792 1180.23 125.559 1180.19 126.3C1180.33 134.317 1183.74 146.857 1197 146.857C1191.49 147.327 1180.56 152.288 1180.25 168.315C1180.25 168.55 1180.25 168.778 1180.25 169C1180.25 168.769 1180.25 168.541 1180.25 168.315C1180.23 160.965 1177.18 147.658 1165.11 146.892C1164.72 146.9 1164.35 146.888 1164 146.857C1164.38 146.857 1164.75 146.869 1165.11 146.892C1170.52 146.773 1179.43 142.571 1180.19 126.3Z" fill="white"/>
<path d="M1180.19 126.3C1180.18 125.48 1180.2 124.707 1180.25 124C1180.25 124.792 1180.23 125.559 1180.19 126.3C1180.33 134.317 1183.74 146.857 1197 146.857C1191.49 147.327 1180.56 152.288 1180.25 168.315C1180.25 168.55 1180.25 168.778 1180.25 169C1180.25 168.769 1180.25 168.541 1180.25 168.315C1180.23 160.965 1177.18 147.658 1165.11 146.892C1164.72 146.9 1164.35 146.888 1164 146.857C1164.38 146.857 1164.75 146.869 1165.11 146.892C1170.52 146.773 1179.43 142.571 1180.19 126.3Z" fill="white"/>
<path d="M1180.19 126.3C1180.18 125.48 1180.2 124.707 1180.25 124C1180.25 124.792 1180.23 125.559 1180.19 126.3C1180.33 134.317 1183.74 146.857 1197 146.857C1191.49 147.327 1180.56 152.288 1180.25 168.315C1180.25 168.55 1180.25 168.778 1180.25 169C1180.25 168.769 1180.25 168.541 1180.25 168.315C1180.23 160.965 1177.18 147.658 1165.11 146.892C1164.72 146.9 1164.35 146.888 1164 146.857C1164.38 146.857 1164.75 146.869 1165.11 146.892C1170.52 146.773 1179.43 142.571 1180.19 126.3Z" fill="white"/>
<path d="M1180.19 126.3C1180.18 125.48 1180.2 124.707 1180.25 124C1180.25 124.792 1180.23 125.559 1180.19 126.3C1180.33 134.317 1183.74 146.857 1197 146.857C1191.49 147.327 1180.56 152.288 1180.25 168.315C1180.25 168.55 1180.25 168.778 1180.25 169C1180.25 168.769 1180.25 168.541 1180.25 168.315C1180.23 160.965 1177.18 147.658 1165.11 146.892C1164.72 146.9 1164.35 146.888 1164 146.857C1164.38 146.857 1164.75 146.869 1165.11 146.892C1170.52 146.773 1179.43 142.571 1180.19 126.3Z" fill="#D4E7EB"/>
<path d="M161.193 626.3C161.179 625.48 161.199 624.707 161.246 624C161.246 624.792 161.228 625.559 161.193 626.3C161.332 634.317 164.736 646.857 178 646.857C172.493 647.327 161.556 652.288 161.253 668.315C161.253 668.55 161.251 668.778 161.246 669C161.246 668.769 161.248 668.541 161.253 668.315C161.226 660.965 158.185 647.658 146.107 646.892C145.718 646.9 145.348 646.888 145 646.857C145.377 646.857 145.746 646.869 146.107 646.892C151.516 646.773 160.427 642.571 161.193 626.3Z" fill="white"/>
<path d="M161.193 626.3C161.179 625.48 161.199 624.707 161.246 624C161.246 624.792 161.228 625.559 161.193 626.3C161.332 634.317 164.736 646.857 178 646.857C172.493 647.327 161.556 652.288 161.253 668.315C161.253 668.55 161.251 668.778 161.246 669C161.246 668.769 161.248 668.541 161.253 668.315C161.226 660.965 158.185 647.658 146.107 646.892C145.718 646.9 145.348 646.888 145 646.857C145.377 646.857 145.746 646.869 146.107 646.892C151.516 646.773 160.427 642.571 161.193 626.3Z" fill="white"/>
<path d="M161.193 626.3C161.179 625.48 161.199 624.707 161.246 624C161.246 624.792 161.228 625.559 161.193 626.3C161.332 634.317 164.736 646.857 178 646.857C172.493 647.327 161.556 652.288 161.253 668.315C161.253 668.55 161.251 668.778 161.246 669C161.246 668.769 161.248 668.541 161.253 668.315C161.226 660.965 158.185 647.658 146.107 646.892C145.718 646.9 145.348 646.888 145 646.857C145.377 646.857 145.746 646.869 146.107 646.892C151.516 646.773 160.427 642.571 161.193 626.3Z" fill="white"/>
<path d="M161.193 626.3C161.179 625.48 161.199 624.707 161.246 624C161.246 624.792 161.228 625.559 161.193 626.3C161.332 634.317 164.736 646.857 178 646.857C172.493 647.327 161.556 652.288 161.253 668.315C161.253 668.55 161.251 668.778 161.246 669C161.246 668.769 161.248 668.541 161.253 668.315C161.226 660.965 158.185 647.658 146.107 646.892C145.718 646.9 145.348 646.888 145 646.857C145.377 646.857 145.746 646.869 146.107 646.892C151.516 646.773 160.427 642.571 161.193 626.3Z" fill="#D4E7EB"/>
<path d="M1049.06 952.221C1049.04 951.072 1049.07 949.99 1049.14 949C1049.14 950.109 1049.11 951.183 1049.06 952.221C1049.26 963.444 1054.11 981 1073 981C1065.16 981.657 1049.58 988.603 1049.15 1011.04C1049.15 1011.37 1049.15 1011.69 1049.14 1012C1049.14 1011.68 1049.14 1011.36 1049.15 1011.04C1049.11 1000.75 1044.78 982.121 1027.58 981.048C1027.02 981.06 1026.5 981.043 1026 981C1026.54 981 1027.06 981.016 1027.58 981.048C1035.28 980.882 1047.97 975 1049.06 952.221Z" fill="white"/>
<path d="M1049.06 952.221C1049.04 951.072 1049.07 949.99 1049.14 949C1049.14 950.109 1049.11 951.183 1049.06 952.221C1049.26 963.444 1054.11 981 1073 981C1065.16 981.657 1049.58 988.603 1049.15 1011.04C1049.15 1011.37 1049.15 1011.69 1049.14 1012C1049.14 1011.68 1049.14 1011.36 1049.15 1011.04C1049.11 1000.75 1044.78 982.121 1027.58 981.048C1027.02 981.06 1026.5 981.043 1026 981C1026.54 981 1027.06 981.016 1027.58 981.048C1035.28 980.882 1047.97 975 1049.06 952.221Z" fill="white"/>
<path d="M1049.06 952.221C1049.04 951.072 1049.07 949.99 1049.14 949C1049.14 950.109 1049.11 951.183 1049.06 952.221C1049.26 963.444 1054.11 981 1073 981C1065.16 981.657 1049.58 988.603 1049.15 1011.04C1049.15 1011.37 1049.15 1011.69 1049.14 1012C1049.14 1011.68 1049.14 1011.36 1049.15 1011.04C1049.11 1000.75 1044.78 982.121 1027.58 981.048C1027.02 981.06 1026.5 981.043 1026 981C1026.54 981 1027.06 981.016 1027.58 981.048C1035.28 980.882 1047.97 975 1049.06 952.221Z" fill="white"/>
<path d="M1049.06 952.221C1049.04 951.072 1049.07 949.99 1049.14 949C1049.14 950.109 1049.11 951.183 1049.06 952.221C1049.26 963.444 1054.11 981 1073 981C1065.16 981.657 1049.58 988.603 1049.15 1011.04C1049.15 1011.37 1049.15 1011.69 1049.14 1012C1049.14 1011.68 1049.14 1011.36 1049.15 1011.04C1049.11 1000.75 1044.78 982.121 1027.58 981.048C1027.02 981.06 1026.5 981.043 1026 981C1026.54 981 1027.06 981.016 1027.58 981.048C1035.28 980.882 1047.97 975 1049.06 952.221Z" fill="#D4E7EB"/>
<path d="M514.063 821.221C514.043 820.072 514.071 818.99 514.138 818C514.138 819.109 514.113 820.183 514.063 821.221C514.261 832.444 519.109 850 538 850C530.157 850.657 514.58 857.603 514.148 880.041C514.149 880.369 514.146 880.689 514.138 881C514.138 880.677 514.142 880.358 514.148 880.041C514.109 869.75 509.778 851.121 492.576 850.048C492.023 850.06 491.496 850.043 491 850C491.537 850 492.063 850.016 492.576 850.048C500.281 849.882 512.971 844 514.063 821.221Z" fill="white"/>
<path d="M514.063 821.221C514.043 820.072 514.071 818.99 514.138 818C514.138 819.109 514.113 820.183 514.063 821.221C514.261 832.444 519.109 850 538 850C530.157 850.657 514.58 857.603 514.148 880.041C514.149 880.369 514.146 880.689 514.138 881C514.138 880.677 514.142 880.358 514.148 880.041C514.109 869.75 509.778 851.121 492.576 850.048C492.023 850.06 491.496 850.043 491 850C491.537 850 492.063 850.016 492.576 850.048C500.281 849.882 512.971 844 514.063 821.221Z" fill="white"/>
<path d="M514.063 821.221C514.043 820.072 514.071 818.99 514.138 818C514.138 819.109 514.113 820.183 514.063 821.221C514.261 832.444 519.109 850 538 850C530.157 850.657 514.58 857.603 514.148 880.041C514.149 880.369 514.146 880.689 514.138 881C514.138 880.677 514.142 880.358 514.148 880.041C514.109 869.75 509.778 851.121 492.576 850.048C492.023 850.06 491.496 850.043 491 850C491.537 850 492.063 850.016 492.576 850.048C500.281 849.882 512.971 844 514.063 821.221Z" fill="white"/>
<path d="M514.063 821.221C514.043 820.072 514.071 818.99 514.138 818C514.138 819.109 514.113 820.183 514.063 821.221C514.261 832.444 519.109 850 538 850C530.157 850.657 514.58 857.603 514.148 880.041C514.149 880.369 514.146 880.689 514.138 881C514.138 880.677 514.142 880.358 514.148 880.041C514.109 869.75 509.778 851.121 492.576 850.048C492.023 850.06 491.496 850.043 491 850C491.537 850 492.063 850.016 492.576 850.048C500.281 849.882 512.971 844 514.063 821.221Z" fill="#D4E7EB"/>
<path d="M1009.19 937.045C1009.18 936.316 1009.2 935.629 1009.25 935C1009.25 935.704 1009.23 936.386 1009.19 937.045C1009.33 944.17 1012.74 955.317 1026 955.317C1020.49 955.735 1009.56 960.145 1009.25 974.391C1009.25 974.6 1009.25 974.803 1009.25 975C1009.25 974.795 1009.25 974.592 1009.25 974.391C1009.23 967.857 1006.18 956.029 994.107 955.348C993.718 955.356 993.348 955.345 993 955.317C993.377 955.317 993.746 955.328 994.107 955.348C999.516 955.242 1008.43 951.508 1009.19 937.045Z" fill="white"/>
<path d="M1009.19 937.045C1009.18 936.316 1009.2 935.629 1009.25 935C1009.25 935.704 1009.23 936.386 1009.19 937.045C1009.33 944.17 1012.74 955.317 1026 955.317C1020.49 955.735 1009.56 960.145 1009.25 974.391C1009.25 974.6 1009.25 974.803 1009.25 975C1009.25 974.795 1009.25 974.592 1009.25 974.391C1009.23 967.857 1006.18 956.029 994.107 955.348C993.718 955.356 993.348 955.345 993 955.317C993.377 955.317 993.746 955.328 994.107 955.348C999.516 955.242 1008.43 951.508 1009.19 937.045Z" fill="white"/>
<path d="M1009.19 937.045C1009.18 936.316 1009.2 935.629 1009.25 935C1009.25 935.704 1009.23 936.386 1009.19 937.045C1009.33 944.17 1012.74 955.317 1026 955.317C1020.49 955.735 1009.56 960.145 1009.25 974.391C1009.25 974.6 1009.25 974.803 1009.25 975C1009.25 974.795 1009.25 974.592 1009.25 974.391C1009.23 967.857 1006.18 956.029 994.107 955.348C993.718 955.356 993.348 955.345 993 955.317C993.377 955.317 993.746 955.328 994.107 955.348C999.516 955.242 1008.43 951.508 1009.19 937.045Z" fill="white"/>
<path d="M1009.19 937.045C1009.18 936.316 1009.2 935.629 1009.25 935C1009.25 935.704 1009.23 936.386 1009.19 937.045C1009.33 944.17 1012.74 955.317 1026 955.317C1020.49 955.735 1009.56 960.145 1009.25 974.391C1009.25 974.6 1009.25 974.803 1009.25 975C1009.25 974.795 1009.25 974.592 1009.25 974.391C1009.23 967.857 1006.18 956.029 994.107 955.348C993.718 955.356 993.348 955.345 993 955.317C993.377 955.317 993.746 955.328 994.107 955.348C999.516 955.242 1008.43 951.508 1009.19 937.045Z" fill="#D4E7EB"/>
<path d="M1360.19 666.045C1360.18 665.316 1360.2 664.629 1360.25 664C1360.25 664.704 1360.23 665.386 1360.19 666.045C1360.33 673.17 1363.74 684.317 1377 684.317C1371.49 684.735 1360.56 689.145 1360.25 703.391C1360.25 703.6 1360.25 703.803 1360.25 704C1360.25 703.795 1360.25 703.592 1360.25 703.391C1360.23 696.857 1357.18 685.029 1345.11 684.348C1344.72 684.356 1344.35 684.345 1344 684.317C1344.38 684.317 1344.75 684.328 1345.11 684.348C1350.52 684.242 1359.43 680.508 1360.19 666.045Z" fill="white"/>
<path d="M1360.19 666.045C1360.18 665.316 1360.2 664.629 1360.25 664C1360.25 664.704 1360.23 665.386 1360.19 666.045C1360.33 673.17 1363.74 684.317 1377 684.317C1371.49 684.735 1360.56 689.145 1360.25 703.391C1360.25 703.6 1360.25 703.803 1360.25 704C1360.25 703.795 1360.25 703.592 1360.25 703.391C1360.23 696.857 1357.18 685.029 1345.11 684.348C1344.72 684.356 1344.35 684.345 1344 684.317C1344.38 684.317 1344.75 684.328 1345.11 684.348C1350.52 684.242 1359.43 680.508 1360.19 666.045Z" fill="white"/>
<path d="M1732.19 930.045C1732.18 929.316 1732.2 928.629 1732.25 928C1732.25 928.704 1732.23 929.386 1732.19 930.045C1732.33 937.17 1735.74 948.317 1749 948.317C1743.49 948.735 1732.56 953.145 1732.25 967.391C1732.25 967.6 1732.25 967.803 1732.25 968C1732.25 967.795 1732.25 967.592 1732.25 967.391C1732.23 960.857 1729.18 949.029 1717.11 948.348C1716.72 948.356 1716.35 948.345 1716 948.317C1716.38 948.317 1716.75 948.328 1717.11 948.348C1722.52 948.242 1731.43 944.508 1732.19 930.045Z" fill="white"/>
<path d="M1818.06 892.965C1818.04 891.908 1818.07 890.912 1818.14 890C1818.14 891.021 1818.11 892.009 1818.06 892.965C1818.26 903.297 1823.11 919.46 1842 919.46C1834.16 920.066 1818.58 926.46 1818.15 947.117C1818.15 947.419 1818.15 947.714 1818.14 948C1818.14 947.703 1818.14 947.409 1818.15 947.117C1818.11 937.643 1813.78 920.492 1796.58 919.505C1796.02 919.516 1795.5 919.5 1795 919.46C1795.54 919.46 1796.06 919.475 1796.58 919.505C1804.28 919.352 1816.97 913.936 1818.06 892.965Z" fill="white"/>
<path d="M1818.06 892.965C1818.04 891.908 1818.07 890.912 1818.14 890C1818.14 891.021 1818.11 892.009 1818.06 892.965C1818.26 903.297 1823.11 919.46 1842 919.46C1834.16 920.066 1818.58 926.46 1818.15 947.117C1818.15 947.419 1818.15 947.714 1818.14 948C1818.14 947.703 1818.14 947.409 1818.15 947.117C1818.11 937.643 1813.78 920.492 1796.58 919.505C1796.02 919.516 1795.5 919.5 1795 919.46C1795.54 919.46 1796.06 919.475 1796.58 919.505C1804.28 919.352 1816.97 913.936 1818.06 892.965Z" fill="white"/>
<path d="M1818.06 892.965C1818.04 891.908 1818.07 890.912 1818.14 890C1818.14 891.021 1818.11 892.009 1818.06 892.965C1818.26 903.297 1823.11 919.46 1842 919.46C1834.16 920.066 1818.58 926.46 1818.15 947.117C1818.15 947.419 1818.15 947.714 1818.14 948C1818.14 947.703 1818.14 947.409 1818.15 947.117C1818.11 937.643 1813.78 920.492 1796.58 919.505C1796.02 919.516 1795.5 919.5 1795 919.46C1795.54 919.46 1796.06 919.475 1796.58 919.505C1804.28 919.352 1816.97 913.936 1818.06 892.965Z" fill="white"/>
<path d="M1818.06 892.965C1818.04 891.908 1818.07 890.912 1818.14 890C1818.14 891.021 1818.11 892.009 1818.06 892.965C1818.26 903.297 1823.11 919.46 1842 919.46C1834.16 920.066 1818.58 926.46 1818.15 947.117C1818.15 947.419 1818.15 947.714 1818.14 948C1818.14 947.703 1818.14 947.409 1818.15 947.117C1818.11 937.643 1813.78 920.492 1796.58 919.505C1796.02 919.516 1795.5 919.5 1795 919.46C1795.54 919.46 1796.06 919.475 1796.58 919.505C1804.28 919.352 1816.97 913.936 1818.06 892.965Z" fill="#D4E7EB"/>
<path d="M1809.72 976.789C1809.71 976.151 1809.73 975.55 1809.77 975C1809.77 975.616 1809.75 976.213 1809.72 976.789C1809.85 983.024 1812.94 992.778 1825 992.778C1819.99 993.143 1810.05 997.002 1809.78 1009.47C1809.78 1009.65 1809.77 1009.83 1809.77 1010C1809.77 1009.82 1809.77 1009.64 1809.78 1009.47C1809.75 1003.75 1806.99 993.4 1796.01 992.805C1795.65 992.811 1795.32 992.802 1795 992.778C1795.34 992.778 1795.68 992.787 1796.01 992.805C1800.92 992.712 1809.02 989.444 1809.72 976.789Z" fill="white"/>
<path d="M1809.72 976.789C1809.71 976.151 1809.73 975.55 1809.77 975C1809.77 975.616 1809.75 976.213 1809.72 976.789C1809.85 983.024 1812.94 992.778 1825 992.778C1819.99 993.143 1810.05 997.002 1809.78 1009.47C1809.78 1009.65 1809.77 1009.83 1809.77 1010C1809.77 1009.82 1809.77 1009.64 1809.78 1009.47C1809.75 1003.75 1806.99 993.4 1796.01 992.805C1795.65 992.811 1795.32 992.802 1795 992.778C1795.34 992.778 1795.68 992.787 1796.01 992.805C1800.92 992.712 1809.02 989.444 1809.72 976.789Z" fill="white"/>
<path d="M1809.72 976.789C1809.71 976.151 1809.73 975.55 1809.77 975C1809.77 975.616 1809.75 976.213 1809.72 976.789C1809.85 983.024 1812.94 992.778 1825 992.778C1819.99 993.143 1810.05 997.002 1809.78 1009.47C1809.78 1009.65 1809.77 1009.83 1809.77 1010C1809.77 1009.82 1809.77 1009.64 1809.78 1009.47C1809.75 1003.75 1806.99 993.4 1796.01 992.805C1795.65 992.811 1795.32 992.802 1795 992.778C1795.34 992.778 1795.68 992.787 1796.01 992.805C1800.92 992.712 1809.02 989.444 1809.72 976.789Z" fill="white"/>
<path d="M1809.72 976.789C1809.71 976.151 1809.73 975.55 1809.77 975C1809.77 975.616 1809.75 976.213 1809.72 976.789C1809.85 983.024 1812.94 992.778 1825 992.778C1819.99 993.143 1810.05 997.002 1809.78 1009.47C1809.78 1009.65 1809.77 1009.83 1809.77 1010C1809.77 1009.82 1809.77 1009.64 1809.78 1009.47C1809.75 1003.75 1806.99 993.4 1796.01 992.805C1795.65 992.811 1795.32 992.802 1795 992.778C1795.34 992.778 1795.68 992.787 1796.01 992.805C1800.92 992.712 1809.02 989.444 1809.72 976.789Z" fill="#D4E7EB"/>
<path d="M797.647 203.249C797.63 202.447 797.653 201.692 797.708 201C797.708 201.775 797.687 202.524 797.647 203.249C797.806 211.088 801.726 223.349 817 223.349C810.659 223.808 798.064 228.659 797.715 244.33C797.716 244.56 797.714 244.783 797.708 245C797.708 244.775 797.71 244.551 797.715 244.33C797.684 237.143 794.182 224.132 780.275 223.383C779.827 223.391 779.401 223.379 779 223.349C779.434 223.349 779.859 223.361 780.275 223.383C786.504 223.267 796.764 219.159 797.647 203.249Z" fill="white"/>
<path d="M797.647 203.249C797.63 202.447 797.653 201.692 797.708 201C797.708 201.775 797.687 202.524 797.647 203.249C797.806 211.088 801.726 223.349 817 223.349C810.659 223.808 798.064 228.659 797.715 244.33C797.716 244.56 797.714 244.783 797.708 245C797.708 244.775 797.71 244.551 797.715 244.33C797.684 237.143 794.182 224.132 780.275 223.383C779.827 223.391 779.401 223.379 779 223.349C779.434 223.349 779.859 223.361 780.275 223.383C786.504 223.267 796.764 219.159 797.647 203.249Z" fill="white"/>
<path d="M797.647 203.249C797.63 202.447 797.653 201.692 797.708 201C797.708 201.775 797.687 202.524 797.647 203.249C797.806 211.088 801.726 223.349 817 223.349C810.659 223.808 798.064 228.659 797.715 244.33C797.716 244.56 797.714 244.783 797.708 245C797.708 244.775 797.71 244.551 797.715 244.33C797.684 237.143 794.182 224.132 780.275 223.383C779.827 223.391 779.401 223.379 779 223.349C779.434 223.349 779.859 223.361 780.275 223.383C786.504 223.267 796.764 219.159 797.647 203.249Z" fill="white"/>
<path d="M797.647 203.249C797.63 202.447 797.653 201.692 797.708 201C797.708 201.775 797.687 202.524 797.647 203.249C797.806 211.088 801.726 223.349 817 223.349C810.659 223.808 798.064 228.659 797.715 244.33C797.716 244.56 797.714 244.783 797.708 245C797.708 244.775 797.71 244.551 797.715 244.33C797.684 237.143 794.182 224.132 780.275 223.383C779.827 223.391 779.401 223.379 779 223.349C779.434 223.349 779.859 223.361 780.275 223.383C786.504 223.267 796.764 219.159 797.647 203.249Z" fill="#D4E7EB"/>
<path d="M750.989 247.221C750.965 246.072 750.998 244.99 751.077 244C751.077 245.109 751.047 246.183 750.989 247.221C751.22 258.444 756.893 276 779 276C769.822 276.657 751.593 283.603 751.088 306.041C751.089 306.369 751.085 306.689 751.077 307C751.077 306.677 751.081 306.358 751.088 306.041C751.043 295.75 745.974 277.121 725.845 276.048C725.197 276.06 724.58 276.043 724 276C724.629 276 725.243 276.016 725.845 276.048C734.86 275.882 749.711 270 750.989 247.221Z" fill="white"/>
<path d="M750.989 247.221C750.965 246.072 750.998 244.99 751.077 244C751.077 245.109 751.047 246.183 750.989 247.221C751.22 258.444 756.893 276 779 276C769.822 276.657 751.593 283.603 751.088 306.041C751.089 306.369 751.085 306.689 751.077 307C751.077 306.677 751.081 306.358 751.088 306.041C751.043 295.75 745.974 277.121 725.845 276.048C725.197 276.06 724.58 276.043 724 276C724.629 276 725.243 276.016 725.845 276.048C734.86 275.882 749.711 270 750.989 247.221Z" fill="white"/>
<path d="M750.989 247.221C750.965 246.072 750.998 244.99 751.077 244C751.077 245.109 751.047 246.183 750.989 247.221C751.22 258.444 756.893 276 779 276C769.822 276.657 751.593 283.603 751.088 306.041C751.089 306.369 751.085 306.689 751.077 307C751.077 306.677 751.081 306.358 751.088 306.041C751.043 295.75 745.974 277.121 725.845 276.048C725.197 276.06 724.58 276.043 724 276C724.629 276 725.243 276.016 725.845 276.048C734.86 275.882 749.711 270 750.989 247.221Z" fill="white"/>
<path d="M750.989 247.221C750.965 246.072 750.998 244.99 751.077 244C751.077 245.109 751.047 246.183 750.989 247.221C751.22 258.444 756.893 276 779 276C769.822 276.657 751.593 283.603 751.088 306.041C751.089 306.369 751.085 306.689 751.077 307C751.077 306.677 751.081 306.358 751.088 306.041C751.043 295.75 745.974 277.121 725.845 276.048C725.197 276.06 724.58 276.043 724 276C724.629 276 725.243 276.016 725.845 276.048C734.86 275.882 749.711 270 750.989 247.221Z" fill="#D4E7EB"/>
<path d="M392.591 70.5561C392.572 69.6446 392.599 68.7858 392.662 68C392.662 68.8804 392.638 69.7322 392.591 70.5561C392.776 79.4631 397.314 93.3968 415 93.3968C407.657 93.9186 393.074 99.4308 392.67 117.239C392.671 117.5 392.668 117.754 392.662 118C392.662 117.744 392.664 117.49 392.67 117.239C392.634 109.072 388.58 94.2862 372.476 93.4352C371.958 93.4447 371.464 93.4308 371 93.3968C371.503 93.3968 371.995 93.4098 372.476 93.4352C379.688 93.3031 391.569 88.6349 392.591 70.5561Z" fill="white"/>
<path d="M392.591 70.5561C392.572 69.6446 392.599 68.7858 392.662 68C392.662 68.8804 392.638 69.7322 392.591 70.5561C392.776 79.4631 397.314 93.3968 415 93.3968C407.657 93.9186 393.074 99.4308 392.67 117.239C392.671 117.5 392.668 117.754 392.662 118C392.662 117.744 392.664 117.49 392.67 117.239C392.634 109.072 388.58 94.2862 372.476 93.4352C371.958 93.4447 371.464 93.4308 371 93.3968C371.503 93.3968 371.995 93.4098 372.476 93.4352C379.688 93.3031 391.569 88.6349 392.591 70.5561Z" fill="white"/>
<path d="M392.591 70.5561C392.572 69.6446 392.599 68.7858 392.662 68C392.662 68.8804 392.638 69.7322 392.591 70.5561C392.776 79.4631 397.314 93.3968 415 93.3968C407.657 93.9186 393.074 99.4308 392.67 117.239C392.671 117.5 392.668 117.754 392.662 118C392.662 117.744 392.664 117.49 392.67 117.239C392.634 109.072 388.58 94.2862 372.476 93.4352C371.958 93.4447 371.464 93.4308 371 93.3968C371.503 93.3968 371.995 93.4098 372.476 93.4352C379.688 93.3031 391.569 88.6349 392.591 70.5561Z" fill="white"/>
<path d="M392.591 70.5561C392.572 69.6446 392.599 68.7858 392.662 68C392.662 68.8804 392.638 69.7322 392.591 70.5561C392.776 79.4631 397.314 93.3968 415 93.3968C407.657 93.9186 393.074 99.4308 392.67 117.239C392.671 117.5 392.668 117.754 392.662 118C392.662 117.744 392.664 117.49 392.67 117.239C392.634 109.072 388.58 94.2862 372.476 93.4352C371.958 93.4447 371.464 93.4308 371 93.3968C371.503 93.3968 371.995 93.4098 372.476 93.4352C379.688 93.3031 391.569 88.6349 392.591 70.5561Z" fill="#D4E7EB"/>
<path d="M42.4608 287.374C42.4359 286.171 42.471 285.037 42.5539 284C42.5539 285.162 42.5222 286.286 42.4608 287.374C42.7045 299.131 48.6871 317.524 72 317.524C62.3212 318.213 43.0982 325.489 42.5652 348.995C42.5667 349.339 42.5628 349.675 42.5539 350C42.5539 349.662 42.5577 349.327 42.5652 348.995C42.5179 338.215 37.1729 318.698 15.9454 317.575C15.2627 317.587 14.6117 317.569 14 317.524C14.6628 317.524 15.3112 317.541 15.9454 317.575C25.4528 317.4 41.1137 311.238 42.4608 287.374Z" fill="white"/>
<path d="M42.4608 287.374C42.4359 286.171 42.471 285.037 42.5539 284C42.5539 285.162 42.5222 286.286 42.4608 287.374C42.7045 299.131 48.6871 317.524 72 317.524C62.3212 318.213 43.0982 325.489 42.5652 348.995C42.5667 349.339 42.5628 349.675 42.5539 350C42.5539 349.662 42.5577 349.327 42.5652 348.995C42.5179 338.215 37.1729 318.698 15.9454 317.575C15.2627 317.587 14.6117 317.569 14 317.524C14.6628 317.524 15.3112 317.541 15.9454 317.575C25.4528 317.4 41.1137 311.238 42.4608 287.374Z" fill="white"/>
<path d="M42.4608 287.374C42.4359 286.171 42.471 285.037 42.5539 284C42.5539 285.162 42.5222 286.286 42.4608 287.374C42.7045 299.131 48.6871 317.524 72 317.524C62.3212 318.213 43.0982 325.489 42.5652 348.995C42.5667 349.339 42.5628 349.675 42.5539 350C42.5539 349.662 42.5577 349.327 42.5652 348.995C42.5179 338.215 37.1729 318.698 15.9454 317.575C15.2627 317.587 14.6117 317.569 14 317.524C14.6628 317.524 15.3112 317.541 15.9454 317.575C25.4528 317.4 41.1137 311.238 42.4608 287.374Z" fill="white"/>
<path d="M42.4608 287.374C42.4359 286.171 42.471 285.037 42.5539 284C42.5539 285.162 42.5222 286.286 42.4608 287.374C42.7045 299.131 48.6871 317.524 72 317.524C62.3212 318.213 43.0982 325.489 42.5652 348.995C42.5667 349.339 42.5628 349.675 42.5539 350C42.5539 349.662 42.5577 349.327 42.5652 348.995C42.5179 338.215 37.1729 318.698 15.9454 317.575C15.2627 317.587 14.6117 317.569 14 317.524C14.6628 317.524 15.3112 317.541 15.9454 317.575C25.4528 317.4 41.1137 311.238 42.4608 287.374Z" fill="#D4E7EB"/>
<path d="M72.2862 210.096C72.2763 209.349 72.2902 208.644 72.3231 208C72.3231 208.722 72.3105 209.42 72.2862 210.096C72.3828 217.4 74.7552 228.825 84 228.825C80.1618 229.253 72.5389 233.773 72.3276 248.376C72.3282 248.59 72.3266 248.798 72.3231 249C72.3231 248.79 72.3246 248.582 72.3276 248.376C72.3088 241.679 70.1893 229.555 61.7714 228.857C61.5007 228.865 61.2426 228.853 61 228.825C61.2628 228.825 61.52 228.836 61.7714 228.857C65.5416 228.749 71.752 224.921 72.2862 210.096Z" fill="white"/>
<path d="M72.2862 210.096C72.2763 209.349 72.2902 208.644 72.3231 208C72.3231 208.722 72.3105 209.42 72.2862 210.096C72.3828 217.4 74.7552 228.825 84 228.825C80.1618 229.253 72.5389 233.773 72.3276 248.376C72.3282 248.59 72.3266 248.798 72.3231 249C72.3231 248.79 72.3246 248.582 72.3276 248.376C72.3088 241.679 70.1893 229.555 61.7714 228.857C61.5007 228.865 61.2426 228.853 61 228.825C61.2628 228.825 61.52 228.836 61.7714 228.857C65.5416 228.749 71.752 224.921 72.2862 210.096Z" fill="white"/>
<path d="M72.2862 210.096C72.2763 209.349 72.2902 208.644 72.3231 208C72.3231 208.722 72.3105 209.42 72.2862 210.096C72.3828 217.4 74.7552 228.825 84 228.825C80.1618 229.253 72.5389 233.773 72.3276 248.376C72.3282 248.59 72.3266 248.798 72.3231 249C72.3231 248.79 72.3246 248.582 72.3276 248.376C72.3088 241.679 70.1893 229.555 61.7714 228.857C61.5007 228.865 61.2426 228.853 61 228.825C61.2628 228.825 61.52 228.836 61.7714 228.857C65.5416 228.749 71.752 224.921 72.2862 210.096Z" fill="white"/>
<path d="M72.2862 210.096C72.2763 209.349 72.2902 208.644 72.3231 208C72.3231 208.722 72.3105 209.42 72.2862 210.096C72.3828 217.4 74.7552 228.825 84 228.825C80.1618 229.253 72.5389 233.773 72.3276 248.376C72.3282 248.59 72.3266 248.798 72.3231 249C72.3231 248.79 72.3246 248.582 72.3276 248.376C72.3088 241.679 70.1893 229.555 61.7714 228.857C61.5007 228.865 61.2426 228.853 61 228.825C61.2628 228.825 61.52 228.836 61.7714 228.857C65.5416 228.749 71.752 224.921 72.2862 210.096Z" fill="#D4E7EB"/>
<path d="M1163.74 171.687C1163.73 171.085 1163.74 170.519 1163.78 170C1163.78 170.581 1163.77 171.143 1163.74 171.687C1163.86 177.566 1166.75 186.762 1178 186.762C1173.33 187.106 1164.05 190.744 1163.79 202.498C1163.79 202.67 1163.79 202.837 1163.78 203C1163.78 202.831 1163.79 202.664 1163.79 202.498C1163.77 197.107 1161.19 187.349 1150.94 186.787C1150.61 186.794 1150.3 186.784 1150 186.762C1150.32 186.762 1150.63 186.77 1150.94 186.787C1155.53 186.7 1163.09 183.619 1163.74 171.687Z" fill="white"/>
<path d="M1163.74 171.687C1163.73 171.085 1163.74 170.519 1163.78 170C1163.78 170.581 1163.77 171.143 1163.74 171.687C1163.86 177.566 1166.75 186.762 1178 186.762C1173.33 187.106 1164.05 190.744 1163.79 202.498C1163.79 202.67 1163.79 202.837 1163.78 203C1163.78 202.831 1163.79 202.664 1163.79 202.498C1163.77 197.107 1161.19 187.349 1150.94 186.787C1150.61 186.794 1150.3 186.784 1150 186.762C1150.32 186.762 1150.63 186.77 1150.94 186.787C1155.53 186.7 1163.09 183.619 1163.74 171.687Z" fill="white"/>
<path d="M1163.74 171.687C1163.73 171.085 1163.74 170.519 1163.78 170C1163.78 170.581 1163.77 171.143 1163.74 171.687C1163.86 177.566 1166.75 186.762 1178 186.762C1173.33 187.106 1164.05 190.744 1163.79 202.498C1163.79 202.67 1163.79 202.837 1163.78 203C1163.78 202.831 1163.79 202.664 1163.79 202.498C1163.77 197.107 1161.19 187.349 1150.94 186.787C1150.61 186.794 1150.3 186.784 1150 186.762C1150.32 186.762 1150.63 186.77 1150.94 186.787C1155.53 186.7 1163.09 183.619 1163.74 171.687Z" fill="white"/>
<path d="M1163.74 171.687C1163.73 171.085 1163.74 170.519 1163.78 170C1163.78 170.581 1163.77 171.143 1163.74 171.687C1163.86 177.566 1166.75 186.762 1178 186.762C1173.33 187.106 1164.05 190.744 1163.79 202.498C1163.79 202.67 1163.79 202.837 1163.78 203C1163.78 202.831 1163.79 202.664 1163.79 202.498C1163.77 197.107 1161.19 187.349 1150.94 186.787C1150.61 186.794 1150.3 186.784 1150 186.762C1150.32 186.762 1150.63 186.77 1150.94 186.787C1155.53 186.7 1163.09 183.619 1163.74 171.687Z" fill="#D4E7EB"/>
<path d="M550.959 349.205C403.288 88.2898 563.425 -19.2299 661.951 -40.3754C956.138 -320.175 1377.19 -744.726 707.888 -204.531C-128.734 470.713 493.249 493.015 526.849 640.075C553.729 757.722 500.153 791.866 473.834 889.183C459.773 941.172 698.629 610.119 550.959 349.205Z" fill="#3F2B66" fill-opacity="0.4"/>
<path d="M1436.84 87.0057C1430.61 86.227 1344.59 165.093 1304.14 206.733L1344.05 241.45C1377.14 189.428 1443.07 87.7844 1436.84 87.0057Z" fill="url(#paint1_linear_103_130)" fill-opacity="0.35"/>
<g filter="url(#filter0_i_103_130)">
<circle cx="1323.61" cy="224.903" r="26.606" fill="#596B9A"/>
</g>
<path d="M767.239 850.277C761.2 848.559 664.179 913.423 617.866 948.425L652.03 988.809C692.653 942.426 773.277 851.994 767.239 850.277Z" fill="url(#paint2_linear_103_130)" fill-opacity="0.35"/>
<g filter="url(#filter1_i_103_130)">
<circle cx="634.343" cy="969.345" r="26.606" transform="rotate(8.74898 634.343 969.345)" fill="#596B9A"/>
</g>
<path d="M537.817 87.4864C532.024 85.0665 428.008 137.991 377.878 167.265L407.022 211.409C452.849 170.16 543.61 89.9063 537.817 87.4864Z" fill="url(#paint3_linear_103_130)" fill-opacity="0.35"/>
<g filter="url(#filter2_i_103_130)">
<circle cx="391.763" cy="189.988" r="26.606" transform="rotate(15.5465 391.763 189.988)" fill="#596B9A"/>
</g>
<path d="M1964.84 614.006C1958.61 613.227 1872.59 692.093 1832.14 733.733L1872.05 768.45C1905.14 716.428 1971.07 614.784 1964.84 614.006Z" fill="url(#paint4_linear_103_130)" fill-opacity="0.35"/>
<g filter="url(#filter3_i_103_130)">
<circle cx="1851.61" cy="751.903" r="26.606" fill="#596B9A"/>
</g>
<path d="M2074 334C2074 519.015 1923.94 669 1738.84 669C1553.73 669 1403.67 519.015 1403.67 334C1403.67 148.985 1553.73 -1 1738.84 -1C1923.94 -1 2074 148.985 2074 334Z" fill="#261644" fill-opacity="0.15"/>
<path d="M1976.36 334C1976.36 465.116 1870.02 571.406 1738.84 571.406C1607.66 571.406 1501.31 465.116 1501.31 334C1501.31 202.884 1607.66 96.5941 1738.84 96.5941C1870.02 96.5941 1976.36 202.884 1976.36 334Z" fill="#FFE926" fill-opacity="0.15"/>
<path d="M2016.95 328.517C2016.95 479.921 1894.15 602.658 1742.68 602.658C1591.2 602.658 1468.4 479.921 1468.4 328.517C1468.4 177.114 1591.2 54.3766 1742.68 54.3766C1894.15 54.3766 2016.95 177.114 2016.95 328.517Z" fill="#785DAA" fill-opacity="0.09"/>
<path d="M1957.71 334.548C1957.71 452.643 1861.93 548.378 1743.77 548.378C1625.62 548.378 1529.84 452.643 1529.84 334.548C1529.84 216.453 1625.62 120.718 1743.77 120.718C1861.93 120.718 1957.71 216.453 1957.71 334.548Z" fill="#FDB916"/>
<path d="M1633.94 197.086C1659.92 203.578 1654.47 167.494 1669.75 168.926C1685.04 170.358 1661.64 179.904 1672.14 182.767C1682.65 185.631 1681.25 178.076 1685.51 176.085C1701.86 168.453 1676.92 210.451 1662.59 216.178C1648.27 221.906 1667.84 245.293 1633.94 241.952C1600.04 238.611 1601.47 188.972 1633.94 197.086Z" fill="url(#paint5_linear_103_130)"/>
<path d="M1658.93 259.394C1677.42 270.7 1669.08 257.023 1675.85 255.126C1684.1 252.814 1674.37 261.385 1678.6 269.352C1683.89 279.311 1683.89 250.383 1705.04 269.352C1726.19 288.322 1687.9 275.043 1676.69 282.631C1667.73 288.701 1639.47 272.672 1639.26 259.394C1636.23 260.974 1635.66 245.167 1658.93 259.394Z" fill="url(#paint6_linear_103_130)"/>
<path d="M1654 404.234C1648.27 352.686 1712.26 341.708 1725.15 360.323C1738.04 378.937 1691.72 387.528 1708.44 411.393C1725.15 435.258 1721.81 390.87 1758.1 408.53C1818.47 437.905 1758.1 356.981 1833.55 360.8C1871.75 369.868 1868.25 344.731 1852.17 326.434C1836.25 312.274 1813.97 280.041 1852.17 264.385C1899.93 244.816 1852.17 205.678 1856.95 181.336C1860.77 161.862 1870.32 159.221 1879.87 169.88L1880.82 169.88C1883.69 192.791 1957.71 225.724 1957.23 326.434C1956.75 427.144 1909.48 468.192 1895.15 485.375C1880.82 502.557 1819.22 547.423 1758.1 547.423C1734.64 548.696 1679.26 545.801 1645.4 524.036C1644.31 523.662 1643.19 523.213 1642.04 522.693C1594.57 502.726 1559.79 446.799 1548.05 420.615C1548.03 420.564 1548.01 420.513 1547.98 420.462C1553.8 424.095 1561.56 428.809 1569.95 433.719C1581.89 427.55 1598.6 405.189 1569.95 365.095C1534.14 314.979 1588.1 266.295 1616.75 291.591C1639.67 311.829 1626.3 345.844 1616.75 360.323C1604.81 371.141 1587.05 395.07 1611.5 404.234C1635.95 413.398 1630.28 445.496 1624.39 460.399C1639 454.88 1657.85 438.924 1654 404.234Z" fill="url(#paint7_linear_103_130)"/>
<path d="M1743.29 378.46C1738.71 401.37 1760.8 401.688 1772.42 398.984C1774.02 397.87 1776.24 392.97 1772.42 382.278C1767.65 368.914 1793.44 361.754 1796.78 349.345C1800.12 336.935 1781.02 311.638 1772.42 342.662C1763.83 373.687 1749.03 349.822 1743.29 378.46Z" fill="url(#paint8_linear_103_130)"/>
<path d="M1610.06 167.494C1594.79 180.941 1586.84 189.099 1573.77 204.723C1583.16 194.382 1603.57 177.803 1610.06 194.222C1618.18 214.746 1579.02 203.768 1569.95 216.656C1565.27 223.303 1558.49 227.156 1561.35 253.885C1564.22 280.614 1599.56 268.204 1583.32 244.339C1570.33 225.247 1585.55 221.429 1594.78 221.906C1608.15 224.133 1632.13 223.242 1621.05 201.859C1607.2 175.131 1658.77 204.723 1660.2 182.767C1661.35 165.203 1627.25 165.266 1610.06 167.494Z" fill="url(#paint9_linear_103_130)"/>
<path fill-rule="evenodd" clip-rule="evenodd" d="M1775.77 164.153C1768.13 175.608 1683.99 192.027 1735.18 230.974C1799.17 279.659 1835.94 240.998 1842.14 225.247C1848.35 209.496 1792.96 184.199 1828.3 153.652C1835.78 147.765 1839.18 136.66 1792.96 139.333C1735.18 142.674 1729.45 106.877 1686.47 139.333C1643.49 171.789 1708.91 187.54 1730.88 156.993C1748.45 132.555 1783.41 152.697 1775.77 164.153ZM1746.16 200.905C1747.06 176.768 1792.96 203.768 1797.26 193.268C1801.55 182.767 1781.98 186.586 1778.15 177.994C1774.33 169.403 1787.71 167.494 1803.46 179.904C1819.22 192.313 1801.08 203.768 1792.96 214.746C1784.84 225.724 1816.36 230.974 1810.15 241.475C1803.94 251.976 1775.77 246.248 1773.86 229.543C1771.95 212.837 1745.31 223.684 1746.16 200.905Z" fill="url(#paint10_linear_103_130)"/>
<path fill-rule="evenodd" clip-rule="evenodd" d="M1656.61 316.081C1653.56 326.089 1651.34 333.346 1677.4 332.162C1719.42 330.253 1742.34 306.865 1714.64 283.955C1700.43 272.197 1698.16 255.536 1696.49 243.198C1694.89 231.496 1693.83 223.684 1683.6 227.633C1672.78 231.811 1675.89 240.924 1679.17 250.541C1682.26 259.602 1685.5 269.112 1677.4 275.363C1669.37 281.549 1655.41 279.047 1644.22 277.043C1632.09 274.871 1623.22 273.282 1628.69 283.955C1633.17 292.719 1637.77 292.127 1642.75 291.484C1647.1 290.923 1651.74 290.324 1656.86 295.887C1660.67 302.779 1658.48 309.947 1656.61 316.081ZM1684.33 291.484C1696.74 289.415 1686.95 285.864 1686.95 285.864C1686.95 285.864 1685.65 279.659 1691.38 273.931C1698.55 266.772 1704.77 283 1698.41 290.159C1692.53 296.767 1687.9 294.932 1687.9 302.092C1687.9 309.439 1698.69 304.751 1704.77 301.599C1711.3 298.218 1714.75 295.564 1717.03 305.433C1718.46 311.638 1709.87 317.835 1699.36 316.081C1694.86 315.329 1695.25 318.516 1689.58 318.053C1666.18 316.144 1669.88 293.892 1684.33 291.484Z" fill="url(#paint11_linear_103_130)"/>
<path d="M1657.34 479.647C1677.59 473.538 1679.46 445.282 1677.87 431.917C1676.44 425.871 1676.15 415.307 1686.47 421.417C1699.36 429.053 1697.45 452.441 1717.03 463.419C1736.61 474.397 1726.1 515.922 1706.52 515.922C1686.95 515.922 1632.03 487.284 1657.34 479.647Z" fill="url(#paint12_linear_103_130)"/>
<path d="M1695.06 461.987C1687.74 466.76 1673.58 477.738 1675.49 483.465C1677.87 490.625 1692.2 505.899 1701.75 498.739C1709.39 493.011 1700.48 471.851 1695.06 461.987Z" fill="url(#paint13_linear_103_130)"/>
<path fill-rule="evenodd" clip-rule="evenodd" d="M1898.97 318.32C1868.41 315.648 1850.74 307.342 1845.96 286.819C1841.19 266.295 1884.17 267.727 1891.81 283C1895.39 290.159 1902.46 290.406 1910.48 290.685C1923.85 291.152 1939.86 291.71 1946.72 324.525C1955.51 366.528 1937.01 362.391 1926.67 355.072C1930.17 343.935 1929.53 320.993 1898.97 318.32ZM1917.12 318.32C1906.8 317.175 1905.82 307.024 1906.61 301.615C1910.32 298.375 1913.68 300.969 1917.42 303.85C1921.39 306.91 1925.78 310.293 1931.44 307.342C1934.94 306.865 1941.28 308.393 1938.61 318.32C1939.08 319.752 1930.01 319.752 1917.12 318.32Z" fill="url(#paint14_linear_103_130)"/>
<path fill-rule="evenodd" clip-rule="evenodd" d="M1823.52 450.532C1829.25 392.111 1874.02 387.014 1889.9 412.348C1890.8 413.793 1891.85 415.39 1892.97 417.094C1902.97 432.348 1918.57 456.126 1887.99 455.782C1858.05 455.446 1854.41 480.916 1852.04 497.51C1851.05 504.477 1850.28 509.879 1847.87 511.149C1845.24 512.543 1840.14 511.877 1833.63 511.025C1820.06 509.252 1800.34 506.675 1783.89 520.218C1764.4 536.255 1726.1 527.714 1709.39 521.438C1770.46 510.022 1819.23 494.262 1823.52 450.532ZM1847.4 426.667C1844.72 415.212 1856.47 412.348 1862.68 412.348C1861.72 413.78 1860.1 419.221 1861.25 429.531C1861.93 435.651 1863.25 434.666 1866.5 432.251C1870.1 429.581 1876.05 425.163 1886.08 426.667C1905.18 429.531 1894.2 455.456 1889.9 448.145C1887.41 443.914 1872.12 448.419 1861.72 451.483C1854.16 453.713 1849.18 455.18 1853.61 451.964C1859.89 447.397 1857.63 444.366 1854.09 439.606C1851.71 436.405 1848.74 432.423 1847.4 426.667Z" fill="url(#paint15_linear_103_130)" fill-opacity="0.4"/>
<path d="M1858.97 190.35C1856.46 105.108 1793.14 90.563 1707.57 125.105C1749.99 97.8734 1801.37 61.5041 1884.2 90.563C1953.32 114.812 1981.84 179.385 1928.09 282.462C1887.72 359.864 1775.04 367.445 1724.02 369.09C1673.01 370.735 1621.45 364.156 1523.26 328.517C1425.06 292.879 1342.32 313.528 1317 364.156C1320.29 227.085 1573.17 322.486 1627.48 328.517C1681.79 334.548 1862.07 295.547 1858.97 190.35Z" fill="#FFF59D" fill-opacity="0.17"/>
<path d="M1967.61 252.265C1967.65 206.905 1903.44 191.493 1903.44 191.493C1903.44 191.493 1941.81 169.124 1991.67 226.891C2018.78 258.302 2020.15 306.258 1994.54 350.91C1942.51 441.655 1834.69 453.842 1784.37 445.301C1734.04 436.76 1718.8 429.472 1629.67 375.006C1624.71 371.97 1619.55 369.165 1614.27 366.593C1522.72 351.246 1441.09 355.282 1572.58 458.417C1400.13 346.629 1524.8 323.019 1614.27 366.593C1668.2 375.634 1725.59 391.403 1744.87 397.601C1796.89 414.319 1967.53 339.275 1967.61 252.265Z" fill="#FFF59D" fill-opacity="0.2"/>
<g filter="url(#filter4_f_103_130)">
<circle cx="362" cy="850" r="236" fill="#1C1032" fill-opacity="0.05"/>
</g>
<g filter="url(#filter5_f_103_130)">
<circle cx="366" cy="850" r="205" fill="#281747" fill-opacity="0.45"/>
</g>
<g filter="url(#filter6_f_103_130)">
<circle cx="366" cy="850" r="181" fill="#D9D9D9" fill-opacity="0.06"/>
</g>
<g filter="url(#filter7_d_103_130)">
<g filter="url(#filter8_i_103_130)">
<circle cx="366" cy="850" r="160" fill="#A2C8F7"/>
</g>
<g filter="url(#filter9_di_103_130)">
<circle cx="472.502" cy="820.169" r="31" transform="rotate(121.158 472.502 820.169)" fill="#A2C8F7"/>
</g>
<g filter="url(#filter10_di_103_130)">
<circle cx="390.801" cy="747.084" r="25.5" transform="rotate(104.535 390.801 747.084)" fill="#A2C8F7"/>
</g>
<g filter="url(#filter11_di_103_130)">
<circle cx="324.301" cy="918.589" r="28" transform="rotate(129.827 324.301 918.589)" fill="#A2C8F7"/>
</g>
<g filter="url(#filter12_di_103_130)">
<circle cx="300.272" cy="754.826" r="23.8687" transform="rotate(129.827 300.272 754.826)" fill="#7CAEE9"/>
</g>
<g filter="url(#filter13_di_103_130)">
<circle cx="251.808" cy="850.517" r="24.7135" transform="rotate(129.827 251.808 850.517)" fill="#A2C8F7"/>
</g>
<g filter="url(#filter14_di_103_130)">
<circle cx="482.651" cy="918.896" r="16.8821" transform="rotate(129.827 482.651 918.896)" fill="#A2C8F7"/>
</g>
<g filter="url(#filter15_di_103_130)">
<circle cx="341.473" cy="827.695" r="16.8821" transform="rotate(129.827 341.473 827.695)" fill="#A2C8F7"/>
</g>
<g filter="url(#filter16_di_103_130)">
<circle cx="401.259" cy="891.615" r="24" transform="rotate(121.158 401.259 891.615)" fill="#A2C8F7"/>
</g>
<g filter="url(#filter17_di_103_130)">
<circle cx="393.982" cy="976.429" r="24" transform="rotate(135.994 393.982 976.429)" fill="#A2C8F7"/>
</g>
</g>
<path d="M1833.41 737.347C1828.03 727.528 1816.96 720.669 1800.83 717.163C1784.7 713.656 1763.83 713.571 1739.4 716.911C1714.98 720.252 1687.48 726.953 1658.48 736.632C1629.48 746.31 1599.54 758.777 1570.38 773.321C1541.21 787.864 1513.39 804.199 1488.51 821.394C1463.62 838.588 1442.16 856.304 1425.34 873.531C1408.52 890.759 1396.68 907.159 1390.49 921.797C1384.3 936.434 1383.88 949.022 1389.25 958.841L1435.14 935.958C1430.87 928.168 1431.21 918.181 1436.12 906.568C1441.03 894.955 1450.43 881.943 1463.77 868.275C1477.11 854.608 1494.14 840.552 1513.89 826.911C1533.63 813.269 1555.7 800.309 1578.84 788.771C1601.98 777.232 1625.73 767.341 1648.74 759.662C1671.75 751.983 1693.56 746.667 1712.94 744.017C1732.32 741.367 1748.88 741.434 1761.67 744.216C1774.47 746.998 1783.25 752.44 1787.52 760.23L1833.41 737.347Z" fill="#863D83" fill-opacity="0.21"/>
<path fill-rule="evenodd" clip-rule="evenodd" d="M1535.64 995.367C1631.46 1028.01 1735.61 976.793 1768.25 880.969C1787.31 825.015 1777.78 766.225 1747.47 720.49C1736.25 713.863 1706.31 707.293 1676.26 734.031C1660.81 747.772 1653.34 763.637 1647.01 777.079C1637.95 796.332 1631.22 810.615 1606.77 806.572C1595 804.628 1583.34 801.912 1572.1 799.296C1543.67 792.676 1518.02 786.704 1500.69 795.549C1481.45 805.371 1474.55 817.271 1458.9 844.254C1454.88 851.171 1450.3 859.08 1444.78 868.199C1431.69 889.824 1430.9 899.562 1429.48 899.654C1429.02 899.684 1428.49 898.709 1427.47 896.804C1427.99 858.547 1446.29 780.707 1515.27 775.402C1543.06 773.264 1560.69 774.714 1573.41 775.761C1600.17 777.962 1605.26 778.382 1637.64 739.935C1675.85 694.548 1717.15 695.401 1733.03 701.501C1728.92 696.77 1724.55 692.237 1719.95 687.927C1696.86 683.153 1644.66 677.117 1620.51 691.159C1605.42 699.936 1602.81 707.594 1600.52 714.304C1598.24 721.014 1596.28 726.774 1582.48 731.756C1573.89 734.854 1563.17 736.256 1551.57 737.772C1525.89 741.129 1495.94 745.042 1475.63 769.182C1469.47 776.502 1463.96 782.722 1458.94 788.383C1439.94 809.818 1428.04 823.243 1415.03 858.065C1417.74 871.438 1421.92 884.432 1427.47 896.804C1447.56 941.615 1485.49 978.283 1535.64 995.367ZM1676.12 657.597C1686.37 662.659 1695.98 668.598 1704.89 675.287C1693.96 673.325 1662.63 671.257 1624.76 678.688C1604.45 682.673 1598.45 691.418 1592.15 700.595C1583.76 712.812 1574.84 725.795 1530.96 729.333C1469.48 734.291 1426.23 805.101 1412.29 839.887C1411.72 834.08 1411.41 828.224 1411.4 822.337C1420.32 789.375 1453.64 686.389 1503.98 694.405C1516.57 696.408 1531.32 687.46 1545.64 678.773C1563.95 667.665 1581.56 656.986 1593.02 670.171C1604.55 683.421 1619.43 676.24 1635.9 668.297C1648.63 662.153 1662.32 655.554 1676.12 657.597Z" fill="#863D83" fill-opacity="0.21"/>
<path d="M1676.12 657.597C1669 654.081 1661.57 650.987 1653.85 648.358C1592.01 627.291 1526.7 641.152 1479.39 679.39C1453.39 700.402 1432.82 728.774 1421.24 762.756C1414.52 782.496 1411.35 802.589 1411.4 822.337C1420.32 789.375 1453.64 686.389 1503.98 694.405C1516.57 696.408 1531.32 687.46 1545.64 678.773C1563.95 667.665 1581.56 656.986 1593.02 670.171C1604.55 683.421 1619.43 676.24 1635.9 668.297C1648.63 662.153 1662.32 655.554 1676.12 657.597Z" fill="#863D83" fill-opacity="0.21"/>
<path d="M1530.96 729.333C1469.48 734.291 1426.23 805.101 1412.29 839.887C1412.9 846.008 1413.82 852.075 1415.03 858.065C1428.04 823.243 1439.94 809.818 1458.94 788.383C1463.96 782.722 1469.47 776.502 1475.63 769.182C1495.94 745.042 1525.89 741.129 1551.57 737.772C1563.17 736.256 1573.89 734.854 1582.48 731.756C1596.28 726.774 1598.24 721.014 1600.52 714.304C1602.81 707.594 1605.42 699.936 1620.51 691.159C1644.66 677.117 1696.86 683.153 1719.95 687.927C1715.18 683.468 1710.16 679.246 1704.89 675.287C1693.96 673.325 1662.63 671.257 1624.76 678.688C1604.45 682.673 1598.45 691.418 1592.15 700.595C1583.76 712.812 1574.84 725.795 1530.96 729.333Z" fill="#863D83" fill-opacity="0.21"/>
<path d="M1515.27 775.402C1446.29 780.707 1427.99 858.547 1427.47 896.804C1428.49 898.709 1429.02 899.684 1429.48 899.654C1430.9 899.562 1431.69 889.824 1444.78 868.199C1450.3 859.08 1454.88 851.171 1458.9 844.254C1474.55 817.271 1481.45 805.371 1500.69 795.549C1518.02 786.704 1543.67 792.676 1572.1 799.296C1583.34 801.912 1595 804.628 1606.77 806.572C1631.22 810.615 1637.95 796.332 1647.01 777.079C1653.34 763.637 1660.81 747.772 1676.26 734.031C1706.31 707.293 1736.25 713.863 1747.47 720.49C1743.08 713.871 1738.26 707.525 1733.03 701.501C1717.15 695.401 1675.85 694.548 1637.64 739.935C1605.26 778.382 1600.17 777.962 1573.41 775.761C1560.69 774.714 1543.06 773.264 1515.27 775.402Z" fill="#863D83" fill-opacity="0.21"/>
<path d="M1417.17 852.421L1413.22 847.142L1413.83 851.584L1414.79 856.753L1417.17 852.421Z" fill="#863D83" fill-opacity="0.21"/>
<path fill-rule="evenodd" clip-rule="evenodd" d="M1448.52 892.94C1448.4 893.261 1448.28 893.56 1448.15 893.834C1448.49 894.049 1471.1 898.626 1471.3 898.696C1471.3 898.696 1449.04 893.455 1448.52 892.94Z" fill="#863D83" fill-opacity="0.21"/>
<path d="M1501.73 830.697C1454.12 842.557 1461.61 880.971 1471.3 898.696L1487.19 907.133C1487.19 907.133 1484.73 873.859 1497.1 859.377C1518.66 834.146 1552.73 861.823 1583.04 875.34C1631.89 897.126 1649.19 883.655 1664.96 854.233C1681.14 824.055 1679.95 794.032 1707.51 773.725C1720.5 764.156 1738.94 754.882 1744.76 755.856L1745.16 737.835C1729.53 740.178 1708.64 752.395 1688.81 767.352C1657.15 791.227 1662.14 830.246 1626.42 847.458C1582.16 868.787 1561.24 815.873 1501.73 830.697Z" fill="#863D83" fill-opacity="0.21"/>
<path d="M1487.19 907.133L1471.3 898.696C1472.42 906.945 1475.45 914.935 1483.61 927.397C1491.77 939.859 1472.56 955.401 1475.05 961.395C1477.05 966.19 1507.7 982.501 1522.78 990.057L1489.59 955.151C1488.72 953.243 1488.5 946.793 1494.51 936.254C1500.52 925.715 1487.19 907.133 1487.19 907.133Z" fill="#863D83" fill-opacity="0.21"/>
<path d="M1388.48 957.482C1395.39 970.176 1407.98 979.897 1425.54 986.09C1443.09 992.283 1465.27 994.826 1490.81 993.575C1516.35 992.324 1544.74 987.303 1574.37 978.798C1603.99 970.293 1634.28 958.472 1663.48 944.008C1692.69 929.545 1720.25 912.723 1744.59 894.502C1768.93 876.282 1789.58 857.02 1805.34 837.817C1821.11 818.613 1831.7 799.844 1836.49 782.581C1841.29 765.319 1840.2 749.9 1833.3 737.206L1787.34 759.963C1792.82 770.034 1791.34 774.404 1787.54 788.1C1783.73 801.795 1775.34 816.686 1762.83 831.922C1750.32 847.157 1733.94 862.439 1714.63 876.895C1695.32 891.35 1673.45 904.697 1650.28 916.172C1627.11 927.647 1603.08 937.026 1579.58 943.773C1556.07 950.521 1533.54 954.504 1513.28 955.497C1493.02 956.49 1475.43 954.472 1461.5 949.558C1447.57 944.645 1439.91 944.796 1434.43 934.724L1388.48 957.482Z" fill="#863D83" fill-opacity="0.21"/>
<path d="M1743.86 755.85L1744.79 738.014C1752.3 739.06 1762.33 747.565 1762.75 748.367C1763.12 749.079 1769.43 765.161 1769.07 765.345C1769.07 765.345 1750.83 757.013 1743.86 755.85Z" fill="#863D83" fill-opacity="0.21"/>
<path d="M1432.03 906.498C1426.88 896.755 1429.09 876.35 1430.75 867.636L1439.93 876.21C1439.93 876.21 1434.23 903.011 1435.61 912.862C1436.57 914.8 1437.19 916.241 1432.03 906.498Z" fill="#863D83" fill-opacity="0.21"/>
<path d="M1798.65 757.085C1793.97 748.541 1784.34 742.573 1770.31 739.522C1756.27 736.471 1738.11 736.397 1716.86 739.304C1695.61 742.21 1671.68 748.041 1646.45 756.462C1621.21 764.883 1595.17 775.731 1569.79 788.385C1544.42 801.039 1520.21 815.252 1498.56 830.213C1476.91 845.173 1458.23 860.588 1443.6 875.578C1428.96 890.567 1418.66 904.837 1413.27 917.573C1407.88 930.309 1407.52 941.261 1412.2 949.805L1452.12 929.895C1448.41 923.116 1448.7 914.427 1452.97 904.322C1457.25 894.218 1465.42 882.897 1477.03 871.004C1488.64 859.112 1503.46 846.883 1520.64 835.013C1537.82 823.144 1557.02 811.868 1577.15 801.828C1597.29 791.788 1617.95 783.182 1637.97 776.501C1657.99 769.82 1676.97 765.194 1693.84 762.888C1710.7 760.582 1725.1 760.641 1736.24 763.061C1747.37 765.482 1755.01 770.216 1758.73 776.995L1798.65 757.085Z" fill="#AF4DBA"/>
<g filter="url(#filter18_i_103_130)">
<path fill-rule="evenodd" clip-rule="evenodd" d="M1539.57 981.586C1622.94 1009.99 1713.56 965.425 1741.96 882.049C1758.55 833.364 1750.25 782.211 1723.88 742.418C1714.12 736.651 1688.06 730.935 1661.92 754.199C1648.48 766.155 1641.98 779.959 1636.47 791.655C1628.59 808.407 1622.73 820.835 1601.45 817.317C1591.22 815.625 1581.07 813.262 1571.3 810.986C1546.55 805.226 1524.24 800.03 1509.16 807.726C1492.42 816.272 1486.41 826.626 1472.79 850.103C1469.3 856.122 1465.31 863.004 1460.51 870.938C1449.12 889.754 1448.43 898.226 1447.2 898.307C1446.8 898.333 1446.34 897.485 1445.45 895.827C1445.91 862.54 1461.82 794.812 1521.84 790.196C1546.02 788.336 1561.36 789.598 1572.43 790.508C1595.71 792.424 1600.15 792.788 1628.31 759.336C1661.56 719.845 1697.5 720.587 1711.31 725.895C1707.74 721.779 1703.94 717.835 1699.93 714.084C1679.85 709.931 1634.43 704.678 1613.41 716.897C1600.28 724.533 1598.01 731.197 1596.02 737.035C1594.04 742.873 1592.33 747.885 1580.32 752.219C1572.85 754.915 1563.52 756.135 1553.43 757.454C1531.08 760.375 1505.03 763.78 1487.35 784.784C1481.99 791.153 1477.2 796.565 1472.83 801.491C1456.3 820.141 1445.94 831.822 1434.63 862.121C1436.98 873.757 1440.62 885.062 1445.45 895.827C1462.93 934.816 1495.93 966.721 1539.57 981.586ZM1661.8 687.694C1670.72 692.099 1679.08 697.266 1686.83 703.087C1677.32 701.379 1650.06 699.58 1617.11 706.046C1599.44 709.513 1594.22 717.122 1588.73 725.107C1581.43 735.737 1573.68 747.033 1535.5 750.112C1482.01 754.425 1444.37 816.037 1432.24 846.304C1431.74 841.251 1431.48 836.156 1431.47 831.034C1439.23 802.354 1468.22 712.746 1512.02 719.721C1522.97 721.464 1535.81 713.678 1548.27 706.119C1564.2 696.455 1579.52 687.163 1589.5 698.635C1599.52 710.163 1612.47 703.916 1626.8 697.004C1637.88 691.659 1649.79 685.917 1661.8 687.694Z" fill="#C456D1"/>
<path d="M1661.8 687.694C1655.6 684.635 1649.14 681.944 1642.42 679.656C1588.62 661.325 1531.79 673.386 1490.62 706.657C1468 724.939 1450.1 749.625 1440.03 779.193C1434.18 796.368 1431.42 813.851 1431.47 831.034C1439.23 802.354 1468.22 712.746 1512.02 719.721C1522.97 721.464 1535.81 713.678 1548.27 706.119C1564.2 696.455 1579.52 687.163 1589.5 698.635C1599.52 710.163 1612.47 703.916 1626.8 697.004C1637.88 691.659 1649.79 685.917 1661.8 687.694Z" fill="#AF4DBA"/>
<path d="M1535.5 750.112C1482.01 754.425 1444.37 816.037 1432.24 846.304C1432.77 851.63 1433.57 856.908 1434.63 862.121C1445.94 831.822 1456.3 820.141 1472.83 801.491C1477.2 796.565 1481.99 791.153 1487.35 784.784C1505.03 763.78 1531.08 760.375 1553.43 757.454C1563.52 756.135 1572.85 754.915 1580.32 752.219C1592.33 747.885 1594.04 742.873 1596.02 737.035C1598.01 731.197 1600.28 724.533 1613.41 716.897C1634.43 704.678 1679.85 709.931 1699.93 714.084C1695.79 710.205 1691.42 706.531 1686.83 703.087C1677.32 701.379 1650.06 699.58 1617.11 706.046C1599.44 709.513 1594.22 717.122 1588.73 725.107C1581.43 735.737 1573.68 747.033 1535.5 750.112Z" fill="#AF4DBA"/>
<path d="M1521.84 790.196C1461.82 794.812 1445.91 862.54 1445.45 895.827C1446.34 897.485 1446.8 898.333 1447.2 898.307C1448.43 898.226 1449.12 889.754 1460.51 870.938C1465.31 863.004 1469.3 856.122 1472.79 850.103C1486.41 826.626 1492.42 816.272 1509.16 807.726C1524.24 800.03 1546.55 805.226 1571.3 810.986C1581.07 813.262 1591.22 815.625 1601.45 817.317C1622.73 820.835 1628.59 808.407 1636.47 791.655C1641.98 779.959 1648.48 766.155 1661.92 754.199C1688.06 730.935 1714.12 736.651 1723.88 742.418C1720.06 736.658 1715.87 731.137 1711.31 725.895C1697.5 720.587 1661.56 719.845 1628.31 759.336C1600.15 792.788 1595.71 792.424 1572.43 790.508C1561.36 789.598 1546.02 788.336 1521.84 790.196Z" fill="#AF4DBA"/>
</g>
<path d="M1436.49 857.21L1433.05 852.617L1433.58 856.481L1434.42 860.979L1436.49 857.21Z" fill="#65176E"/>
<path fill-rule="evenodd" clip-rule="evenodd" d="M1463.77 892.465C1463.66 892.744 1463.56 893.004 1463.44 893.243C1463.74 893.43 1483.41 897.413 1483.59 897.473C1483.59 897.473 1464.22 892.913 1463.77 892.465Z" fill="url(#paint16_linear_103_130)"/>
<path d="M1510.06 838.308C1468.64 848.627 1475.15 882.051 1483.59 897.473L1497.41 904.814C1497.41 904.814 1495.27 875.862 1506.04 863.262C1524.79 841.309 1554.44 865.39 1580.81 877.151C1623.32 896.107 1638.37 884.386 1652.09 858.786C1666.16 832.528 1665.13 806.406 1689.11 788.737C1700.42 780.41 1716.46 772.341 1721.53 773.189L1721.87 757.509C1708.27 759.548 1690.1 770.178 1672.84 783.192C1645.29 803.965 1649.64 837.915 1618.56 852.891C1580.04 871.449 1561.84 825.41 1510.06 838.308Z" fill="#AF4DBA"/>
<path d="M1497.41 904.814L1483.59 897.473C1484.57 904.651 1487.2 911.603 1494.3 922.446C1501.4 933.289 1484.68 946.812 1486.85 952.027C1488.59 956.199 1515.26 970.391 1528.38 976.966L1499.5 946.594C1498.75 944.934 1498.55 939.322 1503.78 930.152C1509.01 920.982 1497.41 904.814 1497.41 904.814Z" fill="#65176F"/>
<path d="M1411.52 948.622C1417.53 959.667 1428.49 968.126 1443.77 973.514C1459.04 978.902 1478.34 981.116 1500.56 980.027C1522.78 978.938 1547.49 974.569 1573.26 967.17C1599.04 959.77 1625.39 949.484 1650.8 936.899C1676.22 924.315 1700.2 909.678 1721.37 893.824C1742.55 877.971 1760.52 861.211 1774.24 844.502C1787.96 827.794 1797.16 811.463 1801.34 796.443C1805.51 781.422 1804.57 768.007 1798.56 756.962L1758.57 776.762C1763.34 785.525 1762.05 789.327 1758.74 801.244C1755.43 813.161 1748.13 826.117 1737.24 839.373C1726.36 852.63 1712.11 865.926 1695.3 878.504C1678.5 891.082 1659.48 902.694 1639.31 912.679C1619.15 922.663 1598.25 930.824 1577.8 936.695C1557.34 942.565 1537.74 946.032 1520.12 946.895C1502.49 947.759 1487.18 946.003 1475.06 941.728C1462.94 937.453 1456.28 937.584 1451.51 928.821L1411.52 948.622Z" fill="#AF4DBA"/>
<path d="M1720.74 773.184L1721.55 757.665C1728.09 758.575 1736.81 765.975 1737.17 766.672C1737.5 767.292 1742.99 781.285 1742.67 781.445C1742.67 781.445 1726.8 774.196 1720.74 773.184Z" fill="#65176E"/>
<path d="M1449.42 904.262C1444.94 895.785 1446.86 878.03 1448.3 870.448L1456.29 877.908C1456.29 877.908 1451.33 901.227 1452.54 909.799C1453.37 911.485 1453.9 912.739 1449.42 904.262Z" fill="#65176E"/>
<path d="M262.036 370.462C296.066 349.147 321.255 350.196 329.596 353.385C332.246 357.457 339.419 372.883 356.975 394.597C367.662 407.814 318.326 470.726 277.702 492.364C295.629 459.158 314.947 447.664 299.779 444.821C285.178 442.084 222.35 516.28 189.39 534.318C218.944 504.103 284.454 450.627 252.472 442.291C220.49 433.956 206.255 470.357 203.135 489.6C196.619 479.278 192.795 453.727 229.627 434.108C266.46 414.489 269.191 397.319 265.952 391.186C253.706 385.77 229.155 400.215 218.41 408.115C209.658 414.925 197.492 423.989 218.852 405.76C240.211 387.531 256.541 374.632 262.036 370.462Z" fill="#E53636" fill-opacity="0.74"/>
<path d="M270.073 374.406C292.587 364.585 319.43 359.93 330.038 358.831L346.436 377.994C346.622 383.068 345.595 397.047 339.99 412.378C334.386 427.71 317.265 447.774 309.406 455.889C315.165 447.705 322.528 431.143 305.902 430.367C289.275 429.59 271.695 448.983 264.984 458.776C266.318 455.126 271.483 444.392 281.468 430.662C291.453 416.932 268.711 425.02 256.092 430.781C281.703 419.004 296.244 393.451 301.16 380.234C305.092 369.659 282.074 371.943 270.073 374.406Z" fill="#FDB916" fill-opacity="0.51"/>
<path d="M286.678 418.474C315.465 396.003 311.685 372.705 298.775 369.548C298.775 369.548 309.36 362.726 318.204 367.339C328.419 372.667 332.158 363.129 332.158 363.129C333.136 361.296 333.536 359.703 333.625 358.43C331.132 353.596 333.906 354.434 333.625 358.43C335.012 361.119 338.03 365.563 344.11 372.195C350.587 379.26 335.192 411.966 322.475 425.185C327.867 404.743 304.243 417.541 293.567 428.542C303.899 412.439 296.324 412.969 286.678 418.474Z" fill="#FFE600" fill-opacity="0.44"/>
<path d="M234.66 451.069C241.689 449.567 245.906 451.009 252.265 451.816C241.508 453.385 233.456 463.953 223.696 462.224C213.936 460.496 210.193 470.876 206.398 473.377C212.992 456.291 220.133 452.801 234.66 451.069Z" fill="#E53636" fill-opacity="0.74"/>
<path d="M288.065 502.108C281.618 505.288 277.177 504.923 270.814 505.7C280.857 501.542 286.074 489.322 295.959 488.606C305.845 487.889 306.929 476.908 309.995 473.552C307.792 491.734 301.724 496.868 288.065 502.108Z" fill="#E53636" fill-opacity="0.74"/>
<path d="M292.655 454.212C284.795 459.727 267.198 472.453 259.686 479.236C268.409 477.783 287.216 470.745 292.655 454.212Z" fill="#E53636" fill-opacity="0.74"/>
<path d="M221.318 430.388C229.259 424.991 247.044 412.528 254.656 405.858C245.912 407.18 227.003 413.938 221.318 430.388Z" fill="#E53636" fill-opacity="0.74"/>
<path d="M327.724 354.329C327.134 351.68 328.413 349.171 330.532 347.475L346.845 334.42C351.305 330.851 357.844 331.736 361.194 336.363L386.266 370.993C389.735 375.784 388.309 382.524 383.196 385.5L362.379 397.616C361.579 398.082 360.703 398.437 359.788 398.294C356.94 397.847 349.76 394.863 338.817 377.881C331.365 366.315 328.681 358.623 327.724 354.329Z" fill="#898989"/>
<path d="M419.438 433.748C454.934 409.186 461.77 377.495 460.751 364.72L424.262 379.429C423.125 411.638 343.572 459.319 351.171 462.686C358.769 466.054 383.941 458.309 419.438 433.748Z" fill="#6DA0DD"/>
<path d="M419.438 433.748C454.934 409.186 461.77 377.495 460.751 364.72L424.262 379.429C423.125 411.638 343.572 459.319 351.171 462.686C358.769 466.054 383.941 458.309 419.438 433.748Z" fill="#436D9F"/>
<path d="M297.894 298.852C328.328 268.24 363.072 268.263 375.468 271.518L352.213 303.677C320.308 299.12 259.352 369.023 257.376 360.95C255.401 352.876 267.46 329.464 297.894 298.852Z" fill="#6DA0DD"/>
<path d="M297.894 298.852C328.328 268.24 363.072 268.263 375.468 271.518L352.213 303.677C320.308 299.12 259.352 369.023 257.376 360.95C255.401 352.876 267.46 329.464 297.894 298.852Z" fill="#6DA0DD"/>
<path d="M438.48 224.159C372 259.377 341.219 314.012 334.139 336.928C334.139 336.928 334.72 353.494 348.866 372.184C440.332 305.698 581.958 198.778 581.958 198.778C559.613 190.802 504.96 188.942 438.48 224.159Z" fill="#EEEFEF"/>
<path d="M581.958 198.778C581.958 198.778 440.332 305.698 348.866 372.184C361.115 388.37 369.014 395.935 369.014 395.935C392.521 396.22 452.91 383.4 506.408 329.847C559.905 276.294 582.389 222.968 581.958 198.778Z" fill="#B9B9B9"/>
<circle cx="497.587" cy="264.78" r="24.4949" transform="rotate(5.0758 497.587 264.78)" fill="#8A8A8A"/>
<circle cx="497.587" cy="264.78" r="24.4949" transform="rotate(5.0758 497.587 264.78)" fill="#8A8A8A"/>
<circle cx="497.587" cy="264.78" r="24.4949" transform="rotate(5.0758 497.587 264.78)" fill="#8A8A8A"/>
<circle cx="497.587" cy="264.78" r="21.7393" transform="rotate(5.0758 497.587 264.78)" fill="#3E3E3E"/>
<circle cx="497.587" cy="264.78" r="21.7393" transform="rotate(5.0758 497.587 264.78)" fill="#3E3E3E"/>
<circle cx="497.587" cy="264.78" r="21.7393" transform="rotate(5.0758 497.587 264.78)" fill="#3E3E3E"/>
<circle cx="497.587" cy="264.78" r="21.7393" transform="rotate(5.0758 497.587 264.78)" fill="#3E3E3E"/>
<circle cx="497.753" cy="264.641" r="17.9119" transform="rotate(5.0758 497.753 264.641)" fill="#71C3FA"/>
<path d="M494.675 250.842C490.101 250.436 478.655 260.485 486.653 272.877C489.284 276.953 499.25 251.249 494.675 250.842Z" fill="#D4E7EB"/>
<path fill-rule="evenodd" clip-rule="evenodd" d="M582.516 199.14C575.358 196.489 555.712 191.923 534.388 194.866L555.087 219.67L582.516 199.14Z" fill="#E63636"/>
<path d="M571.873 239.786C576.069 230.448 584.071 209.246 582.516 199.14L555.087 219.67L571.873 239.786Z" fill="#B32626"/>
<path d="M429.737 313.233C437.31 320.312 308.092 414.292 302.414 410.369C293.739 402.432 422.163 306.153 429.737 313.233Z" fill="#6DA0DD"/>
<path d="M312.049 394.79C326.42 391.039 343.256 394.664 356.867 400.622C340.538 397.584 325.634 395.68 312.049 394.79C284.205 402.058 265.615 437.014 297.665 536.328C358.405 724.543 521.925 806.422 383.593 966.37C401.164 945.48 425.527 885.324 382.405 811.83C328.502 719.962 199.982 715.282 211.217 588.787C175.392 515.952 151.123 384.247 312.049 394.79Z" fill="#EC864D" fill-opacity="0.08"/>
<path d="M197.116 525.472C288.997 463.898 342.799 451.541 369.414 404.079C379.034 442.216 304.208 517.6 238.03 546.907C158.402 582.172 329.506 659.913 275.076 774.393C280.122 717.589 138.799 564.554 197.116 525.472Z" fill="#EC2020" fill-opacity="0.11"/>
<path d="M132.5 1076.5H110" stroke="black"/>
<circle cx="72" cy="265" r="3" fill="#D9D9D9"/>
<circle cx="710" cy="239" r="3" fill="#D9D9D9"/>
<circle cx="1348" cy="213" r="3" fill="#D9D9D9"/>
<circle cx="1194" cy="1025" r="3" fill="#D9D9D9"/>
<circle cx="565" cy="841" r="3" fill="#D9D9D9"/>
<circle cx="53" cy="1031" r="3" fill="#D9D9D9"/>
<circle cx="346" cy="432" r="3" fill="#D9D9D9"/>
<circle cx="18" cy="252" r="3" fill="#D9D9D9"/>
<circle cx="1316" cy="226" r="3" fill="#D9D9D9"/>
<circle cx="1859" cy="501" r="3" fill="#D9D9D9"/>
<circle cx="1859" cy="537" r="3" fill="#D9D9D9"/>
<circle cx="1530" cy="605" r="3" fill="#D9D9D9"/>
<circle cx="1558" cy="620" r="3" fill="#D9D9D9"/>
<circle cx="1215" cy="1004" r="3" fill="#D9D9D9"/>
<circle cx="1167" cy="442" r="3" fill="#D9D9D9"/>
<circle cx="1188" cy="426" r="3" fill="#D9D9D9"/>
<ellipse cx="952" cy="418.5" rx="8" ry="7.5" fill="#D9D9D9"/>
<ellipse cx="89" cy="110.5" rx="8" ry="7.5" fill="#D9D9D9"/>
<ellipse cx="77" cy="1014.5" rx="8" ry="7.5" fill="#D9D9D9"/>
</g>
<defs>
<filter id="filter0_i_103_130" x="1297" y="198.297" width="53.2119" height="53.212" filterUnits="userSpaceOnUse" color-interpolation-filters="sRGB">
<feFlood flood-opacity="0" result="BackgroundImageFix"/>
<feBlend mode="normal" in="SourceGraphic" in2="BackgroundImageFix" result="shape"/>
<feColorMatrix in="SourceAlpha" type="matrix" values="0 0 0 0 0 0 0 0 0 0 0 0 0 0 0 0 0 0 127 0" result="hardAlpha"/>
<feOffset dx="19" dy="-11"/>
<feComposite in2="hardAlpha" operator="arithmetic" k2="-1" k3="1"/>
<feColorMatrix type="matrix" values="0 0 0 0 0.199062 0 0 0 0 0.257014 0 0 0 0 0.408333 0 0 0 1 0"/>
<feBlend mode="normal" in2="shape" result="effect1_innerShadow_103_130"/>
</filter>
<filter id="filter1_i_103_130" x="607.733" y="942.735" width="53.2197" height="53.2195" filterUnits="userSpaceOnUse" color-interpolation-filters="sRGB">
<feFlood flood-opacity="0" result="BackgroundImageFix"/>
<feBlend mode="normal" in="SourceGraphic" in2="BackgroundImageFix" result="shape"/>
<feColorMatrix in="SourceAlpha" type="matrix" values="0 0 0 0 0 0 0 0 0 0 0 0 0 0 0 0 0 0 127 0" result="hardAlpha"/>
<feOffset dx="19" dy="-11"/>
<feComposite in2="hardAlpha" operator="arithmetic" k2="-1" k3="1"/>
<feColorMatrix type="matrix" values="0 0 0 0 0.199062 0 0 0 0 0.257014 0 0 0 0 0.408333 0 0 0 1 0"/>
<feBlend mode="normal" in2="shape" result="effect1_innerShadow_103_130"/>
</filter>
<filter id="filter2_i_103_130" x="365.151" y="163.376" width="53.2256" height="53.2255" filterUnits="userSpaceOnUse" color-interpolation-filters="sRGB">
<feFlood flood-opacity="0" result="BackgroundImageFix"/>
<feBlend mode="normal" in="SourceGraphic" in2="BackgroundImageFix" result="shape"/>
<feColorMatrix in="SourceAlpha" type="matrix" values="0 0 0 0 0 0 0 0 0 0 0 0 0 0 0 0 0 0 127 0" result="hardAlpha"/>
<feOffset dx="19" dy="-11"/>
<feComposite in2="hardAlpha" operator="arithmetic" k2="-1" k3="1"/>
<feColorMatrix type="matrix" values="0 0 0 0 0.199062 0 0 0 0 0.257014 0 0 0 0 0.408333 0 0 0 1 0"/>
<feBlend mode="normal" in2="shape" result="effect1_innerShadow_103_130"/>
</filter>
<filter id="filter3_i_103_130" x="1825" y="725.297" width="53.2119" height="53.212" filterUnits="userSpaceOnUse" color-interpolation-filters="sRGB">
<feFlood flood-opacity="0" result="BackgroundImageFix"/>
<feBlend mode="normal" in="SourceGraphic" in2="BackgroundImageFix" result="shape"/>
<feColorMatrix in="SourceAlpha" type="matrix" values="0 0 0 0 0 0 0 0 0 0 0 0 0 0 0 0 0 0 127 0" result="hardAlpha"/>
<feOffset dx="19" dy="-11"/>
<feComposite in2="hardAlpha" operator="arithmetic" k2="-1" k3="1"/>
<feColorMatrix type="matrix" values="0 0 0 0 0.199062 0 0 0 0 0.257014 0 0 0 0 0.408333 0 0 0 1 0"/>
<feBlend mode="normal" in2="shape" result="effect1_innerShadow_103_130"/>
</filter>
<filter id="filter4_f_103_130" x="124" y="612" width="476" height="476" filterUnits="userSpaceOnUse" color-interpolation-filters="sRGB">
<feFlood flood-opacity="0" result="BackgroundImageFix"/>
<feBlend mode="normal" in="SourceGraphic" in2="BackgroundImageFix" result="shape"/>
<feGaussianBlur stdDeviation="1" result="effect1_foregroundBlur_103_130"/>
</filter>
<filter id="filter5_f_103_130" x="159" y="643" width="414" height="414" filterUnits="userSpaceOnUse" color-interpolation-filters="sRGB">
<feFlood flood-opacity="0" result="BackgroundImageFix"/>
<feBlend mode="normal" in="SourceGraphic" in2="BackgroundImageFix" result="shape"/>
<feGaussianBlur stdDeviation="1" result="effect1_foregroundBlur_103_130"/>
</filter>
<filter id="filter6_f_103_130" x="183" y="667" width="366" height="366" filterUnits="userSpaceOnUse" color-interpolation-filters="sRGB">
<feFlood flood-opacity="0" result="BackgroundImageFix"/>
<feBlend mode="normal" in="SourceGraphic" in2="BackgroundImageFix" result="shape"/>
<feGaussianBlur stdDeviation="1" result="effect1_foregroundBlur_103_130"/>
</filter>
<filter id="filter7_d_103_130" x="206" y="690" width="326.2" height="325.2" filterUnits="userSpaceOnUse" color-interpolation-filters="sRGB">
<feFlood flood-opacity="0" result="BackgroundImageFix"/>
<feColorMatrix in="SourceAlpha" type="matrix" values="0 0 0 0 0 0 0 0 0 0 0 0 0 0 0 0 0 0 127 0" result="hardAlpha"/>
<feOffset dx="4" dy="3"/>
<feGaussianBlur stdDeviation="1.1"/>
<feComposite in2="hardAlpha" operator="out"/>
<feColorMatrix type="matrix" values="0 0 0 0 0.831373 0 0 0 0 0.905882 0 0 0 0 0.921569 0 0 0 1 0"/>
<feBlend mode="normal" in2="BackgroundImageFix" result="effect1_dropShadow_103_130"/>
<feBlend mode="normal" in="SourceGraphic" in2="effect1_dropShadow_103_130" result="shape"/>
</filter>
<filter id="filter8_i_103_130" x="206" y="690" width="320" height="320" filterUnits="userSpaceOnUse" color-interpolation-filters="sRGB">
<feFlood flood-opacity="0" result="BackgroundImageFix"/>
<feBlend mode="normal" in="SourceGraphic" in2="BackgroundImageFix" result="shape"/>
<feColorMatrix in="SourceAlpha" type="matrix" values="0 0 0 0 0 0 0 0 0 0 0 0 0 0 0 0 0 0 127 0" result="hardAlpha"/>
<feOffset dx="78" dy="-51"/>
<feComposite in2="hardAlpha" operator="arithmetic" k2="-1" k3="1"/>
<feColorMatrix type="matrix" values="0 0 0 0 0.486275 0 0 0 0 0.682353 0 0 0 0 0.913725 0 0 0 1 0"/>
<feBlend mode="normal" in2="shape" result="effect1_innerShadow_103_130"/>
</filter>
<filter id="filter9_di_103_130" x="441.497" y="789.164" width="65.0093" height="63.0092" filterUnits="userSpaceOnUse" color-interpolation-filters="sRGB">
<feFlood flood-opacity="0" result="BackgroundImageFix"/>
<feColorMatrix in="SourceAlpha" type="matrix" values="0 0 0 0 0 0 0 0 0 0 0 0 0 0 0 0 0 0 127 0" result="hardAlpha"/>
<feOffset dx="3" dy="1"/>
<feComposite in2="hardAlpha" operator="out"/>
<feColorMatrix type="matrix" values="0 0 0 0 0.831373 0 0 0 0 0.905882 0 0 0 0 0.921569 0 0 0 1 0"/>
<feBlend mode="normal" in2="BackgroundImageFix" result="effect1_dropShadow_103_130"/>
<feBlend mode="normal" in="SourceGraphic" in2="effect1_dropShadow_103_130" result="shape"/>
<feColorMatrix in="SourceAlpha" type="matrix" values="0 0 0 0 0 0 0 0 0 0 0 0 0 0 0 0 0 0 127 0" result="hardAlpha"/>
<feOffset dx="23" dy="3"/>
<feComposite in2="hardAlpha" operator="arithmetic" k2="-1" k3="1"/>
<feColorMatrix type="matrix" values="0 0 0 0 0.486275 0 0 0 0 0.682353 0 0 0 0 0.913725 0 0 0 1 0"/>
<feBlend mode="normal" in2="shape" result="effect2_innerShadow_103_130"/>
</filter>
<filter id="filter10_di_103_130" x="365.295" y="721.577" width="54.0125" height="52.0124" filterUnits="userSpaceOnUse" color-interpolation-filters="sRGB">
<feFlood flood-opacity="0" result="BackgroundImageFix"/>
<feColorMatrix in="SourceAlpha" type="matrix" values="0 0 0 0 0 0 0 0 0 0 0 0 0 0 0 0 0 0 127 0" result="hardAlpha"/>
<feOffset dx="3" dy="1"/>
<feComposite in2="hardAlpha" operator="out"/>
<feColorMatrix type="matrix" values="0 0 0 0 0.831373 0 0 0 0 0.905882 0 0 0 0 0.921569 0 0 0 1 0"/>
<feBlend mode="normal" in2="BackgroundImageFix" result="effect1_dropShadow_103_130"/>
<feBlend mode="normal" in="SourceGraphic" in2="effect1_dropShadow_103_130" result="shape"/>
<feColorMatrix in="SourceAlpha" type="matrix" values="0 0 0 0 0 0 0 0 0 0 0 0 0 0 0 0 0 0 127 0" result="hardAlpha"/>
<feOffset dx="23" dy="3"/>
<feComposite in2="hardAlpha" operator="arithmetic" k2="-1" k3="1"/>
<feColorMatrix type="matrix" values="0 0 0 0 0.486275 0 0 0 0 0.682353 0 0 0 0 0.913725 0 0 0 1 0"/>
<feBlend mode="normal" in2="shape" result="effect2_innerShadow_103_130"/>
</filter>
<filter id="filter11_di_103_130" x="296.3" y="890.588" width="59.0015" height="57.0014" filterUnits="userSpaceOnUse" color-interpolation-filters="sRGB">
<feFlood flood-opacity="0" result="BackgroundImageFix"/>
<feColorMatrix in="SourceAlpha" type="matrix" values="0 0 0 0 0 0 0 0 0 0 0 0 0 0 0 0 0 0 127 0" result="hardAlpha"/>
<feOffset dx="3" dy="1"/>
<feComposite in2="hardAlpha" operator="out"/>
<feColorMatrix type="matrix" values="0 0 0 0 0.427451 0 0 0 0 0.627451 0 0 0 0 0.866667 0 0 0 1 0"/>
<feBlend mode="normal" in2="BackgroundImageFix" result="effect1_dropShadow_103_130"/>
<feBlend mode="normal" in="SourceGraphic" in2="effect1_dropShadow_103_130" result="shape"/>
<feColorMatrix in="SourceAlpha" type="matrix" values="0 0 0 0 0 0 0 0 0 0 0 0 0 0 0 0 0 0 127 0" result="hardAlpha"/>
<feOffset dx="23" dy="3"/>
<feComposite in2="hardAlpha" operator="arithmetic" k2="-1" k3="1"/>
<feColorMatrix type="matrix" values="0 0 0 0 0.486275 0 0 0 0 0.682353 0 0 0 0 0.913725 0 0 0 1 0"/>
<feBlend mode="normal" in2="shape" result="effect2_innerShadow_103_130"/>
</filter>
<filter id="filter12_di_103_130" x="276.402" y="730.956" width="50.7385" height="48.7386" filterUnits="userSpaceOnUse" color-interpolation-filters="sRGB">
<feFlood flood-opacity="0" result="BackgroundImageFix"/>
<feColorMatrix in="SourceAlpha" type="matrix" values="0 0 0 0 0 0 0 0 0 0 0 0 0 0 0 0 0 0 127 0" result="hardAlpha"/>
<feOffset dx="3" dy="1"/>
<feComposite in2="hardAlpha" operator="out"/>
<feColorMatrix type="matrix" values="0 0 0 0 0.427451 0 0 0 0 0.627451 0 0 0 0 0.866667 0 0 0 1 0"/>
<feBlend mode="normal" in2="BackgroundImageFix" result="effect1_dropShadow_103_130"/>
<feBlend mode="normal" in="SourceGraphic" in2="effect1_dropShadow_103_130" result="shape"/>
<feColorMatrix in="SourceAlpha" type="matrix" values="0 0 0 0 0 0 0 0 0 0 0 0 0 0 0 0 0 0 127 0" result="hardAlpha"/>
<feOffset dx="23" dy="3"/>
<feComposite in2="hardAlpha" operator="arithmetic" k2="-1" k3="1"/>
<feColorMatrix type="matrix" values="0 0 0 0 0.427451 0 0 0 0 0.627451 0 0 0 0 0.866667 0 0 0 1 0"/>
<feBlend mode="normal" in2="shape" result="effect2_innerShadow_103_130"/>
</filter>
<filter id="filter13_di_103_130" x="227.094" y="825.803" width="52.4282" height="50.4282" filterUnits="userSpaceOnUse" color-interpolation-filters="sRGB">
<feFlood flood-opacity="0" result="BackgroundImageFix"/>
<feColorMatrix in="SourceAlpha" type="matrix" values="0 0 0 0 0 0 0 0 0 0 0 0 0 0 0 0 0 0 127 0" result="hardAlpha"/>
<feOffset dx="3" dy="1"/>
<feComposite in2="hardAlpha" operator="out"/>
<feColorMatrix type="matrix" values="0 0 0 0 0.368056 0 0 0 0 0.581486 0 0 0 0 0.833333 0 0 0 1 0"/>
<feBlend mode="normal" in2="BackgroundImageFix" result="effect1_dropShadow_103_130"/>
<feBlend mode="normal" in="SourceGraphic" in2="effect1_dropShadow_103_130" result="shape"/>
<feColorMatrix in="SourceAlpha" type="matrix" values="0 0 0 0 0 0 0 0 0 0 0 0 0 0 0 0 0 0 127 0" result="hardAlpha"/>
<feOffset dx="23" dy="3"/>
<feComposite in2="hardAlpha" operator="arithmetic" k2="-1" k3="1"/>
<feColorMatrix type="matrix" values="0 0 0 0 0.427451 0 0 0 0 0.627451 0 0 0 0 0.866667 0 0 0 1 0"/>
<feBlend mode="normal" in2="shape" result="effect2_innerShadow_103_130"/>
</filter>
<filter id="filter14_di_103_130" x="465.769" y="902.013" width="36.7649" height="34.7651" filterUnits="userSpaceOnUse" color-interpolation-filters="sRGB">
<feFlood flood-opacity="0" result="BackgroundImageFix"/>
<feColorMatrix in="SourceAlpha" type="matrix" values="0 0 0 0 0 0 0 0 0 0 0 0 0 0 0 0 0 0 127 0" result="hardAlpha"/>
<feOffset dx="3" dy="1"/>
<feComposite in2="hardAlpha" operator="out"/>
<feColorMatrix type="matrix" values="0 0 0 0 0.831373 0 0 0 0 0.905882 0 0 0 0 0.921569 0 0 0 1 0"/>
<feBlend mode="normal" in2="BackgroundImageFix" result="effect1_dropShadow_103_130"/>
<feBlend mode="normal" in="SourceGraphic" in2="effect1_dropShadow_103_130" result="shape"/>
<feColorMatrix in="SourceAlpha" type="matrix" values="0 0 0 0 0 0 0 0 0 0 0 0 0 0 0 0 0 0 127 0" result="hardAlpha"/>
<feOffset dx="13" dy="3"/>
<feComposite in2="hardAlpha" operator="arithmetic" k2="-1" k3="1"/>
<feColorMatrix type="matrix" values="0 0 0 0 0.486275 0 0 0 0 0.682353 0 0 0 0 0.913725 0 0 0 1 0"/>
<feBlend mode="normal" in2="shape" result="effect2_innerShadow_103_130"/>
</filter>
<filter id="filter15_di_103_130" x="324.59" y="810.812" width="36.7649" height="34.7651" filterUnits="userSpaceOnUse" color-interpolation-filters="sRGB">
<feFlood flood-opacity="0" result="BackgroundImageFix"/>
<feColorMatrix in="SourceAlpha" type="matrix" values="0 0 0 0 0 0 0 0 0 0 0 0 0 0 0 0 0 0 127 0" result="hardAlpha"/>
<feOffset dx="3" dy="1"/>
<feComposite in2="hardAlpha" operator="out"/>
<feColorMatrix type="matrix" values="0 0 0 0 0.831373 0 0 0 0 0.905882 0 0 0 0 0.921569 0 0 0 1 0"/>
<feBlend mode="normal" in2="BackgroundImageFix" result="effect1_dropShadow_103_130"/>
<feBlend mode="normal" in="SourceGraphic" in2="effect1_dropShadow_103_130" result="shape"/>
<feColorMatrix in="SourceAlpha" type="matrix" values="0 0 0 0 0 0 0 0 0 0 0 0 0 0 0 0 0 0 127 0" result="hardAlpha"/>
<feOffset dx="13" dy="3"/>
<feComposite in2="hardAlpha" operator="arithmetic" k2="-1" k3="1"/>
<feColorMatrix type="matrix" values="0 0 0 0 0.486275 0 0 0 0 0.682353 0 0 0 0 0.913725 0 0 0 1 0"/>
<feBlend mode="normal" in2="shape" result="effect2_innerShadow_103_130"/>
</filter>
<filter id="filter16_di_103_130" x="377.256" y="867.611" width="51.0071" height="49.0071" filterUnits="userSpaceOnUse" color-interpolation-filters="sRGB">
<feFlood flood-opacity="0" result="BackgroundImageFix"/>
<feColorMatrix in="SourceAlpha" type="matrix" values="0 0 0 0 0 0 0 0 0 0 0 0 0 0 0 0 0 0 127 0" result="hardAlpha"/>
<feOffset dx="3" dy="1"/>
<feComposite in2="hardAlpha" operator="out"/>
<feColorMatrix type="matrix" values="0 0 0 0 0.831373 0 0 0 0 0.905882 0 0 0 0 0.921569 0 0 0 1 0"/>
<feBlend mode="normal" in2="BackgroundImageFix" result="effect1_dropShadow_103_130"/>
<feBlend mode="normal" in="SourceGraphic" in2="effect1_dropShadow_103_130" result="shape"/>
<feColorMatrix in="SourceAlpha" type="matrix" values="0 0 0 0 0 0 0 0 0 0 0 0 0 0 0 0 0 0 127 0" result="hardAlpha"/>
<feOffset dx="14" dy="3"/>
<feComposite in2="hardAlpha" operator="arithmetic" k2="-1" k3="1"/>
<feColorMatrix type="matrix" values="0 0 0 0 0.486275 0 0 0 0 0.682353 0 0 0 0 0.913725 0 0 0 1 0"/>
<feBlend mode="normal" in2="shape" result="effect2_innerShadow_103_130"/>
</filter>
<filter id="filter17_di_103_130" x="369.982" y="952.429" width="51" height="49.0001" filterUnits="userSpaceOnUse" color-interpolation-filters="sRGB">
<feFlood flood-opacity="0" result="BackgroundImageFix"/>
<feColorMatrix in="SourceAlpha" type="matrix" values="0 0 0 0 0 0 0 0 0 0 0 0 0 0 0 0 0 0 127 0" result="hardAlpha"/>
<feOffset dx="3" dy="1"/>
<feComposite in2="hardAlpha" operator="out"/>
<feColorMatrix type="matrix" values="0 0 0 0 0.427451 0 0 0 0 0.627451 0 0 0 0 0.866667 0 0 0 1 0"/>
<feBlend mode="normal" in2="BackgroundImageFix" result="effect1_dropShadow_103_130"/>
<feBlend mode="normal" in="SourceGraphic" in2="effect1_dropShadow_103_130" result="shape"/>
<feColorMatrix in="SourceAlpha" type="matrix" values="0 0 0 0 0 0 0 0 0 0 0 0 0 0 0 0 0 0 127 0" result="hardAlpha"/>
<feOffset dx="14" dy="3"/>
<feComposite in2="hardAlpha" operator="arithmetic" k2="-1" k3="1"/>
<feColorMatrix type="matrix" values="0 0 0 0 0.486275 0 0 0 0 0.682353 0 0 0 0 0.913725 0 0 0 1 0"/>
<feBlend mode="normal" in2="shape" result="effect2_innerShadow_103_130"/>
</filter>
<filter id="filter18_i_103_130" x="1431.47" y="671.093" width="319.056" height="319.056" filterUnits="userSpaceOnUse" color-interpolation-filters="sRGB">
<feFlood flood-opacity="0" result="BackgroundImageFix"/>
<feBlend mode="normal" in="SourceGraphic" in2="BackgroundImageFix" result="shape"/>
<feColorMatrix in="SourceAlpha" type="matrix" values="0 0 0 0 0 0 0 0 0 0 0 0 0 0 0 0 0 0 127 0" result="hardAlpha"/>
<feOffset dx="-29" dy="-72"/>
<feComposite in2="hardAlpha" operator="arithmetic" k2="-1" k3="1"/>
<feColorMatrix type="matrix" values="0 0 0 0 0.480924 0 0 0 0 0.143229 0 0 0 0 0.520833 0 0 0 1 0"/>
<feBlend mode="normal" in2="shape" result="effect1_innerShadow_103_130"/>
</filter>
<linearGradient id="paint0_linear_103_130" x1="2785.5" y1="1503.3" x2="-141.5" y2="-163.696" gradientUnits="userSpaceOnUse">
<stop offset="0.0376415" stop-color="#37215F"/>
<stop offset="1" stop-color="#1C1032"/>
</linearGradient>
<linearGradient id="paint1_linear_103_130" x1="1341.78" y1="196.993" x2="1451.44" y2="51.6335" gradientUnits="userSpaceOnUse">
<stop stop-color="#9FC7F8"/>
<stop offset="1" stop-color="#1C1032"/>
</linearGradient>
<linearGradient id="paint2_linear_103_130" x1="656.547" y1="944.524" x2="787.05" y2="817.537" gradientUnits="userSpaceOnUse">
<stop stop-color="#9FC7F8"/>
<stop offset="1" stop-color="#1C1032"/>
</linearGradient>
<linearGradient id="paint3_linear_103_130" x1="416.749" y1="167.97" x2="561.364" y2="57.3216" gradientUnits="userSpaceOnUse">
<stop stop-color="#9FC7F8"/>
<stop offset="1" stop-color="#1C1032"/>
</linearGradient>
<linearGradient id="paint4_linear_103_130" x1="1869.78" y1="723.993" x2="1979.44" y2="578.633" gradientUnits="userSpaceOnUse">
<stop stop-color="#9FC7F8"/>
<stop offset="1" stop-color="#1C1032"/>
</linearGradient>
<linearGradient id="paint5_linear_103_130" x1="1034.84" y1="95.2381" x2="1676.71" y2="677.81" gradientUnits="userSpaceOnUse">
<stop stop-color="#FFCB31"/>
<stop offset="1" stop-color="#FDB916"/>
</linearGradient>
<linearGradient id="paint6_linear_103_130" x1="1802.39" y1="-1168.44" x2="1802.39" y2="660.425" gradientUnits="userSpaceOnUse">
<stop stop-color="#FCDF47"/>
<stop offset="1" stop-color="#FDB916"/>
</linearGradient>
<linearGradient id="paint7_linear_103_130" x1="1449.5" y1="67.2749" x2="1722.44" y2="178.835" gradientUnits="userSpaceOnUse">
<stop offset="0.0818075" stop-color="#FDB916"/>
<stop offset="0.555" stop-color="#FF9416"/>
<stop offset="1" stop-color="#FF8712"/>
</linearGradient>
<linearGradient id="paint8_linear_103_130" x1="1695.5" y1="-1" x2="1695.5" y2="669" gradientUnits="userSpaceOnUse">
<stop stop-color="#FDB916"/>
<stop offset="1" stop-color="#FF8712"/>
</linearGradient>
<linearGradient id="paint9_linear_103_130" x1="1695.5" y1="-1" x2="1695.5" y2="669" gradientUnits="userSpaceOnUse">
<stop stop-color="#FDB916"/>
<stop offset="1" stop-color="#FF8712" stop-opacity="0.07"/>
</linearGradient>
<linearGradient id="paint10_linear_103_130" x1="1695.5" y1="-1" x2="1695.5" y2="669" gradientUnits="userSpaceOnUse">
<stop stop-color="#FDB916"/>
<stop offset="1" stop-color="#FF8712" stop-opacity="0.09"/>
</linearGradient>
<linearGradient id="paint11_linear_103_130" x1="1695.5" y1="-1" x2="1695.5" y2="668.936" gradientUnits="userSpaceOnUse">
<stop stop-color="#FDB916"/>
<stop offset="0.5" stop-color="#FF8712" stop-opacity="0.3"/>
</linearGradient>
<linearGradient id="paint12_linear_103_130" x1="1695.5" y1="-1" x2="1695.5" y2="669" gradientUnits="userSpaceOnUse">
<stop stop-color="#FFA115"/>
<stop offset="1" stop-color="#FF8712"/>
</linearGradient>
<linearGradient id="paint13_linear_103_130" x1="1931.49" y1="10.6992" x2="1931.49" y2="257.126" gradientUnits="userSpaceOnUse">
<stop stop-color="#FFA012"/>
<stop offset="1" stop-color="#FF8712"/>
</linearGradient>
<linearGradient id="paint14_linear_103_130" x1="1931.49" y1="10.6992" x2="1931.49" y2="257.126" gradientUnits="userSpaceOnUse">
<stop stop-color="#FFA012"/>
<stop offset="1" stop-color="#FF8712"/>
</linearGradient>
<linearGradient id="paint15_linear_103_130" x1="1624.04" y1="7.03874" x2="1852.65" y2="615.65" gradientUnits="userSpaceOnUse">
<stop stop-color="#FFE926" stop-opacity="0.3"/>
<stop offset="1" stop-color="#FF8712"/>
</linearGradient>
<linearGradient id="paint16_linear_103_130" x1="1458.06" y1="848.762" x2="1443.58" y2="869.629" gradientUnits="userSpaceOnUse">
<stop stop-color="#C457D0"/>
<stop offset="0.495" stop-color="#A03EAB"/>
<stop offset="1" stop-color="#7B2585"/>
</linearGradient>
<clipPath id="clip0_103_130">
<rect width="1920" height="1080" fill="white"/>
</clipPath>
</defs>
</svg>
