<svg width="1136" height="601" viewBox="0 0 1136 601" fill="none" xmlns="http://www.w3.org/2000/svg">
<rect width="1136" height="601" fill="#2E1C51"/>
<path d="M955.377 109C871.968 62.5937 993.71 -69.5 1047.88 -90L1198.38 -25C1148.21 -17.6667 1047.88 17.3 1047.88 98.5C1047.88 200 1252.88 174.5 1198.38 330.5C1154.78 455.3 1071.81 566.237 1018.2 450.5C986.7 382.5 1143.2 213.5 955.377 109Z" fill="#1C1032"/>
<path d="M-17.2045 154.433C-82.0522 206.923 -31.6562 65.6186 -6.79626 16.7226L103.893 -88.8716C76.8928 -46.4778 29.8189 43.3468 57.5276 63.4948C92.1636 88.6799 175.683 -76.5158 196.865 6.27125C203.064 30.4997 111.7 173.519 76.3427 182.029C64.1806 184.956 173.753 -0.131967 -17.2045 154.433Z" fill="#1C1032"/>
<path d="M-45.374 577.363C-138.043 554.491 -130.659 437.042 -115.384 381.177L25.6963 297.681C2.12442 342.568 -28.6009 444.28 37.0727 492.034C119.165 551.726 219.101 370.928 313.221 506.75C388.516 615.408 238.567 517.597 267.774 727.388C154.013 467.242 70.4616 605.952 -45.374 577.363Z" fill="#1C1032"/>
<path d="M-114.374 427.363C-207.043 404.491 -199.659 287.042 -184.384 231.177L-43.3037 147.681C-66.8756 192.568 -97.6009 294.28 -31.9273 342.034C50.1647 401.726 150.101 220.928 244.221 356.75C319.516 465.408 169.567 367.597 198.774 577.388C85.013 317.242 1.4616 455.952 -114.374 427.363Z" fill="#1C1032"/>
<path d="M894.187 307.626C905.002 212.791 1073.72 274.467 1113.45 316.607L1111.23 480.529C1085.2 437.026 1014.38 357.815 939.406 389C845.689 427.98 947.963 607.466 782.996 617.057C651.022 624.729 516.731 590.733 603.002 496.783C653.69 441.584 869.833 521.179 894.187 307.626Z" fill="#1C1032"/>
<path d="M309.266 9.08486C391.266 24.4588 250.989 77.6464 197.639 90.399L45.4869 74.5252C95.2718 67.6165 194.189 45.2591 191.577 11.0992C188.313 -31.6007 8.37509 11.8424 57.6999 -57.939C72.1353 -78.3611 240.268 -101.458 269.661 -80.0445C279.772 -72.6786 67.8007 -36.1869 309.266 9.08486Z" fill="#1C1032"/>
<path d="M1225.94 201.162C1221.98 193.92 1213.81 188.862 1201.92 186.277C1190.02 183.691 1174.63 183.628 1156.62 186.091C1138.61 188.555 1118.33 193.497 1096.94 200.634C1075.55 207.772 1053.47 216.966 1031.97 227.691C1010.46 238.417 989.946 250.463 971.594 263.143C953.242 275.823 937.412 288.889 925.009 301.593C912.606 314.297 903.872 326.392 899.306 337.187C894.74 347.981 894.431 357.265 898.397 364.506L932.236 347.631C929.09 341.885 929.335 334.52 932.957 325.956C936.58 317.392 943.509 307.796 953.35 297.717C963.19 287.638 975.749 277.272 990.309 267.212C1004.87 257.152 1021.15 247.594 1038.21 239.085C1055.27 230.576 1072.79 223.282 1089.76 217.619C1106.72 211.956 1122.81 208.035 1137.1 206.081C1151.39 204.126 1163.61 204.176 1173.04 206.228C1182.48 208.279 1188.96 212.292 1192.1 218.037L1225.94 201.162Z" fill="#863D83" fill-opacity="0.21"/>
<path fill-rule="evenodd" clip-rule="evenodd" d="M1006.35 391.442C1077.02 415.516 1153.82 377.745 1177.89 307.078C1191.95 265.814 1184.92 222.459 1162.57 188.731C1154.3 183.843 1132.21 178.998 1110.05 198.716C1098.66 208.85 1093.15 220.55 1088.49 230.463C1081.8 244.661 1076.84 255.195 1058.8 252.213C1050.13 250.779 1041.53 248.776 1033.24 246.847C1012.27 241.965 993.356 237.561 980.577 244.084C966.388 251.327 961.298 260.103 949.755 280.002C946.796 285.103 943.413 290.936 939.343 297.661C929.694 313.608 929.109 320.789 928.06 320.858C927.721 320.88 927.334 320.161 926.579 318.756C926.965 290.543 940.456 233.138 991.326 229.226C1011.82 227.649 1024.82 228.719 1034.21 229.491C1053.94 231.114 1057.7 231.423 1081.57 203.07C1109.75 169.599 1140.21 170.228 1151.92 174.726C1148.89 171.238 1145.67 167.895 1142.27 164.716C1125.25 161.196 1086.75 156.744 1068.94 167.1C1057.81 173.572 1055.89 179.22 1054.2 184.168C1052.52 189.117 1051.07 193.365 1040.89 197.038C1034.56 199.323 1026.65 200.357 1018.1 201.475C999.157 203.951 977.077 206.837 962.096 224.639C957.553 230.038 953.487 234.624 949.787 238.799C935.774 254.607 926.998 264.507 917.405 290.187C919.401 300.05 922.488 309.632 926.579 318.756C941.393 351.802 969.366 378.843 1006.35 391.442ZM1109.95 142.349C1117.51 146.082 1124.6 150.462 1131.17 155.395C1123.1 153.948 1100 152.423 1072.07 157.903C1057.1 160.842 1052.67 167.291 1048.02 174.058C1041.84 183.068 1035.26 192.643 1002.9 195.252C957.563 198.908 925.668 251.128 915.387 276.781C914.961 272.499 914.739 268.18 914.728 263.839C921.307 239.531 945.876 163.582 983.005 169.493C992.284 170.971 1003.16 164.372 1013.72 157.965C1027.23 149.774 1040.21 141.898 1048.67 151.622C1057.17 161.393 1068.14 156.098 1080.29 150.24C1089.68 145.709 1099.77 140.842 1109.95 142.349Z" fill="#863D83" fill-opacity="0.21"/>
<path d="M1109.95 142.349C1104.7 139.756 1099.22 137.475 1093.53 135.535C1047.92 119.999 999.76 130.221 964.866 158.421C945.691 173.916 930.523 194.84 921.986 219.9C917.026 234.458 914.692 249.275 914.728 263.839C921.307 239.531 945.876 163.582 983.005 169.493C992.284 170.971 1003.16 164.372 1013.72 157.965C1027.23 149.774 1040.21 141.898 1048.67 151.622C1057.17 161.393 1068.14 156.098 1080.29 150.24C1089.68 145.709 1099.77 140.842 1109.95 142.349Z" fill="#863D83" fill-opacity="0.21"/>
<path d="M1002.9 195.252C957.563 198.908 925.668 251.128 915.387 276.781C915.835 281.296 916.511 285.77 917.405 290.187C926.998 264.507 935.774 254.607 949.787 238.799C953.487 234.624 957.553 230.038 962.096 224.639C977.077 206.837 999.157 203.951 1018.1 201.475C1026.65 200.357 1034.56 199.323 1040.89 197.038C1051.07 193.365 1052.52 189.117 1054.2 184.168C1055.89 179.22 1057.81 173.572 1068.94 167.1C1086.75 156.744 1125.25 161.196 1142.27 164.716C1138.76 161.428 1135.05 158.314 1131.17 155.395C1123.1 153.948 1100 152.423 1072.07 157.903C1057.1 160.842 1052.67 167.291 1048.02 174.058C1041.84 183.068 1035.26 192.643 1002.9 195.252Z" fill="#863D83" fill-opacity="0.21"/>
<path d="M991.326 229.226C940.456 233.138 926.965 290.543 926.579 318.756C927.334 320.161 927.721 320.88 928.06 320.858C929.109 320.789 929.694 313.608 939.343 297.661C943.413 290.936 946.796 285.103 949.755 280.002C961.298 260.103 966.388 251.327 980.577 244.084C993.356 237.561 1012.27 241.965 1033.24 246.847C1041.53 248.776 1050.13 250.779 1058.8 252.213C1076.84 255.195 1081.8 244.661 1088.49 230.463C1093.15 220.55 1098.66 208.85 1110.05 198.716C1132.21 178.998 1154.3 183.843 1162.57 188.731C1159.33 183.849 1155.78 179.169 1151.92 174.726C1140.21 170.228 1109.75 169.599 1081.57 203.07C1057.7 231.423 1053.94 231.114 1034.21 229.491C1024.82 228.719 1011.82 227.649 991.326 229.226Z" fill="#863D83" fill-opacity="0.21"/>
<path d="M918.986 286.025L916.073 282.132L916.519 285.408L917.229 289.219L918.986 286.025Z" fill="#863D83" fill-opacity="0.21"/>
<path fill-rule="evenodd" clip-rule="evenodd" d="M942.104 315.906C942.017 316.143 941.925 316.363 941.828 316.565C942.085 316.724 958.755 320.1 958.904 320.151C958.904 320.151 942.484 316.286 942.104 315.906Z" fill="#863D83" fill-opacity="0.21"/>
<path d="M981.342 270.004C946.232 278.75 951.754 307.08 958.904 320.151L970.618 326.373C970.618 326.373 968.805 301.834 977.93 291.155C993.828 272.548 1018.95 292.959 1041.3 302.927C1077.33 318.993 1090.09 309.059 1101.72 287.361C1113.65 265.106 1112.77 242.965 1133.1 227.989C1142.68 220.932 1156.28 214.093 1160.57 214.812L1160.86 201.522C1149.34 203.249 1133.93 212.259 1119.31 223.29C1095.96 240.896 1099.64 269.672 1073.3 282.365C1040.66 298.094 1025.23 259.072 981.342 270.004Z" fill="#863D83" fill-opacity="0.21"/>
<path d="M970.618 326.373L958.904 320.151C959.732 326.234 961.964 332.127 967.982 341.317C973.999 350.507 959.831 361.969 961.672 366.389C963.145 369.925 985.748 381.954 996.865 387.527L972.389 361.784C971.752 360.377 971.588 355.621 976.02 347.849C980.453 340.077 970.618 326.373 970.618 326.373Z" fill="#863D83" fill-opacity="0.21"/>
<path d="M897.825 363.503C902.919 372.865 912.205 380.034 925.153 384.601C938.102 389.168 954.459 391.044 973.291 390.121C992.124 389.198 1013.06 385.495 1034.91 379.224C1056.76 372.952 1079.09 364.234 1100.63 353.567C1122.17 342.901 1142.49 330.495 1160.44 317.058C1178.4 303.621 1193.62 289.416 1205.25 275.255C1216.88 261.093 1224.68 247.251 1228.22 234.521C1231.76 221.79 1230.95 210.419 1225.86 201.058L1191.97 217.84C1196.01 225.267 1194.92 228.49 1192.12 238.59C1189.31 248.69 1183.12 259.672 1173.89 270.907C1164.67 282.143 1152.59 293.413 1138.35 304.073C1124.11 314.734 1107.98 324.576 1090.89 333.039C1073.8 341.501 1056.09 348.418 1038.75 353.394C1021.42 358.37 1004.81 361.308 989.864 362.04C974.923 362.772 961.946 361.284 951.673 357.66C941.4 354.037 935.756 354.148 931.715 346.721L897.825 363.503Z" fill="#863D83" fill-opacity="0.21"/>
<path d="M929.945 325.905C926.145 318.72 927.776 303.671 928.998 297.245L935.769 303.568C935.769 303.568 931.565 323.333 932.586 330.598C933.289 332.027 933.745 333.09 929.945 325.905Z" fill="#863D83" fill-opacity="0.21"/>
<path d="M1200.31 215.718C1196.86 209.417 1189.76 205.016 1179.41 202.766C1169.06 200.516 1155.67 200.461 1140 202.605C1124.32 204.748 1106.68 209.048 1088.07 215.258C1069.46 221.469 1050.25 229.469 1031.54 238.801C1012.82 248.133 994.974 258.614 979.006 269.647C963.038 280.68 949.265 292.048 938.473 303.102C927.681 314.156 920.082 324.68 916.109 334.072C912.136 343.464 911.867 351.541 915.318 357.842L944.762 343.159C942.024 338.16 942.237 331.752 945.389 324.3C948.541 316.849 954.57 308.499 963.132 299.729C971.694 290.959 982.621 281.94 995.29 273.187C1007.96 264.434 1022.12 256.118 1036.97 248.714C1051.81 241.31 1067.05 234.964 1081.82 230.036C1096.58 225.109 1110.58 221.698 1123.02 219.997C1135.45 218.297 1146.07 218.34 1154.29 220.125C1162.5 221.91 1168.13 225.402 1170.87 230.401L1200.31 215.718Z" fill="#AF4DBA"/>
<g filter="url(#filter0_i_232_763)">
<path fill-rule="evenodd" clip-rule="evenodd" d="M1009.25 381.279C1070.73 402.226 1137.56 369.361 1158.51 307.874C1170.74 271.971 1164.62 234.248 1145.17 204.901C1137.97 200.649 1118.76 196.433 1099.48 213.589C1089.57 222.407 1084.77 232.587 1080.71 241.212C1074.9 253.566 1070.58 262.731 1054.89 260.137C1047.34 258.889 1039.85 257.146 1032.65 255.468C1014.4 251.22 997.941 247.388 986.823 253.064C974.477 259.366 970.047 267.002 960.004 284.316C957.43 288.754 954.486 293.829 950.945 299.681C942.549 313.556 942.04 319.805 941.128 319.864C940.833 319.883 940.496 319.258 939.839 318.036C940.175 293.487 951.913 243.54 996.175 240.136C1014.01 238.764 1025.32 239.695 1033.49 240.367C1050.65 241.779 1053.92 242.048 1074.7 217.378C1099.22 188.255 1125.72 188.802 1135.9 192.716C1133.27 189.681 1130.47 186.772 1127.51 184.006C1112.7 180.943 1079.2 177.07 1063.71 186.08C1054.02 191.712 1052.35 196.626 1050.88 200.932C1049.42 205.237 1048.16 208.934 1039.3 212.13C1033.79 214.118 1026.91 215.018 1019.47 215.99C1002.99 218.144 983.777 220.655 970.743 236.145C966.79 240.842 963.252 244.833 960.032 248.466C947.839 262.22 940.203 270.834 931.857 293.178C933.594 301.759 936.28 310.096 939.839 318.036C952.728 346.789 977.068 370.317 1009.25 381.279ZM1099.39 164.545C1105.97 167.793 1112.13 171.604 1117.85 175.896C1110.84 174.637 1090.73 173.31 1066.43 178.078C1053.4 180.635 1049.55 186.246 1045.51 192.135C1040.12 199.974 1034.4 208.305 1006.24 210.576C966.799 213.756 939.046 259.193 930.101 281.514C929.73 277.787 929.538 274.03 929.528 270.252C935.252 249.102 956.629 183.02 988.935 188.163C997.009 189.449 1006.47 183.707 1015.66 178.133C1027.41 171.005 1038.71 164.153 1046.07 172.613C1053.46 181.115 1063.01 176.507 1073.58 171.411C1081.75 167.469 1090.53 163.234 1099.39 164.545Z" fill="#C456D1"/>
<path d="M1099.39 164.545C1094.82 162.289 1090.05 160.304 1085.1 158.616C1045.42 145.098 1003.51 153.993 973.152 178.529C956.468 192.011 943.271 210.217 935.842 232.022C931.528 244.688 929.496 257.581 929.528 270.252C935.252 249.102 956.629 183.02 988.935 188.163C997.009 189.449 1006.47 183.707 1015.66 178.133C1027.41 171.005 1038.71 164.153 1046.07 172.613C1053.46 181.115 1063.01 176.507 1073.58 171.411C1081.75 167.469 1090.53 163.234 1099.39 164.545Z" fill="#AF4DBA"/>
<path d="M1006.24 210.576C966.799 213.756 939.046 259.193 930.101 281.514C930.491 285.441 931.079 289.334 931.857 293.178C940.203 270.834 947.839 262.22 960.032 248.466C963.252 244.833 966.79 240.842 970.743 236.145C983.777 220.655 1002.99 218.144 1019.47 215.99C1026.91 215.018 1033.79 214.118 1039.3 212.13C1048.16 208.934 1049.42 205.237 1050.88 200.932C1052.35 196.626 1054.02 191.712 1063.71 186.08C1079.2 177.07 1112.7 180.943 1127.51 184.006C1124.45 181.145 1121.23 178.436 1117.85 175.896C1110.84 174.637 1090.73 173.31 1066.43 178.078C1053.4 180.635 1049.55 186.246 1045.51 192.135C1040.12 199.974 1034.4 208.305 1006.24 210.576Z" fill="#AF4DBA"/>
<path d="M996.175 240.136C951.913 243.54 940.175 293.487 939.839 318.036C940.496 319.258 940.833 319.883 941.128 319.864C942.04 319.805 942.549 313.556 950.945 299.681C954.486 293.829 957.43 288.754 960.004 284.316C970.047 267.002 974.477 259.366 986.823 253.064C997.941 247.388 1014.4 251.22 1032.65 255.468C1039.85 257.146 1047.34 258.889 1054.89 260.137C1070.58 262.731 1074.9 253.566 1080.71 241.212C1084.77 232.587 1089.57 222.407 1099.48 213.589C1118.76 196.433 1137.97 200.649 1145.17 204.901C1142.36 200.654 1139.26 196.582 1135.9 192.716C1125.72 188.802 1099.22 188.255 1074.7 217.378C1053.92 242.048 1050.65 241.779 1033.49 240.367C1025.32 239.695 1014.01 238.764 996.175 240.136Z" fill="#AF4DBA"/>
</g>
<path d="M933.233 289.556L930.698 286.169L931.086 289.019L931.703 292.336L933.233 289.556Z" fill="#65176E"/>
<path fill-rule="evenodd" clip-rule="evenodd" d="M953.347 315.556C953.271 315.762 953.191 315.953 953.108 316.129C953.331 316.267 967.835 319.204 967.965 319.249C967.965 319.249 953.678 315.886 953.347 315.556Z" fill="url(#paint0_linear_232_763)"/>
<path d="M987.488 275.617C956.939 283.227 961.744 307.876 967.965 319.249L978.157 324.663C978.157 324.663 976.58 303.312 984.519 294.02C998.352 277.83 1020.21 295.589 1039.66 304.262C1071.01 318.242 1082.11 309.598 1092.23 290.719C1102.61 271.355 1101.84 252.09 1119.53 239.06C1127.87 232.92 1139.7 226.969 1143.44 227.594L1143.69 216.031C1133.66 217.534 1120.26 225.373 1107.53 234.971C1087.22 250.29 1090.42 275.327 1067.5 286.372C1039.1 300.057 1025.67 266.105 987.488 275.617Z" fill="#AF4DBA"/>
<path d="M978.157 324.663L967.965 319.249C968.685 324.542 970.627 329.669 975.863 337.666C981.099 345.662 968.771 355.635 970.373 359.481C971.655 362.558 991.322 373.024 1000.99 377.872L979.698 355.474C979.144 354.25 979.001 350.111 982.858 343.349C986.715 336.586 978.157 324.663 978.157 324.663Z" fill="#65176F"/>
<path d="M914.82 356.97C919.252 365.115 927.332 371.353 938.599 375.327C949.865 379.3 964.097 380.932 980.483 380.13C996.869 379.327 1015.09 376.105 1034.1 370.648C1053.11 365.191 1072.54 357.605 1091.28 348.324C1110.02 339.044 1127.71 328.25 1143.32 316.558C1158.94 304.867 1172.19 292.507 1182.31 280.185C1192.43 267.863 1199.22 255.82 1202.29 244.743C1205.37 233.666 1204.67 223.772 1200.24 215.627L1170.76 230.229C1174.27 236.692 1173.32 239.495 1170.88 248.284C1168.44 257.072 1163.05 266.627 1155.03 276.403C1147 286.179 1136.49 295.985 1124.1 305.26C1111.71 314.536 1097.68 323.1 1082.81 330.463C1067.94 337.826 1052.52 343.844 1037.44 348.174C1022.36 352.503 1007.9 355.059 994.903 355.696C981.903 356.333 970.612 355.038 961.673 351.886C952.734 348.733 947.824 348.83 944.308 342.367L914.82 356.97Z" fill="#AF4DBA"/>
<path d="M942.768 324.256C939.462 318.004 940.88 304.91 941.944 299.319L947.836 304.821C947.836 304.821 944.177 322.018 945.066 328.339C945.677 329.583 946.074 330.507 942.768 324.256Z" fill="#65176E"/>
<path d="M81.0631 193.607C81.0429 192.678 81.0713 191.802 81.1385 191C81.1385 191.898 81.1128 192.767 81.0631 193.607C81.2605 202.692 86.1085 216.905 105 216.905C97.1568 217.437 81.5795 223.059 81.1476 241.224C81.1489 241.49 81.1457 241.749 81.1385 242C81.1385 241.739 81.1415 241.48 81.1476 241.224C81.1094 232.893 76.7781 217.812 59.5764 216.944C59.0232 216.954 58.4957 216.939 58 216.905C58.5371 216.905 59.0625 216.918 59.5764 216.944C67.2807 216.809 79.9714 212.048 81.0631 193.607Z" fill="white"/>
<path d="M81.0631 193.607C81.0429 192.678 81.0713 191.802 81.1385 191C81.1385 191.898 81.1128 192.767 81.0631 193.607C81.2605 202.692 86.1085 216.905 105 216.905C97.1568 217.437 81.5795 223.059 81.1476 241.224C81.1489 241.49 81.1457 241.749 81.1385 242C81.1385 241.739 81.1415 241.48 81.1476 241.224C81.1094 232.893 76.7781 217.812 59.5764 216.944C59.0232 216.954 58.4957 216.939 58 216.905C58.5371 216.905 59.0625 216.918 59.5764 216.944C67.2807 216.809 79.9714 212.048 81.0631 193.607Z" fill="white"/>
<path d="M81.0631 193.607C81.0429 192.678 81.0713 191.802 81.1385 191C81.1385 191.898 81.1128 192.767 81.0631 193.607C81.2605 202.692 86.1085 216.905 105 216.905C97.1568 217.437 81.5795 223.059 81.1476 241.224C81.1489 241.49 81.1457 241.749 81.1385 242C81.1385 241.739 81.1415 241.48 81.1476 241.224C81.1094 232.893 76.7781 217.812 59.5764 216.944C59.0232 216.954 58.4957 216.939 58 216.905C58.5371 216.905 59.0625 216.918 59.5764 216.944C67.2807 216.809 79.9714 212.048 81.0631 193.607Z" fill="white"/>
<path d="M81.0631 193.607C81.0429 192.678 81.0713 191.802 81.1385 191C81.1385 191.898 81.1128 192.767 81.0631 193.607C81.2605 202.692 86.1085 216.905 105 216.905C97.1568 217.437 81.5795 223.059 81.1476 241.224C81.1489 241.49 81.1457 241.749 81.1385 242C81.1385 241.739 81.1415 241.48 81.1476 241.224C81.1094 232.893 76.7781 217.812 59.5764 216.944C59.0232 216.954 58.4957 216.939 58 216.905C58.5371 216.905 59.0625 216.918 59.5764 216.944C67.2807 216.809 79.9714 212.048 81.0631 193.607Z" fill="#D4E7EB"/>
<path d="M39.7769 169.892C39.7666 169.217 39.7811 168.582 39.8154 168C39.8154 168.652 39.8023 169.282 39.7769 169.892C39.8777 176.483 42.3533 186.794 52 186.794C47.995 187.18 40.0406 191.259 39.8201 204.437C39.8207 204.63 39.8191 204.818 39.8154 205C39.8154 204.81 39.817 204.623 39.8201 204.437C39.8005 198.393 37.5888 187.452 28.805 186.822C28.5225 186.829 28.2531 186.819 28 186.794C28.2743 186.794 28.5426 186.803 28.805 186.822C32.7391 186.724 39.2194 183.27 39.7769 169.892Z" fill="white"/>
<path d="M39.7769 169.892C39.7666 169.217 39.7811 168.582 39.8154 168C39.8154 168.652 39.8023 169.282 39.7769 169.892C39.8777 176.483 42.3533 186.794 52 186.794C47.995 187.18 40.0406 191.259 39.8201 204.437C39.8207 204.63 39.8191 204.818 39.8154 205C39.8154 204.81 39.817 204.623 39.8201 204.437C39.8005 198.393 37.5888 187.452 28.805 186.822C28.5225 186.829 28.2531 186.819 28 186.794C28.2743 186.794 28.5426 186.803 28.805 186.822C32.7391 186.724 39.2194 183.27 39.7769 169.892Z" fill="white"/>
<path d="M39.7769 169.892C39.7666 169.217 39.7811 168.582 39.8154 168C39.8154 168.652 39.8023 169.282 39.7769 169.892C39.8777 176.483 42.3533 186.794 52 186.794C47.995 187.18 40.0406 191.259 39.8201 204.437C39.8207 204.63 39.8191 204.818 39.8154 205C39.8154 204.81 39.817 204.623 39.8201 204.437C39.8005 198.393 37.5888 187.452 28.805 186.822C28.5225 186.829 28.2531 186.819 28 186.794C28.2743 186.794 28.5426 186.803 28.805 186.822C32.7391 186.724 39.2194 183.27 39.7769 169.892Z" fill="white"/>
<path d="M39.7769 169.892C39.7666 169.217 39.7811 168.582 39.8154 168C39.8154 168.652 39.8023 169.282 39.7769 169.892C39.8777 176.483 42.3533 186.794 52 186.794C47.995 187.18 40.0406 191.259 39.8201 204.437C39.8207 204.63 39.8191 204.818 39.8154 205C39.8154 204.81 39.817 204.623 39.8201 204.437C39.8005 198.393 37.5888 187.452 28.805 186.822C28.5225 186.829 28.2531 186.819 28 186.794C28.2743 186.794 28.5426 186.803 28.805 186.822C32.7391 186.724 39.2194 183.27 39.7769 169.892Z" fill="#D4E7EB"/>
<path d="M-9.96384 228.462C24.0658 207.147 49.2551 208.196 57.5961 211.385C60.2457 215.457 67.419 230.883 84.9753 252.597C95.6619 265.814 46.3261 328.726 5.70228 350.365C23.6288 317.158 42.9468 305.664 27.779 302.821C13.1775 300.084 -49.6503 374.28 -82.6105 392.318C-53.0558 362.103 12.4537 308.627 -19.5283 300.291C-51.5103 291.956 -65.7451 328.358 -68.8647 347.6C-75.3808 337.278 -79.2049 311.727 -42.3726 292.108C-5.54041 272.489 -2.80925 255.319 -6.0477 249.186C-18.2942 243.77 -42.8451 258.215 -53.5897 266.115C-62.3423 272.925 -74.5078 281.989 -53.1482 263.76C-31.7886 245.531 -15.4588 232.632 -9.96384 228.462Z" fill="#E53636" fill-opacity="0.74"/>
<path d="M-1.92693 232.406C20.587 222.585 47.4305 217.93 58.038 216.831L74.4358 235.994C74.6225 241.068 73.5947 255.047 67.9903 270.378C62.3859 285.71 45.2655 305.774 37.4058 313.889C43.1655 305.705 50.5283 289.143 33.9016 288.367C17.2749 287.59 -0.304774 306.983 -7.01628 316.776C-5.68189 313.126 -0.516917 302.392 9.46795 288.662C19.4528 274.932 -3.28883 283.02 -15.9078 288.781C9.70298 277.004 24.2444 251.451 29.16 238.234C33.0925 227.659 10.0739 229.943 -1.92693 232.406Z" fill="#FDB916" fill-opacity="0.51"/>
<path d="M14.6779 276.474C43.4647 254.003 39.6846 230.705 26.775 227.548C26.775 227.548 37.3597 220.726 46.2041 225.339C56.4194 230.667 60.1576 221.129 60.1576 221.129C61.1364 219.296 61.5359 217.703 61.6253 216.43C59.1316 211.596 61.9059 212.434 61.6253 216.43C63.0125 219.119 66.0298 223.563 72.1099 230.195C78.5866 237.26 63.1918 269.966 50.475 283.185C55.8673 262.743 32.2427 275.541 21.5669 286.542C31.899 270.439 24.3236 270.969 14.6779 276.474Z" fill="#FFE600" fill-opacity="0.44"/>
<path d="M16.065 360.108C9.61819 363.288 5.1767 362.923 -1.1856 363.7C8.85742 359.542 14.0737 347.322 23.9594 346.606C33.8451 345.889 34.9292 334.908 37.9953 331.552C35.7918 349.734 29.7241 354.868 16.065 360.108Z" fill="#E53636" fill-opacity="0.74"/>
<path d="M20.6554 312.212C12.7956 317.727 -4.802 330.453 -12.3143 337.236C-3.59089 335.783 15.2159 328.745 20.6554 312.212Z" fill="#E53636" fill-opacity="0.74"/>
<path d="M55.7245 212.329C55.1346 209.68 56.4134 207.171 58.5325 205.475L74.8456 192.42C79.3055 188.851 85.8439 189.736 89.1938 194.363L114.266 228.993C117.735 233.784 116.309 240.524 111.196 243.5L90.3794 255.616C89.5792 256.082 88.703 256.437 87.7883 256.294C84.94 255.847 77.7598 252.863 66.8176 235.881C59.3653 224.315 56.6806 216.623 55.7245 212.329Z" fill="#898989"/>
<path d="M147.438 291.748C182.935 267.186 189.77 235.495 188.751 222.72L152.263 237.429C151.125 269.638 71.572 317.319 79.1708 320.686C86.7697 324.054 111.941 316.309 147.438 291.748Z" fill="#6DA0DD"/>
<path d="M147.438 291.748C182.935 267.186 189.77 235.495 188.751 222.72L152.263 237.429C151.125 269.638 71.572 317.319 79.1708 320.686C86.7697 324.054 111.941 316.309 147.438 291.748Z" fill="#436D9F"/>
<path d="M25.8942 156.852C56.3279 126.24 91.0726 126.263 103.468 129.518L80.2129 161.677C48.3079 157.12 -12.6483 227.023 -14.6237 218.95C-16.5991 210.876 -4.53941 187.464 25.8942 156.852Z" fill="#6DA0DD"/>
<path d="M25.8942 156.852C56.3279 126.24 91.0726 126.263 103.468 129.518L80.2129 161.677C48.3079 157.12 -12.6483 227.023 -14.6237 218.95C-16.5991 210.876 -4.53941 187.464 25.8942 156.852Z" fill="#6DA0DD"/>
<path d="M166.48 82.1595C99.9998 117.377 69.2194 172.012 62.1392 194.928C62.1392 194.928 62.7203 211.494 76.8657 230.184C168.333 163.698 309.958 56.7781 309.958 56.7781C287.614 48.8024 232.961 46.9422 166.48 82.1595Z" fill="#EEEFEF"/>
<path d="M309.958 56.7781C309.958 56.7781 168.333 163.698 76.8657 230.184C89.1153 246.37 97.014 253.935 97.014 253.935C120.521 254.22 180.91 241.4 234.408 187.847C287.905 134.294 310.389 80.968 309.958 56.7781Z" fill="#B9B9B9"/>
<circle cx="225.587" cy="122.78" r="24.4949" transform="rotate(5.0758 225.587 122.78)" fill="#8A8A8A"/>
<circle cx="225.587" cy="122.78" r="24.4949" transform="rotate(5.0758 225.587 122.78)" fill="#8A8A8A"/>
<circle cx="225.587" cy="122.78" r="24.4949" transform="rotate(5.0758 225.587 122.78)" fill="#8A8A8A"/>
<circle cx="225.587" cy="122.78" r="21.7393" transform="rotate(5.0758 225.587 122.78)" fill="#3E3E3E"/>
<circle cx="225.587" cy="122.78" r="21.7393" transform="rotate(5.0758 225.587 122.78)" fill="#3E3E3E"/>
<circle cx="225.587" cy="122.78" r="21.7393" transform="rotate(5.0758 225.587 122.78)" fill="#3E3E3E"/>
<circle cx="225.587" cy="122.78" r="21.7393" transform="rotate(5.0758 225.587 122.78)" fill="#3E3E3E"/>
<circle cx="225.753" cy="122.641" r="17.9119" transform="rotate(5.0758 225.753 122.641)" fill="#71C3FA"/>
<path d="M222.676 108.842C218.101 108.436 206.655 118.485 214.653 130.877C217.284 134.953 227.25 109.249 222.676 108.842Z" fill="#D4E7EB"/>
<path fill-rule="evenodd" clip-rule="evenodd" d="M310.516 57.1405C303.358 54.4893 283.712 49.9227 262.389 52.8657L283.087 77.6696L310.516 57.1405Z" fill="#E63636"/>
<path d="M299.873 97.7861C304.069 88.4481 312.071 67.2457 310.516 57.1405L283.087 77.6696L299.873 97.7861Z" fill="#B32626"/>
<path d="M157.737 171.233C165.311 178.312 36.0922 272.292 30.414 268.369C21.7388 260.432 150.164 164.153 157.737 171.233Z" fill="#6DA0DD"/>
<path d="M40.0495 252.79C54.4205 249.039 71.2565 252.664 84.867 258.622C68.5385 255.584 53.6341 253.68 40.0495 252.79C12.2056 260.058 -6.38515 295.014 25.6651 394.328C86.4054 582.543 249.925 664.422 111.593 824.37C129.165 803.48 153.528 743.324 110.405 669.83C56.5026 577.962 -72.0179 573.282 -60.7824 446.787C-96.608 373.952 -120.877 242.247 40.0495 252.79Z" fill="#EC864D" fill-opacity="0.08"/>
<path d="M-74.884 383.472C16.9965 321.898 70.799 309.541 97.4138 262.079C107.034 300.216 32.2075 375.6 -33.9695 404.907C-113.598 440.172 57.5063 517.913 3.07631 632.393C8.12173 575.589 -133.201 422.554 -74.884 383.472Z" fill="#EC2020" fill-opacity="0.11"/>
<path d="M251.844 -77.9943C245.614 -78.773 159.588 0.0933075 119.138 41.7328L159.047 76.4505C192.143 24.4281 258.074 -77.2156 251.844 -77.9943Z" fill="url(#paint1_linear_232_763)" fill-opacity="0.35"/>
<g filter="url(#filter1_i_232_763)">
<circle cx="138.606" cy="59.9028" r="26.606" fill="#596B9A"/>
</g>
<path d="M453.844 382.006C447.614 381.227 361.588 460.093 321.138 501.733L361.047 536.45C394.143 484.428 460.074 382.784 453.844 382.006Z" fill="url(#paint2_linear_232_763)" fill-opacity="0.35"/>
<g filter="url(#filter2_i_232_763)">
<circle cx="340.606" cy="519.903" r="26.606" fill="#596B9A"/>
</g>
<path d="M255.063 481.965C255.043 480.908 255.071 479.912 255.138 479C255.138 480.021 255.113 481.009 255.063 481.965C255.261 492.297 260.109 508.46 279 508.46C271.157 509.066 255.58 515.46 255.148 536.117C255.149 536.419 255.146 536.714 255.138 537C255.138 536.703 255.142 536.409 255.148 536.117C255.109 526.643 250.778 509.492 233.576 508.505C233.023 508.516 232.496 508.5 232 508.46C232.537 508.46 233.063 508.475 233.576 508.505C241.281 508.352 253.971 502.936 255.063 481.965Z" fill="white"/>
<path d="M255.063 481.965C255.043 480.908 255.071 479.912 255.138 479C255.138 480.021 255.113 481.009 255.063 481.965C255.261 492.297 260.109 508.46 279 508.46C271.157 509.066 255.58 515.46 255.148 536.117C255.149 536.419 255.146 536.714 255.138 537C255.138 536.703 255.142 536.409 255.148 536.117C255.109 526.643 250.778 509.492 233.576 508.505C233.023 508.516 232.496 508.5 232 508.46C232.537 508.46 233.063 508.475 233.576 508.505C241.281 508.352 253.971 502.936 255.063 481.965Z" fill="white"/>
<path d="M255.063 481.965C255.043 480.908 255.071 479.912 255.138 479C255.138 480.021 255.113 481.009 255.063 481.965C255.261 492.297 260.109 508.46 279 508.46C271.157 509.066 255.58 515.46 255.148 536.117C255.149 536.419 255.146 536.714 255.138 537C255.138 536.703 255.142 536.409 255.148 536.117C255.109 526.643 250.778 509.492 233.576 508.505C233.023 508.516 232.496 508.5 232 508.46C232.537 508.46 233.063 508.475 233.576 508.505C241.281 508.352 253.971 502.936 255.063 481.965Z" fill="white"/>
<path d="M255.063 481.965C255.043 480.908 255.071 479.912 255.138 479C255.138 480.021 255.113 481.009 255.063 481.965C255.261 492.297 260.109 508.46 279 508.46C271.157 509.066 255.58 515.46 255.148 536.117C255.149 536.419 255.146 536.714 255.138 537C255.138 536.703 255.142 536.409 255.148 536.117C255.109 526.643 250.778 509.492 233.576 508.505C233.023 508.516 232.496 508.5 232 508.46C232.537 508.46 233.063 508.475 233.576 508.505C241.281 508.352 253.971 502.936 255.063 481.965Z" fill="#D4E7EB"/>
<path d="M597.807 207.802C597.821 208.586 597.801 209.324 597.754 210C597.754 209.243 597.772 208.51 597.807 207.802C597.668 200.142 594.264 188.159 581 188.159C586.507 187.71 597.444 182.97 597.747 167.654C597.747 167.43 597.749 167.212 597.754 167C597.754 167.22 597.752 167.438 597.747 167.654C597.774 174.678 600.815 187.394 612.893 188.126C613.282 188.118 613.652 188.129 614 188.159C613.623 188.159 613.254 188.148 612.893 188.126C607.484 188.239 598.573 192.254 597.807 207.802Z" fill="white"/>
<path d="M597.807 207.802C597.821 208.586 597.801 209.324 597.754 210C597.754 209.243 597.772 208.51 597.807 207.802C597.668 200.142 594.264 188.159 581 188.159C586.507 187.71 597.444 182.97 597.747 167.654C597.747 167.43 597.749 167.212 597.754 167C597.754 167.22 597.752 167.438 597.747 167.654C597.774 174.678 600.815 187.394 612.893 188.126C613.282 188.118 613.652 188.129 614 188.159C613.623 188.159 613.254 188.148 612.893 188.126C607.484 188.239 598.573 192.254 597.807 207.802Z" fill="white"/>
<path d="M597.807 207.802C597.821 208.586 597.801 209.324 597.754 210C597.754 209.243 597.772 208.51 597.807 207.802C597.668 200.142 594.264 188.159 581 188.159C586.507 187.71 597.444 182.97 597.747 167.654C597.747 167.43 597.749 167.212 597.754 167C597.754 167.22 597.752 167.438 597.747 167.654C597.774 174.678 600.815 187.394 612.893 188.126C613.282 188.118 613.652 188.129 614 188.159C613.623 188.159 613.254 188.148 612.893 188.126C607.484 188.239 598.573 192.254 597.807 207.802Z" fill="white"/>
<path d="M597.807 207.802C597.821 208.586 597.801 209.324 597.754 210C597.754 209.243 597.772 208.51 597.807 207.802C597.668 200.142 594.264 188.159 581 188.159C586.507 187.71 597.444 182.97 597.747 167.654C597.747 167.43 597.749 167.212 597.754 167C597.754 167.22 597.752 167.438 597.747 167.654C597.774 174.678 600.815 187.394 612.893 188.126C613.282 188.118 613.652 188.129 614 188.159C613.623 188.159 613.254 188.148 612.893 188.126C607.484 188.239 598.573 192.254 597.807 207.802Z" fill="#D4E7EB"/>
<path d="M953.063 42.9651C953.043 41.9078 953.071 40.9116 953.138 40C953.138 41.0213 953.113 42.0093 953.063 42.9651C953.261 53.2972 958.109 69.4603 977 69.4603C969.157 70.0655 953.58 76.4597 953.148 97.1171C953.149 97.4195 953.146 97.714 953.138 98C953.138 97.7028 953.142 97.4086 953.148 97.1171C953.109 87.6432 948.778 70.492 931.576 69.5049C931.023 69.5159 930.496 69.4998 930 69.4603C930.537 69.4603 931.063 69.4754 931.576 69.5049C939.281 69.3515 951.971 63.9364 953.063 42.9651Z" fill="white"/>
<path d="M953.063 42.9651C953.043 41.9078 953.071 40.9116 953.138 40C953.138 41.0213 953.113 42.0093 953.063 42.9651C953.261 53.2972 958.109 69.4603 977 69.4603C969.157 70.0655 953.58 76.4597 953.148 97.1171C953.149 97.4195 953.146 97.714 953.138 98C953.138 97.7028 953.142 97.4086 953.148 97.1171C953.109 87.6432 948.778 70.492 931.576 69.5049C931.023 69.5159 930.496 69.4998 930 69.4603C930.537 69.4603 931.063 69.4754 931.576 69.5049C939.281 69.3515 951.971 63.9364 953.063 42.9651Z" fill="white"/>
<path d="M953.063 42.9651C953.043 41.9078 953.071 40.9116 953.138 40C953.138 41.0213 953.113 42.0093 953.063 42.9651C953.261 53.2972 958.109 69.4603 977 69.4603C969.157 70.0655 953.58 76.4597 953.148 97.1171C953.149 97.4195 953.146 97.714 953.138 98C953.138 97.7028 953.142 97.4086 953.148 97.1171C953.109 87.6432 948.778 70.492 931.576 69.5049C931.023 69.5159 930.496 69.4998 930 69.4603C930.537 69.4603 931.063 69.4754 931.576 69.5049C939.281 69.3515 951.971 63.9364 953.063 42.9651Z" fill="white"/>
<path d="M953.063 42.9651C953.043 41.9078 953.071 40.9116 953.138 40C953.138 41.0213 953.113 42.0093 953.063 42.9651C953.261 53.2972 958.109 69.4603 977 69.4603C969.157 70.0655 953.58 76.4597 953.148 97.1171C953.149 97.4195 953.146 97.714 953.138 98C953.138 97.7028 953.142 97.4086 953.148 97.1171C953.109 87.6432 948.778 70.492 931.576 69.5049C931.023 69.5159 930.496 69.4998 930 69.4603C930.537 69.4603 931.063 69.4754 931.576 69.5049C939.281 69.3515 951.971 63.9364 953.063 42.9651Z" fill="#D4E7EB"/>
<path d="M923.193 521.38C923.179 520.888 923.199 520.424 923.246 520C923.246 520.475 923.228 520.935 923.193 521.38C923.332 526.19 926.736 533.714 940 533.714C934.493 533.996 923.556 536.973 923.253 546.589C923.253 546.73 923.251 546.867 923.246 547C923.246 546.862 923.248 546.725 923.253 546.589C923.226 542.179 920.185 534.195 908.107 533.735C907.718 533.74 907.348 533.733 907 533.714C907.377 533.714 907.746 533.721 908.107 533.735C913.516 533.664 922.427 531.143 923.193 521.38Z" fill="white"/>
<path d="M923.193 521.38C923.179 520.888 923.199 520.424 923.246 520C923.246 520.475 923.228 520.935 923.193 521.38C923.332 526.19 926.736 533.714 940 533.714C934.493 533.996 923.556 536.973 923.253 546.589C923.253 546.73 923.251 546.867 923.246 547C923.246 546.862 923.248 546.725 923.253 546.589C923.226 542.179 920.185 534.195 908.107 533.735C907.718 533.74 907.348 533.733 907 533.714C907.377 533.714 907.746 533.721 908.107 533.735C913.516 533.664 922.427 531.143 923.193 521.38Z" fill="white"/>
<path d="M923.193 521.38C923.179 520.888 923.199 520.424 923.246 520C923.246 520.475 923.228 520.935 923.193 521.38C923.332 526.19 926.736 533.714 940 533.714C934.493 533.996 923.556 536.973 923.253 546.589C923.253 546.73 923.251 546.867 923.246 547C923.246 546.862 923.248 546.725 923.253 546.589C923.226 542.179 920.185 534.195 908.107 533.735C907.718 533.74 907.348 533.733 907 533.714C907.377 533.714 907.746 533.721 908.107 533.735C913.516 533.664 922.427 531.143 923.193 521.38Z" fill="white"/>
<path d="M923.193 521.38C923.179 520.888 923.199 520.424 923.246 520C923.246 520.475 923.228 520.935 923.193 521.38C923.332 526.19 926.736 533.714 940 533.714C934.493 533.996 923.556 536.973 923.253 546.589C923.253 546.73 923.251 546.867 923.246 547C923.246 546.862 923.248 546.725 923.253 546.589C923.226 542.179 920.185 534.195 908.107 533.735C907.718 533.74 907.348 533.733 907 533.714C907.377 533.714 907.746 533.721 908.107 533.735C913.516 533.664 922.427 531.143 923.193 521.38Z" fill="#D4E7EB"/>
<path d="M967.063 482.607C967.043 481.678 967.071 480.802 967.138 480C967.138 480.898 967.113 481.767 967.063 482.607C967.261 491.692 972.109 505.905 991 505.905C983.157 506.437 967.58 512.059 967.148 530.224C967.149 530.49 967.146 530.749 967.138 531C967.138 530.739 967.142 530.48 967.148 530.224C967.109 521.893 962.778 506.812 945.576 505.944C945.023 505.954 944.496 505.939 944 505.905C944.537 505.905 945.063 505.918 945.576 505.944C953.281 505.809 965.971 501.048 967.063 482.607Z" fill="white"/>
<path d="M967.063 482.607C967.043 481.678 967.071 480.802 967.138 480C967.138 480.898 967.113 481.767 967.063 482.607C967.261 491.692 972.109 505.905 991 505.905C983.157 506.437 967.58 512.059 967.148 530.224C967.149 530.49 967.146 530.749 967.138 531C967.138 530.739 967.142 530.48 967.148 530.224C967.109 521.893 962.778 506.812 945.576 505.944C945.023 505.954 944.496 505.939 944 505.905C944.537 505.905 945.063 505.918 945.576 505.944C953.281 505.809 965.971 501.048 967.063 482.607Z" fill="white"/>
<path d="M967.063 482.607C967.043 481.678 967.071 480.802 967.138 480C967.138 480.898 967.113 481.767 967.063 482.607C967.261 491.692 972.109 505.905 991 505.905C983.157 506.437 967.58 512.059 967.148 530.224C967.149 530.49 967.146 530.749 967.138 531C967.138 530.739 967.142 530.48 967.148 530.224C967.109 521.893 962.778 506.812 945.576 505.944C945.023 505.954 944.496 505.939 944 505.905C944.537 505.905 945.063 505.918 945.576 505.944C953.281 505.809 965.971 501.048 967.063 482.607Z" fill="white"/>
<path d="M967.063 482.607C967.043 481.678 967.071 480.802 967.138 480C967.138 480.898 967.113 481.767 967.063 482.607C967.261 491.692 972.109 505.905 991 505.905C983.157 506.437 967.58 512.059 967.148 530.224C967.149 530.49 967.146 530.749 967.138 531C967.138 530.739 967.142 530.48 967.148 530.224C967.109 521.893 962.778 506.812 945.576 505.944C945.023 505.954 944.496 505.939 944 505.905C944.537 505.905 945.063 505.918 945.576 505.944C953.281 505.809 965.971 501.048 967.063 482.607Z" fill="#D4E7EB"/>
<path d="M287.777 460.892C287.767 460.217 287.781 459.582 287.815 459C287.815 459.652 287.802 460.282 287.777 460.892C287.878 467.483 290.353 477.794 300 477.794C295.995 478.18 288.041 482.259 287.82 495.437C287.821 495.63 287.819 495.818 287.815 496C287.815 495.81 287.817 495.623 287.82 495.437C287.801 489.393 285.589 478.452 276.805 477.822C276.522 477.829 276.253 477.819 276 477.794C276.274 477.794 276.543 477.803 276.805 477.822C280.739 477.724 287.219 474.27 287.777 460.892Z" fill="white"/>
<path d="M287.777 460.892C287.767 460.217 287.781 459.582 287.815 459C287.815 459.652 287.802 460.282 287.777 460.892C287.878 467.483 290.353 477.794 300 477.794C295.995 478.18 288.041 482.259 287.82 495.437C287.821 495.63 287.819 495.818 287.815 496C287.815 495.81 287.817 495.623 287.82 495.437C287.801 489.393 285.589 478.452 276.805 477.822C276.522 477.829 276.253 477.819 276 477.794C276.274 477.794 276.543 477.803 276.805 477.822C280.739 477.724 287.219 474.27 287.777 460.892Z" fill="white"/>
<path d="M287.777 460.892C287.767 460.217 287.781 459.582 287.815 459C287.815 459.652 287.802 460.282 287.777 460.892C287.878 467.483 290.353 477.794 300 477.794C295.995 478.18 288.041 482.259 287.82 495.437C287.821 495.63 287.819 495.818 287.815 496C287.815 495.81 287.817 495.623 287.82 495.437C287.801 489.393 285.589 478.452 276.805 477.822C276.522 477.829 276.253 477.819 276 477.794C276.274 477.794 276.543 477.803 276.805 477.822C280.739 477.724 287.219 474.27 287.777 460.892Z" fill="white"/>
<path d="M287.777 460.892C287.767 460.217 287.781 459.582 287.815 459C287.815 459.652 287.802 460.282 287.777 460.892C287.878 467.483 290.353 477.794 300 477.794C295.995 478.18 288.041 482.259 287.82 495.437C287.821 495.63 287.819 495.818 287.815 496C287.815 495.81 287.817 495.623 287.82 495.437C287.801 489.393 285.589 478.452 276.805 477.822C276.522 477.829 276.253 477.819 276 477.794C276.274 477.794 276.543 477.803 276.805 477.822C280.739 477.724 287.219 474.27 287.777 460.892Z" fill="#D4E7EB"/>
<path d="M573.658 220.62C573.665 221.112 573.655 221.576 573.631 222C573.631 221.525 573.64 221.065 573.658 220.62C573.587 215.81 571.833 208.286 565 208.286C567.837 208.004 573.471 205.027 573.627 195.411C573.627 195.27 573.628 195.133 573.631 195C573.631 195.138 573.63 195.275 573.627 195.411C573.641 199.821 575.208 207.805 581.43 208.265C581.63 208.26 581.821 208.267 582 208.286C581.806 208.286 581.616 208.279 581.43 208.265C578.643 208.336 574.053 210.857 573.658 220.62Z" fill="white"/>
<path d="M573.658 220.62C573.665 221.112 573.655 221.576 573.631 222C573.631 221.525 573.64 221.065 573.658 220.62C573.587 215.81 571.833 208.286 565 208.286C567.837 208.004 573.471 205.027 573.627 195.411C573.627 195.27 573.628 195.133 573.631 195C573.631 195.138 573.63 195.275 573.627 195.411C573.641 199.821 575.208 207.805 581.43 208.265C581.63 208.26 581.821 208.267 582 208.286C581.806 208.286 581.616 208.279 581.43 208.265C578.643 208.336 574.053 210.857 573.658 220.62Z" fill="white"/>
<path d="M573.658 220.62C573.665 221.112 573.655 221.576 573.631 222C573.631 221.525 573.64 221.065 573.658 220.62C573.587 215.81 571.833 208.286 565 208.286C567.837 208.004 573.471 205.027 573.627 195.411C573.627 195.27 573.628 195.133 573.631 195C573.631 195.138 573.63 195.275 573.627 195.411C573.641 199.821 575.208 207.805 581.43 208.265C581.63 208.26 581.821 208.267 582 208.286C581.806 208.286 581.616 208.279 581.43 208.265C578.643 208.336 574.053 210.857 573.658 220.62Z" fill="white"/>
<path d="M573.658 220.62C573.665 221.112 573.655 221.576 573.631 222C573.631 221.525 573.64 221.065 573.658 220.62C573.587 215.81 571.833 208.286 565 208.286C567.837 208.004 573.471 205.027 573.627 195.411C573.627 195.27 573.628 195.133 573.631 195C573.631 195.138 573.63 195.275 573.627 195.411C573.641 199.821 575.208 207.805 581.43 208.265C581.63 208.26 581.821 208.267 582 208.286C581.806 208.286 581.616 208.279 581.43 208.265C578.643 208.336 574.053 210.857 573.658 220.62Z" fill="#D4E7EB"/>
<path d="M506.658 402.62C506.665 403.112 506.655 403.576 506.631 404C506.631 403.525 506.64 403.065 506.658 402.62C506.587 397.81 504.833 390.286 498 390.286C500.837 390.004 506.471 387.027 506.627 377.411C506.627 377.27 506.628 377.133 506.631 377C506.631 377.138 506.63 377.275 506.627 377.411C506.641 381.821 508.208 389.805 514.43 390.265C514.63 390.26 514.821 390.267 515 390.286C514.806 390.286 514.616 390.279 514.43 390.265C511.643 390.336 507.053 392.857 506.658 402.62Z" fill="white"/>
<path d="M506.658 402.62C506.665 403.112 506.655 403.576 506.631 404C506.631 403.525 506.64 403.065 506.658 402.62C506.587 397.81 504.833 390.286 498 390.286C500.837 390.004 506.471 387.027 506.627 377.411C506.627 377.27 506.628 377.133 506.631 377C506.631 377.138 506.63 377.275 506.627 377.411C506.641 381.821 508.208 389.805 514.43 390.265C514.63 390.26 514.821 390.267 515 390.286C514.806 390.286 514.616 390.279 514.43 390.265C511.643 390.336 507.053 392.857 506.658 402.62Z" fill="white"/>
<path d="M506.658 402.62C506.665 403.112 506.655 403.576 506.631 404C506.631 403.525 506.64 403.065 506.658 402.62C506.587 397.81 504.833 390.286 498 390.286C500.837 390.004 506.471 387.027 506.627 377.411C506.627 377.27 506.628 377.133 506.631 377C506.631 377.138 506.63 377.275 506.627 377.411C506.641 381.821 508.208 389.805 514.43 390.265C514.63 390.26 514.821 390.267 515 390.286C514.806 390.286 514.616 390.279 514.43 390.265C511.643 390.336 507.053 392.857 506.658 402.62Z" fill="white"/>
<path d="M506.658 402.62C506.665 403.112 506.655 403.576 506.631 404C506.631 403.525 506.64 403.065 506.658 402.62C506.587 397.81 504.833 390.286 498 390.286C500.837 390.004 506.471 387.027 506.627 377.411C506.627 377.27 506.628 377.133 506.631 377C506.631 377.138 506.63 377.275 506.627 377.411C506.641 381.821 508.208 389.805 514.43 390.265C514.63 390.26 514.821 390.267 515 390.286C514.806 390.286 514.616 390.279 514.43 390.265C511.643 390.336 507.053 392.857 506.658 402.62Z" fill="#D4E7EB"/>
<path d="M772.647 171.067C772.63 169.974 772.653 168.943 772.708 168C772.708 169.057 772.687 170.079 772.647 171.067C772.806 181.756 776.726 198.476 792 198.476C785.659 199.102 773.064 205.717 772.715 227.087C772.716 227.4 772.714 227.704 772.708 228C772.708 227.693 772.71 227.388 772.715 227.087C772.684 217.286 769.182 199.543 755.275 198.522C754.827 198.534 754.401 198.517 754 198.476C754.434 198.476 754.859 198.492 755.275 198.522C761.504 198.364 771.764 192.762 772.647 171.067Z" fill="white"/>
<path d="M772.647 171.067C772.63 169.974 772.653 168.943 772.708 168C772.708 169.057 772.687 170.079 772.647 171.067C772.806 181.756 776.726 198.476 792 198.476C785.659 199.102 773.064 205.717 772.715 227.087C772.716 227.4 772.714 227.704 772.708 228C772.708 227.693 772.71 227.388 772.715 227.087C772.684 217.286 769.182 199.543 755.275 198.522C754.827 198.534 754.401 198.517 754 198.476C754.434 198.476 754.859 198.492 755.275 198.522C761.504 198.364 771.764 192.762 772.647 171.067Z" fill="white"/>
<path d="M772.647 171.067C772.63 169.974 772.653 168.943 772.708 168C772.708 169.057 772.687 170.079 772.647 171.067C772.806 181.756 776.726 198.476 792 198.476C785.659 199.102 773.064 205.717 772.715 227.087C772.716 227.4 772.714 227.704 772.708 228C772.708 227.693 772.71 227.388 772.715 227.087C772.684 217.286 769.182 199.543 755.275 198.522C754.827 198.534 754.401 198.517 754 198.476C754.434 198.476 754.859 198.492 755.275 198.522C761.504 198.364 771.764 192.762 772.647 171.067Z" fill="white"/>
<path d="M772.647 171.067C772.63 169.974 772.653 168.943 772.708 168C772.708 169.057 772.687 170.079 772.647 171.067C772.806 181.756 776.726 198.476 792 198.476C785.659 199.102 773.064 205.717 772.715 227.087C772.716 227.4 772.714 227.704 772.708 228C772.708 227.693 772.71 227.388 772.715 227.087C772.684 217.286 769.182 199.543 755.275 198.522C754.827 198.534 754.401 198.517 754 198.476C754.434 198.476 754.859 198.492 755.275 198.522C761.504 198.364 771.764 192.762 772.647 171.067Z" fill="#D4E7EB"/>
<path d="M861.844 -7.99428C855.614 -8.77299 769.588 70.0933 729.138 111.733L769.047 146.45C802.143 94.4281 868.074 -7.21556 861.844 -7.99428Z" fill="url(#paint3_linear_232_763)" fill-opacity="0.35"/>
<g filter="url(#filter3_i_232_763)">
<circle cx="748.606" cy="129.903" r="26.606" fill="#596B9A"/>
</g>
<path d="M546.844 140.006C540.614 139.227 454.588 218.093 414.138 259.733L454.047 294.45C487.143 242.428 553.074 140.784 546.844 140.006Z" fill="url(#paint4_linear_232_763)" fill-opacity="0.35"/>
<g filter="url(#filter4_i_232_763)">
<circle cx="433.606" cy="277.903" r="26.606" fill="#596B9A"/>
</g>
<path d="M1044.84 513.006C1038.61 512.227 952.588 591.093 912.138 632.733L952.047 667.45C985.143 615.428 1051.07 513.784 1044.84 513.006Z" fill="url(#paint5_linear_232_763)" fill-opacity="0.35"/>
<defs>
<filter id="filter0_i_232_763" x="929.528" y="152.302" width="235.292" height="235.292" filterUnits="userSpaceOnUse" color-interpolation-filters="sRGB">
<feFlood flood-opacity="0" result="BackgroundImageFix"/>
<feBlend mode="normal" in="SourceGraphic" in2="BackgroundImageFix" result="shape"/>
<feColorMatrix in="SourceAlpha" type="matrix" values="0 0 0 0 0 0 0 0 0 0 0 0 0 0 0 0 0 0 127 0" result="hardAlpha"/>
<feOffset dx="-24" dy="-55"/>
<feComposite in2="hardAlpha" operator="arithmetic" k2="-1" k3="1"/>
<feColorMatrix type="matrix" values="0 0 0 0 0.480924 0 0 0 0 0.143229 0 0 0 0 0.520833 0 0 0 1 0"/>
<feBlend mode="normal" in2="shape" result="effect1_innerShadow_232_763"/>
</filter>
<filter id="filter1_i_232_763" x="112" y="33.2968" width="53.212" height="53.212" filterUnits="userSpaceOnUse" color-interpolation-filters="sRGB">
<feFlood flood-opacity="0" result="BackgroundImageFix"/>
<feBlend mode="normal" in="SourceGraphic" in2="BackgroundImageFix" result="shape"/>
<feColorMatrix in="SourceAlpha" type="matrix" values="0 0 0 0 0 0 0 0 0 0 0 0 0 0 0 0 0 0 127 0" result="hardAlpha"/>
<feOffset dx="19" dy="-11"/>
<feComposite in2="hardAlpha" operator="arithmetic" k2="-1" k3="1"/>
<feColorMatrix type="matrix" values="0 0 0 0 0.199062 0 0 0 0 0.257014 0 0 0 0 0.408333 0 0 0 1 0"/>
<feBlend mode="normal" in2="shape" result="effect1_innerShadow_232_763"/>
</filter>
<filter id="filter2_i_232_763" x="314" y="493.297" width="53.212" height="53.212" filterUnits="userSpaceOnUse" color-interpolation-filters="sRGB">
<feFlood flood-opacity="0" result="BackgroundImageFix"/>
<feBlend mode="normal" in="SourceGraphic" in2="BackgroundImageFix" result="shape"/>
<feColorMatrix in="SourceAlpha" type="matrix" values="0 0 0 0 0 0 0 0 0 0 0 0 0 0 0 0 0 0 127 0" result="hardAlpha"/>
<feOffset dx="19" dy="-11"/>
<feComposite in2="hardAlpha" operator="arithmetic" k2="-1" k3="1"/>
<feColorMatrix type="matrix" values="0 0 0 0 0.199062 0 0 0 0 0.257014 0 0 0 0 0.408333 0 0 0 1 0"/>
<feBlend mode="normal" in2="shape" result="effect1_innerShadow_232_763"/>
</filter>
<filter id="filter3_i_232_763" x="722" y="103.297" width="53.212" height="53.212" filterUnits="userSpaceOnUse" color-interpolation-filters="sRGB">
<feFlood flood-opacity="0" result="BackgroundImageFix"/>
<feBlend mode="normal" in="SourceGraphic" in2="BackgroundImageFix" result="shape"/>
<feColorMatrix in="SourceAlpha" type="matrix" values="0 0 0 0 0 0 0 0 0 0 0 0 0 0 0 0 0 0 127 0" result="hardAlpha"/>
<feOffset dx="19" dy="-11"/>
<feComposite in2="hardAlpha" operator="arithmetic" k2="-1" k3="1"/>
<feColorMatrix type="matrix" values="0 0 0 0 0.199062 0 0 0 0 0.257014 0 0 0 0 0.408333 0 0 0 1 0"/>
<feBlend mode="normal" in2="shape" result="effect1_innerShadow_232_763"/>
</filter>
<filter id="filter4_i_232_763" x="407" y="251.297" width="53.212" height="53.212" filterUnits="userSpaceOnUse" color-interpolation-filters="sRGB">
<feFlood flood-opacity="0" result="BackgroundImageFix"/>
<feBlend mode="normal" in="SourceGraphic" in2="BackgroundImageFix" result="shape"/>
<feColorMatrix in="SourceAlpha" type="matrix" values="0 0 0 0 0 0 0 0 0 0 0 0 0 0 0 0 0 0 127 0" result="hardAlpha"/>
<feOffset dx="19" dy="-11"/>
<feComposite in2="hardAlpha" operator="arithmetic" k2="-1" k3="1"/>
<feColorMatrix type="matrix" values="0 0 0 0 0.199062 0 0 0 0 0.257014 0 0 0 0 0.408333 0 0 0 1 0"/>
<feBlend mode="normal" in2="shape" result="effect1_innerShadow_232_763"/>
</filter>
<linearGradient id="paint0_linear_232_763" x1="949.139" y1="283.326" x2="938.461" y2="298.715" gradientUnits="userSpaceOnUse">
<stop stop-color="#C457D0"/>
<stop offset="0.495" stop-color="#A03EAB"/>
<stop offset="1" stop-color="#7B2585"/>
</linearGradient>
<linearGradient id="paint1_linear_232_763" x1="156.776" y1="31.9932" x2="266.445" y2="-113.367" gradientUnits="userSpaceOnUse">
<stop stop-color="#9FC7F8"/>
<stop offset="1" stop-color="#1C1032"/>
</linearGradient>
<linearGradient id="paint2_linear_232_763" x1="358.776" y1="491.993" x2="468.445" y2="346.633" gradientUnits="userSpaceOnUse">
<stop stop-color="#9FC7F8"/>
<stop offset="1" stop-color="#1C1032"/>
</linearGradient>
<linearGradient id="paint3_linear_232_763" x1="766.776" y1="101.993" x2="876.445" y2="-43.3665" gradientUnits="userSpaceOnUse">
<stop stop-color="#9FC7F8"/>
<stop offset="1" stop-color="#1C1032"/>
</linearGradient>
<linearGradient id="paint4_linear_232_763" x1="451.776" y1="249.993" x2="561.445" y2="104.633" gradientUnits="userSpaceOnUse">
<stop stop-color="#9FC7F8"/>
<stop offset="1" stop-color="#1C1032"/>
</linearGradient>
<linearGradient id="paint5_linear_232_763" x1="949.776" y1="622.993" x2="1059.44" y2="477.633" gradientUnits="userSpaceOnUse">
<stop stop-color="#9FC7F8"/>
<stop offset="1" stop-color="#1C1032"/>
</linearGradient>
</defs>
</svg>
