<svg width="568" height="601" viewBox="0 0 568 601" fill="none" xmlns="http://www.w3.org/2000/svg">
<rect width="568" height="601" fill="#2E1C51"/>
<path d="M-76.3567 544.909C-169.025 522.038 -161.642 404.589 -146.367 348.723L-5.28643 265.227C-28.8583 310.114 -59.5836 411.826 6.08998 459.58C88.182 519.272 188.118 338.474 282.238 474.297C357.534 582.955 207.584 485.143 236.791 694.934C123.03 434.788 39.4789 573.499 -76.3567 544.909Z" fill="#1C1032"/>
<path d="M-92.8049 157.97C-157.653 210.459 -107.257 69.1551 -82.3966 20.2591L28.293 -85.3351C1.2924 -42.9413 -45.7815 46.8833 -18.0727 67.0313C16.5632 92.2164 100.083 -72.9793 121.265 9.80773C127.464 34.0361 36.0992 177.055 0.742366 185.565C-11.4198 188.492 98.1524 3.40452 -92.8049 157.97Z" fill="#1C1032"/>
<path d="M449.676 167C366.267 120.594 488.009 -11.5 542.176 -32L692.676 33C642.509 40.3333 542.176 75.3 542.176 156.5C542.176 258 747.176 232.5 692.676 388.5C649.076 513.3 566.113 624.237 512.5 508.5C481 440.5 637.5 271.5 449.676 167Z" fill="#1C1032"/>
<path d="M577.844 -57.9943C571.614 -58.773 485.588 20.0933 445.138 61.7328L485.047 96.4505C518.142 44.4281 584.074 -57.2156 577.844 -57.9943Z" fill="url(#paint0_linear_231_2)" fill-opacity="0.35"/>
<g filter="url(#filter0_i_231_2)">
<circle cx="464.606" cy="79.9028" r="26.606" fill="#596B9A"/>
</g>
<path d="M94.8438 256.006C88.6141 255.227 2.588 334.093 -37.8618 375.733L2.04723 410.45C35.1425 358.428 101.074 256.784 94.8438 256.006Z" fill="url(#paint1_linear_231_2)" fill-opacity="0.35"/>
<g filter="url(#filter1_i_231_2)">
<circle cx="-18.394" cy="393.903" r="26.606" fill="#596B9A"/>
</g>
<path d="M527.844 504.006C521.614 503.227 435.588 582.093 395.138 623.733L435.047 658.45C468.142 606.428 534.074 504.784 527.844 504.006Z" fill="url(#paint2_linear_231_2)" fill-opacity="0.35"/>
<path d="M527.063 396.965C527.043 395.908 527.071 394.912 527.138 394C527.138 395.021 527.113 396.009 527.063 396.965C527.26 407.297 532.108 423.46 551 423.46C543.157 424.066 527.58 430.46 527.148 451.117C527.149 451.419 527.146 451.714 527.138 452C527.138 451.703 527.141 451.409 527.148 451.117C527.109 441.643 522.778 424.492 505.576 423.505C505.023 423.516 504.496 423.5 504 423.46C504.537 423.46 505.062 423.475 505.576 423.505C513.281 423.352 525.971 417.936 527.063 396.965Z" fill="white"/>
<path d="M527.063 396.965C527.043 395.908 527.071 394.912 527.138 394C527.138 395.021 527.113 396.009 527.063 396.965C527.26 407.297 532.108 423.46 551 423.46C543.157 424.066 527.58 430.46 527.148 451.117C527.149 451.419 527.146 451.714 527.138 452C527.138 451.703 527.141 451.409 527.148 451.117C527.109 441.643 522.778 424.492 505.576 423.505C505.023 423.516 504.496 423.5 504 423.46C504.537 423.46 505.062 423.475 505.576 423.505C513.281 423.352 525.971 417.936 527.063 396.965Z" fill="white"/>
<path d="M527.063 396.965C527.043 395.908 527.071 394.912 527.138 394C527.138 395.021 527.113 396.009 527.063 396.965C527.26 407.297 532.108 423.46 551 423.46C543.157 424.066 527.58 430.46 527.148 451.117C527.149 451.419 527.146 451.714 527.138 452C527.138 451.703 527.141 451.409 527.148 451.117C527.109 441.643 522.778 424.492 505.576 423.505C505.023 423.516 504.496 423.5 504 423.46C504.537 423.46 505.062 423.475 505.576 423.505C513.281 423.352 525.971 417.936 527.063 396.965Z" fill="white"/>
<path d="M527.063 396.965C527.043 395.908 527.071 394.912 527.138 394C527.138 395.021 527.113 396.009 527.063 396.965C527.26 407.297 532.108 423.46 551 423.46C543.157 424.066 527.58 430.46 527.148 451.117C527.149 451.419 527.146 451.714 527.138 452C527.138 451.703 527.141 451.409 527.148 451.117C527.109 441.643 522.778 424.492 505.576 423.505C505.023 423.516 504.496 423.5 504 423.46C504.537 423.46 505.062 423.475 505.576 423.505C513.281 423.352 525.971 417.936 527.063 396.965Z" fill="#D4E7EB"/>
<path d="M46.6653 152.249C46.6498 151.447 46.6717 150.692 46.7231 150C46.7231 150.775 46.7034 151.524 46.6653 152.249C46.8166 160.088 50.5299 172.349 65 172.349C58.9924 172.808 47.0609 177.659 46.7301 193.33C46.731 193.56 46.7286 193.783 46.7231 194C46.7231 193.775 46.7254 193.551 46.7301 193.33C46.7008 186.143 43.3832 173.132 30.2075 172.383C29.7837 172.391 29.3797 172.379 29 172.349C29.4114 172.349 29.8138 172.361 30.2075 172.383C36.1086 172.267 45.8292 168.159 46.6653 152.249Z" fill="white"/>
<path d="M46.6653 152.249C46.6498 151.447 46.6717 150.692 46.7231 150C46.7231 150.775 46.7034 151.524 46.6653 152.249C46.8166 160.088 50.5299 172.349 65 172.349C58.9924 172.808 47.0609 177.659 46.7301 193.33C46.731 193.56 46.7286 193.783 46.7231 194C46.7231 193.775 46.7254 193.551 46.7301 193.33C46.7008 186.143 43.3832 173.132 30.2075 172.383C29.7837 172.391 29.3797 172.379 29 172.349C29.4114 172.349 29.8138 172.361 30.2075 172.383C36.1086 172.267 45.8292 168.159 46.6653 152.249Z" fill="white"/>
<path d="M46.6653 152.249C46.6498 151.447 46.6717 150.692 46.7231 150C46.7231 150.775 46.7034 151.524 46.6653 152.249C46.8166 160.088 50.5299 172.349 65 172.349C58.9924 172.808 47.0609 177.659 46.7301 193.33C46.731 193.56 46.7286 193.783 46.7231 194C46.7231 193.775 46.7254 193.551 46.7301 193.33C46.7008 186.143 43.3832 173.132 30.2075 172.383C29.7837 172.391 29.3797 172.379 29 172.349C29.4114 172.349 29.8138 172.361 30.2075 172.383C36.1086 172.267 45.8292 168.159 46.6653 152.249Z" fill="white"/>
<path d="M46.6653 152.249C46.6498 151.447 46.6717 150.692 46.7231 150C46.7231 150.775 46.7034 151.524 46.6653 152.249C46.8166 160.088 50.5299 172.349 65 172.349C58.9924 172.808 47.0609 177.659 46.7301 193.33C46.731 193.56 46.7286 193.783 46.7231 194C46.7231 193.775 46.7254 193.551 46.7301 193.33C46.7008 186.143 43.3832 173.132 30.2075 172.383C29.7837 172.391 29.3797 172.379 29 172.349C29.4114 172.349 29.8138 172.361 30.2075 172.383C36.1086 172.267 45.8292 168.159 46.6653 152.249Z" fill="#D4E7EB"/>
<path d="M58.7769 125.329C58.7666 124.855 58.7811 124.409 58.8154 124C58.8154 124.458 58.8023 124.901 58.7769 125.329C58.8777 129.961 61.3533 137.206 71 137.206C66.995 137.478 59.0406 140.344 58.8201 149.604C58.8207 149.74 58.8191 149.872 58.8154 150C58.8154 149.867 58.817 149.735 58.8201 149.604C58.8005 145.357 56.5888 137.669 47.805 137.226C47.5225 137.231 47.2531 137.224 47 137.206C47.2743 137.206 47.5426 137.213 47.805 137.226C51.7391 137.158 58.2194 134.73 58.7769 125.329Z" fill="white"/>
<path d="M58.7769 125.329C58.7666 124.855 58.7811 124.409 58.8154 124C58.8154 124.458 58.8023 124.901 58.7769 125.329C58.8777 129.961 61.3533 137.206 71 137.206C66.995 137.478 59.0406 140.344 58.8201 149.604C58.8207 149.74 58.8191 149.872 58.8154 150C58.8154 149.867 58.817 149.735 58.8201 149.604C58.8005 145.357 56.5888 137.669 47.805 137.226C47.5225 137.231 47.2531 137.224 47 137.206C47.2743 137.206 47.5426 137.213 47.805 137.226C51.7391 137.158 58.2194 134.73 58.7769 125.329Z" fill="white"/>
<path d="M58.7769 125.329C58.7666 124.855 58.7811 124.409 58.8154 124C58.8154 124.458 58.8023 124.901 58.7769 125.329C58.8777 129.961 61.3533 137.206 71 137.206C66.995 137.478 59.0406 140.344 58.8201 149.604C58.8207 149.74 58.8191 149.872 58.8154 150C58.8154 149.867 58.817 149.735 58.8201 149.604C58.8005 145.357 56.5888 137.669 47.805 137.226C47.5225 137.231 47.2531 137.224 47 137.206C47.2743 137.206 47.5426 137.213 47.805 137.226C51.7391 137.158 58.2194 134.73 58.7769 125.329Z" fill="white"/>
<path d="M58.7769 125.329C58.7666 124.855 58.7811 124.409 58.8154 124C58.8154 124.458 58.8023 124.901 58.7769 125.329C58.8777 129.961 61.3533 137.206 71 137.206C66.995 137.478 59.0406 140.344 58.8201 149.604C58.8207 149.74 58.8191 149.872 58.8154 150C58.8154 149.867 58.817 149.735 58.8201 149.604C58.8005 145.357 56.5888 137.669 47.805 137.226C47.5225 137.231 47.2531 137.224 47 137.206C47.2743 137.206 47.5426 137.213 47.805 137.226C51.7391 137.158 58.2194 134.73 58.7769 125.329Z" fill="#D4E7EB"/>
<path d="M498.758 453.636C498.747 453.053 498.763 452.503 498.8 452C498.8 452.563 498.786 453.109 498.758 453.636C498.867 459.336 501.549 468.254 512 468.254C507.661 468.588 499.044 472.116 498.805 483.513C498.806 483.68 498.804 483.842 498.8 484C498.8 483.836 498.802 483.674 498.805 483.513C498.784 478.286 496.388 468.823 486.872 468.279C486.566 468.285 486.274 468.276 486 468.254C486.297 468.254 486.588 468.262 486.872 468.279C491.134 468.194 498.154 465.206 498.758 453.636Z" fill="white"/>
<path d="M498.758 453.636C498.747 453.053 498.763 452.503 498.8 452C498.8 452.563 498.786 453.109 498.758 453.636C498.867 459.336 501.549 468.254 512 468.254C507.661 468.588 499.044 472.116 498.805 483.513C498.806 483.68 498.804 483.842 498.8 484C498.8 483.836 498.802 483.674 498.805 483.513C498.784 478.286 496.388 468.823 486.872 468.279C486.566 468.285 486.274 468.276 486 468.254C486.297 468.254 486.588 468.262 486.872 468.279C491.134 468.194 498.154 465.206 498.758 453.636Z" fill="white"/>
<path d="M498.758 453.636C498.747 453.053 498.763 452.503 498.8 452C498.8 452.563 498.786 453.109 498.758 453.636C498.867 459.336 501.549 468.254 512 468.254C507.661 468.588 499.044 472.116 498.805 483.513C498.806 483.68 498.804 483.842 498.8 484C498.8 483.836 498.802 483.674 498.805 483.513C498.784 478.286 496.388 468.823 486.872 468.279C486.566 468.285 486.274 468.276 486 468.254C486.297 468.254 486.588 468.262 486.872 468.279C491.134 468.194 498.154 465.206 498.758 453.636Z" fill="white"/>
<path d="M498.758 453.636C498.747 453.053 498.763 452.503 498.8 452C498.8 452.563 498.786 453.109 498.758 453.636C498.867 459.336 501.549 468.254 512 468.254C507.661 468.588 499.044 472.116 498.805 483.513C498.806 483.68 498.804 483.842 498.8 484C498.8 483.836 498.802 483.674 498.805 483.513C498.784 478.286 496.388 468.823 486.872 468.279C486.566 468.285 486.274 468.276 486 468.254C486.297 468.254 486.588 468.262 486.872 468.279C491.134 468.194 498.154 465.206 498.758 453.636Z" fill="#D4E7EB"/>
<defs>
<filter id="filter0_i_231_2" x="438" y="53.2968" width="53.212" height="53.212" filterUnits="userSpaceOnUse" color-interpolation-filters="sRGB">
<feFlood flood-opacity="0" result="BackgroundImageFix"/>
<feBlend mode="normal" in="SourceGraphic" in2="BackgroundImageFix" result="shape"/>
<feColorMatrix in="SourceAlpha" type="matrix" values="0 0 0 0 0 0 0 0 0 0 0 0 0 0 0 0 0 0 127 0" result="hardAlpha"/>
<feOffset dx="19" dy="-11"/>
<feComposite in2="hardAlpha" operator="arithmetic" k2="-1" k3="1"/>
<feColorMatrix type="matrix" values="0 0 0 0 0.199062 0 0 0 0 0.257014 0 0 0 0 0.408333 0 0 0 1 0"/>
<feBlend mode="normal" in2="shape" result="effect1_innerShadow_231_2"/>
</filter>
<filter id="filter1_i_231_2" x="-45" y="367.297" width="53.212" height="53.212" filterUnits="userSpaceOnUse" color-interpolation-filters="sRGB">
<feFlood flood-opacity="0" result="BackgroundImageFix"/>
<feBlend mode="normal" in="SourceGraphic" in2="BackgroundImageFix" result="shape"/>
<feColorMatrix in="SourceAlpha" type="matrix" values="0 0 0 0 0 0 0 0 0 0 0 0 0 0 0 0 0 0 127 0" result="hardAlpha"/>
<feOffset dx="19" dy="-11"/>
<feComposite in2="hardAlpha" operator="arithmetic" k2="-1" k3="1"/>
<feColorMatrix type="matrix" values="0 0 0 0 0.199062 0 0 0 0 0.257014 0 0 0 0 0.408333 0 0 0 1 0"/>
<feBlend mode="normal" in2="shape" result="effect1_innerShadow_231_2"/>
</filter>
<linearGradient id="paint0_linear_231_2" x1="482.776" y1="51.9932" x2="592.445" y2="-93.3665" gradientUnits="userSpaceOnUse">
<stop stop-color="#9FC7F8"/>
<stop offset="1" stop-color="#1C1032"/>
</linearGradient>
<linearGradient id="paint1_linear_231_2" x1="-0.22401" y1="365.993" x2="109.445" y2="220.633" gradientUnits="userSpaceOnUse">
<stop stop-color="#9FC7F8"/>
<stop offset="1" stop-color="#1C1032"/>
</linearGradient>
<linearGradient id="paint2_linear_231_2" x1="432.776" y1="613.993" x2="542.445" y2="468.633" gradientUnits="userSpaceOnUse">
<stop stop-color="#9FC7F8"/>
<stop offset="1" stop-color="#1C1032"/>
</linearGradient>
</defs>
</svg>
