<svg width="1600" height="281" viewBox="0 0 1600 281" fill="none" xmlns="http://www.w3.org/2000/svg">
<path d="M150.039 83.7344V280.672H72.0547V83.7344H0V23H222.992V83.7344H150.039Z" fill="#9FC7F8"/>
<path d="M420.828 280.672V184.539H331.703V280.672H254.078V23H331.703V118.414H420.828V23H498.453V280.672H420.828Z" fill="#9FC7F8"/>
<path d="M549.484 280.672V23H709.945V83.7344H627.109V121.289H704.914V182.023H627.109V219.938H715.875V280.672H549.484Z" fill="#9FC7F8"/>
<path d="M854.953 280.672V23H1015.41V83.7344H932.578V121.289H1010.38V182.023H932.578V219.938H1021.34V280.672H854.953Z" fill="#9FC7F8"/>
<path d="M1238.05 280.672L1147.12 156.328C1139.94 146.505 1134.07 137.641 1129.52 129.734H1128.8C1129.52 142.432 1129.88 156.688 1129.88 172.5V280.672H1058V23H1131.31L1218.46 141.234C1219.54 142.792 1220.86 144.648 1222.41 146.805C1223.97 148.961 1225.53 151.177 1227.09 153.453C1228.64 155.729 1230.08 157.945 1231.4 160.102C1232.84 162.258 1233.91 164.174 1234.63 165.852H1235.35C1234.63 160.581 1234.27 151.477 1234.27 138.539V23H1306.15V280.672H1238.05Z" fill="#9FC7F8"/>
<path d="M1599.94 148.602C1599.94 174.716 1594.43 197.836 1583.41 217.961C1572.51 237.966 1556.87 253.419 1536.51 264.32C1516.14 275.221 1492.66 280.672 1466.07 280.672H1357V23H1463.73C1554.54 23 1599.94 64.8672 1599.94 148.602ZM1517.46 149.32C1517.46 136.742 1514.89 125.422 1509.73 115.359C1504.7 105.297 1497.46 97.5104 1487.99 92C1478.53 86.4896 1467.39 83.7344 1454.57 83.7344H1434.62V219.938H1456.37C1474.93 219.938 1489.73 213.589 1500.75 200.891C1511.89 188.073 1517.46 170.883 1517.46 149.32Z" fill="#9FC7F8"/>
<path d="M150.039 60.7344V257.672H72.0547V60.7344H0V0H222.992V60.7344H150.039Z" fill="white"/>
<path d="M420.828 257.672V161.539H331.703V257.672H254.078V0H331.703V95.4141H420.828V0H498.453V257.672H420.828Z" fill="white"/>
<path d="M549.484 257.672V0H709.945V60.7344H627.109V98.2891H704.914V159.023H627.109V196.938H715.875V257.672H549.484Z" fill="white"/>
<path d="M854.953 257.672V0H1015.41V60.7344H932.578V98.2891H1010.38V159.023H932.578V196.938H1021.34V257.672H854.953Z" fill="white"/>
<path d="M1238.05 257.672L1147.12 133.328C1139.94 123.505 1134.07 114.641 1129.52 106.734H1128.8C1129.52 119.432 1129.88 133.688 1129.88 149.5V257.672H1058V0H1131.31L1218.46 118.234C1219.54 119.792 1220.86 121.648 1222.41 123.805C1223.97 125.961 1225.53 128.177 1227.09 130.453C1228.64 132.729 1230.08 134.945 1231.4 137.102C1232.84 139.258 1233.91 141.174 1234.63 142.852H1235.35C1234.63 137.581 1234.27 128.477 1234.27 115.539V0H1306.15V257.672H1238.05Z" fill="white"/>
<path d="M1599.94 125.602C1599.94 151.716 1594.43 174.836 1583.41 194.961C1572.51 214.966 1556.87 230.419 1536.51 241.32C1516.14 252.221 1492.66 257.672 1466.07 257.672H1357V0H1463.73C1554.54 0 1599.94 41.8672 1599.94 125.602ZM1517.46 126.32C1517.46 113.742 1514.89 102.422 1509.73 92.3594C1504.7 82.2969 1497.46 74.5104 1487.99 69C1478.53 63.4896 1467.39 60.7344 1454.57 60.7344H1434.62V196.938H1456.37C1474.93 196.938 1489.73 190.589 1500.75 177.891C1511.89 165.073 1517.46 147.883 1517.46 126.32Z" fill="white"/>
</svg>
