<svg width="1920" height="1080" viewBox="0 0 1920 1080" fill="none" xmlns="http://www.w3.org/2000/svg">
<path fill-rule="evenodd" clip-rule="evenodd" d="M767 62.5C700.137 -182.665 211.539 -206.065 24.8565 -101.512C23.7927 -97.6259 22.7063 -93.6588 21.5985 -89.6133C17.3871 -74.2347 12.8656 -57.7234 8.0959 -40.2457C-21.7533 -36.1262 -51.5139 -32.2555 -73.5 -29.5L-50 134C-50.4586 117.949 -44.2344 93.5498 -23.2776 75.9182C-88.8056 321.733 -171.666 656.539 -167.874 801.794C-161.826 1033.51 100.659 1333.51 331.291 1490.34C561.923 1647.17 1851.77 1541.68 2035.63 1415.46C2168.88 1323.98 2188.61 1058.87 2213.94 718.696C2223.56 589.486 2233.99 449.449 2251.75 303.987C2299.12 -84.0261 1867.1 -102.329 1568.51 -114.979C1541.79 -116.111 1516.14 -117.198 1492 -118.5C1358.67 -27.6042 1223.79 179.347 1364.5 165C1398.17 161.567 1442.72 147.984 1490.82 133.316C1624.85 92.449 1786.49 43.1632 1817.5 181.537C1877.74 450.299 1767.5 443 1570.36 426.729C1448.73 416.689 1447.5 703.228 1612 703.228C1690.25 703.228 1728.29 681.342 1759.76 663.24C1808.77 635.045 1841.81 616.034 1985.95 703.228C2222.63 846.401 1854.97 1138.76 1694.5 924C1534.03 709.241 1157.05 897.399 1206.64 1095.2C1231.93 1196.06 1339.19 1165.66 1413.51 1144.6C1484.95 1124.35 1525.95 1112.73 1434.45 1234.61C1247.77 1483.28 663.933 1146.07 795.377 1095.2C926.821 1044.34 1183.26 672.279 628.854 894.103C74.4503 1115.93 117.996 876.677 275.649 750.93C361.588 682.383 299.198 651.063 228.901 615.773C170.241 586.324 106.075 554.112 117.996 495.198C130.357 434.114 174.992 434.164 225.737 434.221C282.584 434.286 347.1 434.359 382.5 348.5C386.804 338.062 390.891 328.095 394.794 318.574C453.981 174.225 471.033 132.639 562.5 112C590.523 105.677 633.482 132.683 674.174 158.264C749.873 205.852 817.73 248.51 767 62.5ZM-23.2776 75.9182C-6.15298 61.5107 20.8089 51.622 62 54.5C153.6 60.9 47 112 47 112C47 112 -57.3 166.5 -42.5 260.5C-24 378 165.5 374.5 257.5 361.5C349.5 348.5 401.5 259 369.5 211.5C354.951 189.903 203.704 112 260.5 221.5C288.5 280.5 246.633 304.071 186 278C36.7786 213.837 229 84 257.5 84C286 84 557 37.5 457 -53.5C357 -144.5 135.004 -67.5 126.5 -60.5C122.04 -56.8288 64.9077 -48.0865 8.0959 -40.2457C-1.52271 -4.99977 -12.1503 34.1762 -23.2776 75.9182Z" fill="url(#paint0_linear_138_866)"/>
<defs>
<linearGradient id="paint0_linear_138_866" x1="2632.5" y1="1569" x2="-294.5" y2="-98.0005" gradientUnits="userSpaceOnUse">
<stop offset="0.0376415" stop-color="#37215F"/>
<stop offset="1" stop-color="#1C1032"/>
</linearGradient>
</defs>
</svg>
