<svg width="1920" height="1080" viewBox="0 0 1920 1080" fill="none" xmlns="http://www.w3.org/2000/svg">
<path fill-rule="evenodd" clip-rule="evenodd" d="M830 3.8045C763.137 -241.36 80.5394 -256.761 -106.144 -152.207C-107.207 -148.321 -108.294 -144.354 -109.402 -140.309C-113.613 -124.93 -118.134 -108.419 -122.904 -90.9413C-152.753 -86.8217 -182.514 -82.951 -204.5 -80.1956L-181 83.3044C-181.459 67.2536 -175.234 42.8542 -154.278 25.2226C-219.806 271.038 -302.666 605.843 -298.874 751.099C-292.826 982.812 -30.3414 1282.81 200.291 1439.65C430.923 1596.48 1720.77 1490.98 1904.63 1364.76C2037.88 1273.29 2057.61 1008.17 2082.94 668C2092.56 538.791 2102.99 398.753 2120.75 253.291C2168.12 -134.722 1736.1 -153.025 1437.51 -165.674C1410.79 -166.806 1385.14 -167.893 1361 -169.195C1227.67 -78.2997 1092.79 128.651 1233.5 114.304C1267.17 110.871 1311.72 97.288 1359.82 82.6205C1493.85 41.7534 1655.49 -7.53238 1686.5 130.841C1746.74 399.603 1636.5 392.305 1439.36 376.033C1317.73 365.994 1316.5 652.533 1481 652.533C1559.25 652.533 1597.29 630.646 1628.76 612.545C1677.77 584.35 1710.81 565.339 1854.95 652.533C2091.63 795.705 1723.97 1088.06 1563.5 873.304C1403.03 658.546 1026.05 846.704 1075.64 1044.51C1100.93 1145.36 1208.19 1114.97 1282.51 1093.9C1353.95 1073.66 1394.95 1062.04 1303.45 1183.91C1116.77 1432.58 532.933 1095.37 664.377 1044.51C795.821 993.644 1052.26 621.584 497.854 843.407C-56.5497 1065.23 -13.0037 825.982 144.649 700.235C230.588 631.688 168.198 600.367 97.9011 565.077C39.2408 535.629 -24.9253 503.416 -13.0037 444.502C-0.642853 383.418 43.9919 383.468 94.7368 383.526C151.584 383.59 216.1 383.663 251.5 297.805C255.804 287.367 259.891 277.399 263.794 267.879C322.981 123.529 340.033 81.9432 431.5 61.3044C459.523 54.9813 502.482 81.9872 543.174 107.568C618.873 155.157 880.73 189.814 830 3.8045ZM-154.278 25.2226C-137.153 10.8151 -110.191 0.926468 -69 3.80444C22.6 10.2044 -84 61.3044 -84 61.3044C-84 61.3044 -188.3 115.804 -173.5 209.804C-155 327.305 34.5 323.804 126.5 310.804C218.5 297.805 270.5 208.304 238.5 160.804C223.951 139.208 72.7041 61.3044 129.5 170.804C157.5 229.804 115.633 253.376 55 227.304C-94.2214 163.141 -22.5 -37.5 6 -37.5C34.5 -37.5 426 -13.1956 326 -104.196C226 -195.196 4.00369 -118.196 -4.5 -111.196C-8.95978 -107.524 -66.0923 -98.782 -122.904 -90.9413C-132.523 -55.6953 -143.15 -16.5194 -154.278 25.2226Z" fill="url(#paint0_linear_133_101)"/>
<defs>
<linearGradient id="paint0_linear_133_101" x1="2230.5" y1="802" x2="-2.99992" y2="-1227" gradientUnits="userSpaceOnUse">
<stop offset="0.0376415" stop-color="#37215F"/>
<stop offset="1" stop-color="#1C1032"/>
</linearGradient>
</defs>
</svg>
