<svg width="1920" height="1080" viewBox="0 0 1920 1080" fill="none" xmlns="http://www.w3.org/2000/svg">
<path fill-rule="evenodd" clip-rule="evenodd" d="M920 -3.1955C853.137 -248.36 364.539 -271.761 177.856 -167.207C176.793 -163.321 175.706 -159.354 174.598 -155.309C170.387 -139.93 165.866 -123.419 161.096 -105.941C131.247 -101.822 101.486 -97.951 79.5 -95.1955L103 68.3045C102.541 52.2537 108.766 27.8543 129.722 10.2227C64.1944 256.038 -18.6659 590.843 -14.8745 736.099C-8.82643 967.812 253.659 1267.81 484.291 1424.65C714.923 1581.48 2004.77 1475.98 2188.63 1349.76C2321.88 1258.29 2341.61 993.17 2366.94 653C2376.56 523.791 2386.99 383.753 2404.75 238.291C2452.12 -149.722 2020.1 -168.025 1721.51 -180.674C1694.79 -181.806 1669.14 -182.893 1645 -184.195C1511.67 -93.2997 1376.79 113.651 1517.5 99.3045C1551.17 95.8711 1595.72 82.288 1643.82 67.6206C1777.85 26.7535 1939.49 -22.5323 1970.5 115.841C2030.74 384.603 1920.5 377.305 1723.36 361.033C1601.73 350.994 1600.5 637.533 1765 637.533C1843.25 637.533 1881.29 615.646 1912.76 597.545C1961.77 569.35 1994.81 550.339 2138.95 637.533C2375.63 780.706 2007.97 1073.06 1847.5 858.304C1687.03 643.546 1310.05 831.704 1359.64 1029.51C1384.93 1130.36 1492.19 1099.97 1566.51 1078.9C1637.95 1058.66 1678.95 1047.04 1587.45 1168.91C1400.77 1417.58 816.933 1080.37 948.377 1029.51C1079.82 978.644 1336.26 606.584 781.854 828.407C227.45 1050.23 270.996 810.982 428.649 685.235C514.588 616.688 452.198 585.367 381.901 550.077C323.241 520.629 259.075 488.416 270.996 429.502C283.357 368.418 327.992 368.469 378.737 368.526C435.584 368.59 500.1 368.663 535.5 282.805C539.804 272.367 543.891 262.399 547.794 252.879C606.981 108.529 624.033 66.9433 715.5 46.3045C743.523 39.9814 786.482 66.9872 827.174 92.5684C902.873 140.157 970.73 182.814 920 -3.1955ZM129.722 10.2227C146.847 -4.18484 173.809 -14.0735 215 -11.1955C306.6 -4.7955 200 46.3045 200 46.3045C200 46.3045 95.7 100.804 110.5 194.805C129 312.305 318.5 308.804 410.5 295.805C502.5 282.805 554.5 193.305 522.5 145.805C507.951 124.208 356.704 46.3045 413.5 155.805C441.5 214.805 399.633 238.376 339 212.305C189.779 148.141 382 18.3045 410.5 18.3045C439 18.3045 710 -28.1955 610 -119.195C510 -210.195 288.004 -133.195 279.5 -126.195C275.04 -122.524 217.908 -113.782 161.096 -105.941C151.477 -70.6953 140.85 -31.5193 129.722 10.2227Z" fill="url(#paint0_linear_258_131)"/>
<defs>
<linearGradient id="paint0_linear_258_131" x1="2785.5" y1="1503.3" x2="-141.5" y2="-163.696" gradientUnits="userSpaceOnUse">
<stop offset="0.0376415" stop-color="#37215F"/>
<stop offset="1" stop-color="#1C1032"/>
</linearGradient>
</defs>
</svg>
