<svg width="80" height="51" viewBox="0 0 80 51" fill="none" xmlns="http://www.w3.org/2000/svg">
<path d="M0.793766 46.2902C-1.31249 42.3718 0.812207 36.4503 6.70046 29.8286C8.76844 27.503 11.2411 25.1579 14.0312 22.858C19.1853 18.6092 25.4225 14.5145 32.1917 10.981C38.8927 7.48317 45.7627 4.71943 52.1696 2.9035C55.7381 1.89205 59.163 1.17464 62.335 0.788204C71.202 -0.292027 77.0548 0.789238 79.161 4.70769L68.5658 10.9143C67.2244 8.41883 63.6056 7.22749 58.38 7.51369C58.1597 7.52576 57.9366 7.54045 57.7107 7.55777C57.2137 7.59589 56.7031 7.64678 56.1794 7.71057C55.6923 7.76991 55.197 7.84005 54.6942 7.92074C48.5813 8.90156 41.3611 11.4404 34.3935 15.0774C27.3536 18.7521 21.11 23.2669 16.8488 27.7445C16.5457 28.0631 16.2526 28.3815 15.9699 28.6993C15.8595 28.8235 15.751 28.9473 15.6442 29.0707C15.2673 29.5067 14.9133 29.9383 14.5824 30.3646C14.5608 30.3924 14.5394 30.4202 14.518 30.4479C11.3815 34.5204 10.3667 38.1147 11.7009 40.5969L0.793766 46.2902Z" fill="#9FC7F8"/>
<path fill-rule="evenodd" clip-rule="evenodd" d="M14.0312 22.858C13.8276 23.0258 13.6257 23.1939 13.4255 23.3622C10.8824 25.5001 8.61754 27.6727 6.70046 29.8286C1.30032 35.9014 -0.934372 41.3852 0.35692 45.2752C0.473636 45.6268 0.619165 45.9654 0.793766 46.2902L11.7009 40.5969C10.3667 38.1147 11.3815 34.5204 14.518 30.4479C14.5394 30.4202 14.5608 30.3924 14.5824 30.3646C14.7178 30.1901 14.8572 30.0147 15.0004 29.8384C15.207 29.5842 15.4216 29.3282 15.6442 29.0707C15.751 28.9473 15.8595 28.8235 15.9699 28.6993C16.2526 28.3815 16.5457 28.0631 16.8488 27.7445C21.11 23.2669 27.3536 18.7521 34.3935 15.0774C41.3611 11.4404 48.5813 8.90156 54.6942 7.92074C55.197 7.84005 55.6923 7.76991 56.1794 7.71057C56.683 7.64923 57.1744 7.59982 57.6533 7.56222C57.6725 7.56072 57.6916 7.55924 57.7107 7.55777C57.9366 7.54045 58.1597 7.52576 58.38 7.51369C63.3251 7.24286 66.8312 8.29518 68.3301 10.5237C68.4152 10.6501 68.4937 10.7803 68.5658 10.9143L79.161 4.70769C79.0614 4.52225 78.9533 4.34316 78.8369 4.17036C78.7479 4.03814 78.6539 3.9096 78.5552 3.7847C76.0559 0.623674 70.4612 -0.20179 62.335 0.788204C59.4052 1.14513 56.2596 1.78442 52.9844 2.67697C52.7137 2.75075 52.4421 2.82627 52.1696 2.9035C45.7627 4.71943 38.8927 7.48317 32.1917 10.981C25.4225 14.5145 19.1853 18.6092 14.0312 22.858ZM52.8502 3.8545C52.7262 3.88902 52.6021 3.92391 52.4777 3.95916C46.1523 5.75201 39.3537 8.48563 32.7134 11.9517C26.0056 15.4531 19.8347 19.5061 14.7464 23.7005C14.6666 23.7663 14.587 23.8321 14.5078 23.898C14.472 24.5587 14.4566 25.3693 14.4901 26.228C14.5191 26.9706 14.5844 27.7377 14.7011 28.4683C14.8416 28.3044 14.9851 28.1401 15.1316 27.9754C19.5003 23.0624 26.2475 18.0864 33.8718 14.1067C41.496 10.1269 49.4639 7.42188 56.0427 6.62041C56.2265 6.59801 56.409 6.57713 56.5901 6.55778C55.1316 5.26053 53.7771 4.36993 52.8502 3.8545ZM54.3323 3.457C55.403 4.14043 56.7254 5.1254 58.0806 6.43084C58.1601 6.42588 58.2393 6.42124 58.3181 6.41692C61.0186 6.26903 63.3825 6.49695 65.286 7.1301C66.7763 7.62584 68.0253 8.38603 68.9018 9.43956L77.5873 4.35168C76.647 3.22703 75.1655 2.4141 73.0399 1.94539C70.3848 1.35994 66.85 1.34497 62.4718 1.87837C59.9167 2.18964 57.1837 2.72173 54.3323 3.457ZM13.7841 29.5856C13.5345 28.5153 13.4183 27.3462 13.3763 26.2702C13.3573 25.7837 13.3533 25.3116 13.3597 24.8703C11.1717 26.7601 9.21582 28.6666 7.53881 30.5525C4.65018 33.801 2.74092 36.8173 1.8001 39.4393C1.04827 41.5346 0.936172 43.3084 1.35994 44.7516L10.2889 40.0909C9.87981 38.7693 9.94057 37.3037 10.369 35.7887C10.9094 33.8781 12.0502 31.8194 13.6969 29.6973C13.7258 29.6601 13.7549 29.6228 13.7841 29.5856Z" fill="#9FC7F8"/>
<path d="M79.186 4.68376C81.3163 8.58956 79.2262 14.5246 73.3754 21.1831C67.5246 27.8417 58.3925 34.6784 47.988 40.1893C37.5834 45.7001 26.7587 49.4337 17.8953 50.5686C9.03177 51.7036 2.85551 50.1469 0.725184 46.2411L11.6021 40.4801C12.9664 42.9816 16.627 44.1498 21.9004 43.8127C22.578 43.7693 23.2822 43.7012 24.0116 43.6078C24.5017 43.545 25.0001 43.4713 25.5061 43.3868C31.613 42.3671 38.8164 39.7844 45.7609 36.1062C53.2808 32.1232 59.8809 27.182 64.1095 22.3696C64.2179 22.2463 64.3244 22.1234 64.4291 22.0008C64.7563 21.618 65.066 21.2387 65.358 20.8634C68.6232 16.6674 69.6862 12.9695 68.3091 10.4448L79.186 4.68376Z" fill="#9FC7F8"/>
<path fill-rule="evenodd" clip-rule="evenodd" d="M78.2205 11.541C78.9601 9.44087 79.0617 7.66638 78.6292 6.22572L69.7243 10.9423C70.2123 12.4844 70.058 14.2252 69.4255 16.0212C68.6497 18.2243 67.1216 20.6197 64.9522 23.0886C60.6114 28.0288 53.8917 33.0467 46.2887 37.0737C38.6857 41.1007 30.7313 43.855 24.1553 44.6971C20.8688 45.1179 17.9983 45.0521 15.7058 44.4743C13.8367 44.0032 12.2783 43.1696 11.2423 41.9177L2.3374 46.6342C3.3181 47.7845 4.87597 48.6801 7.06148 49.2309C9.7964 49.9202 13.4033 50.0361 17.7516 49.4793C26.4451 48.3661 37.1389 44.6885 47.4602 39.2217C57.7816 33.7549 66.7942 26.9949 72.5327 20.4641C75.403 17.1975 77.295 14.1691 78.2205 11.541ZM1.3376 47.1638C1.10618 46.8725 0.901779 46.5649 0.725184 46.2411L11.6021 40.4801C12.9664 42.9816 16.627 44.1498 21.9004 43.8127C22.578 43.7693 23.2822 43.7012 24.0116 43.6078C24.5017 43.545 25.0001 43.4713 25.5061 43.3868C31.613 42.3671 38.8164 39.7844 45.7609 36.1062C53.2808 32.1232 59.8809 27.182 64.1095 22.3696C64.2179 22.2463 64.3244 22.1234 64.4291 22.0008C64.7563 21.618 65.066 21.2387 65.358 20.8634C68.6232 16.6674 69.6862 12.9695 68.3091 10.4448L79.186 4.68376C79.3626 5.00754 79.5102 5.34525 79.629 5.69617C80.9439 9.57851 78.7412 15.0765 73.3754 21.1831C67.5246 27.8417 58.3925 34.6784 47.988 40.1893C37.5834 45.7001 26.7587 49.4337 17.8953 50.5686C9.76651 51.6095 3.89795 50.3865 1.3376 47.1638Z" fill="#9FC7F8"/>
<path d="M2.40654 46.6846C1.92882 46.1354 1.45109 45.2723 1.29185 44.4877L10.289 40.0938C10.289 40.0938 10.5071 40.6671 10.6871 41.0354C10.8869 41.4442 11.4833 42.2123 11.4833 42.2123L2.40654 46.6846Z" fill="#9FC7F8"/>
<path d="M77.489 4.23692C77.9667 4.78615 78.5241 5.64923 78.6833 6.43385L69.7658 11.0631C69.7658 11.0631 69.4655 10.3115 69.2084 9.88615C68.9375 9.43783 68.4122 8.86615 68.4122 8.86615L77.489 4.23692Z" fill="#9FC7F8"/>
<path fill-rule="evenodd" clip-rule="evenodd" d="M39.908 51C54.1993 51 65.7847 39.5833 65.7847 25.5C65.7847 23.9166 65.6383 22.3669 65.358 20.8634C65.066 21.2387 64.7563 21.618 64.4291 22.0008L62.997 23.5819L62.7554 21.6839C62.6705 21.1865 62.5693 20.6946 62.4523 20.2086C61.3946 15.816 59.0491 11.9147 55.8305 8.91332C55.4629 8.57052 55.0839 8.23945 54.6942 7.92074C55.197 7.84005 55.6923 7.76991 56.1794 7.71057C56.683 7.64923 57.1744 7.59982 57.6533 7.56222L57.7107 7.55777C57.9366 7.54045 58.1597 7.52576 58.38 7.51369C53.6871 2.82145 47.1216 0 39.908 0C25.6166 0 14.0312 11.4167 14.0312 25.5C14.0312 27.1929 14.1986 28.8473 14.518 30.4479C14.5228 30.4718 14.5276 30.4957 14.5324 30.5196L14.518 30.4479L14.5824 30.3646C14.7178 30.1901 14.8572 30.0147 15.0004 29.8384C15.207 29.5842 15.4216 29.3282 15.6442 29.0707C15.751 28.9473 15.8595 28.8235 15.9699 28.6993C16.2526 28.3815 16.5457 28.0631 16.8488 27.7445C16.8976 28.2367 16.9621 28.7242 17.0421 29.2066C17.3369 30.9866 17.8407 32.6974 18.5276 34.3138C20.0484 37.8919 22.4671 41.0074 25.5061 43.3868C25.0001 43.4713 24.5017 43.545 24.0116 43.6078C23.2822 43.7012 22.578 43.7693 21.9004 43.8127C26.5585 48.2616 32.9087 51 39.908 51Z" fill="#9FC7F8"/>
</svg>
