<svg width="623" height="496" viewBox="0 0 623 496" fill="none" xmlns="http://www.w3.org/2000/svg">
<path d="M527.406 187.347C522.028 177.528 510.958 170.669 494.829 167.163C478.7 163.656 457.827 163.571 433.403 166.911C408.978 170.252 381.48 176.953 352.478 186.632C323.477 196.31 293.54 208.777 264.376 223.321C235.213 237.864 207.394 254.199 182.509 271.394C157.624 288.588 136.159 306.304 119.34 323.531C102.522 340.759 90.6785 357.159 84.4869 371.797C78.2954 386.434 77.8767 399.022 83.2549 408.841L129.141 385.958C124.874 378.168 125.206 368.181 130.118 356.568C135.031 344.955 144.427 331.943 157.77 318.275C171.114 304.608 188.143 290.552 207.887 276.911C227.63 263.269 249.701 250.309 272.838 238.771C295.976 227.232 319.727 217.341 342.737 209.662C365.746 201.983 387.562 196.667 406.94 194.017C426.318 191.367 442.878 191.434 455.674 194.216C468.471 196.998 477.253 202.44 481.52 210.23L527.406 187.347Z" fill="#863D83" fill-opacity="0.21"/>
<path fill-rule="evenodd" clip-rule="evenodd" d="M229.639 445.367C325.463 478.01 429.606 426.793 462.25 330.969C481.311 275.015 471.779 216.225 441.468 170.49C430.252 163.863 400.306 157.293 370.257 184.031C354.814 197.772 347.343 213.637 341.014 227.079C331.948 246.332 325.222 260.615 300.766 256.572C289.005 254.628 277.338 251.912 266.105 249.296C237.669 242.676 212.018 236.704 194.691 245.549C175.451 255.371 168.547 267.271 152.896 294.254C148.883 301.171 144.296 309.08 138.778 318.199C125.693 339.824 124.899 349.562 123.477 349.654C123.018 349.684 122.494 348.709 121.469 346.804C121.993 308.547 140.286 230.707 209.265 225.402C237.059 223.264 254.685 224.714 267.412 225.761C294.168 227.962 299.265 228.382 331.635 189.935C369.85 144.548 411.151 145.401 427.026 151.501C422.916 146.77 418.552 142.237 413.946 137.927C390.863 133.153 338.66 127.117 314.512 141.159C299.42 149.936 296.811 157.594 294.525 164.304C292.239 171.014 290.277 176.774 276.477 181.756C267.893 184.854 257.165 186.256 245.57 187.772C219.885 191.129 189.945 195.042 169.631 219.182C163.471 226.502 157.957 232.722 152.939 238.383C133.937 259.818 122.037 273.243 109.03 308.065C111.737 321.438 115.923 334.432 121.469 346.804C141.556 391.615 179.489 428.283 229.639 445.367ZM370.119 107.597C380.372 112.659 389.982 118.598 398.888 125.287C387.958 123.325 356.631 121.257 318.76 128.688C298.454 132.673 292.449 141.418 286.146 150.595C277.756 162.812 268.84 175.795 224.959 179.333C163.484 184.291 120.234 255.101 106.293 289.887C105.715 284.08 105.415 278.224 105.4 272.337C114.32 239.375 147.636 136.389 197.983 144.405C210.565 146.408 225.317 137.46 239.638 128.773C257.949 117.665 275.555 106.986 287.022 120.171C298.546 133.421 313.431 126.24 329.898 118.297C342.634 112.153 356.316 105.554 370.119 107.597Z" fill="#863D83" fill-opacity="0.21"/>
<path d="M370.119 107.597C363 104.081 355.57 100.987 347.851 98.3579C286.01 77.2907 220.702 91.1521 173.386 129.39C147.385 150.402 126.817 178.774 115.241 212.756C108.516 232.496 105.35 252.589 105.4 272.337C114.32 239.375 147.636 136.389 197.983 144.405C210.565 146.408 225.317 137.46 239.638 128.773C257.949 117.665 275.555 106.986 287.022 120.171C298.546 133.421 313.431 126.24 329.898 118.297C342.634 112.153 356.316 105.554 370.119 107.597Z" fill="#863D83" fill-opacity="0.21"/>
<path d="M224.959 179.333C163.484 184.291 120.234 255.101 106.293 289.887C106.901 296.008 107.817 302.075 109.03 308.065C122.037 273.243 133.937 259.818 152.939 238.383C157.957 232.722 163.471 226.502 169.631 219.182C189.945 195.042 219.885 191.129 245.57 187.772C257.165 186.256 267.893 184.854 276.477 181.756C290.277 176.774 292.239 171.014 294.525 164.304C296.811 157.594 299.42 149.936 314.512 141.159C338.66 127.117 390.863 133.153 413.946 137.927C409.181 133.468 404.158 129.246 398.888 125.287C387.958 123.325 356.631 121.257 318.76 128.688C298.454 132.673 292.449 141.418 286.146 150.595C277.756 162.812 268.84 175.795 224.959 179.333Z" fill="#863D83" fill-opacity="0.21"/>
<path d="M209.265 225.402C140.286 230.707 121.993 308.547 121.469 346.804C122.494 348.709 123.018 349.684 123.477 349.654C124.899 349.562 125.693 339.824 138.778 318.199C144.296 309.08 148.883 301.171 152.896 294.254C168.547 267.271 175.451 255.371 194.691 245.549C212.018 236.704 237.669 242.676 266.105 249.296C277.338 251.912 289.005 254.628 300.766 256.572C325.222 260.615 331.948 246.332 341.014 227.079C347.343 213.637 354.814 197.772 370.257 184.031C400.306 157.293 430.252 163.863 441.468 170.49C437.081 163.871 432.259 157.525 427.026 151.501C411.151 145.401 369.85 144.548 331.635 189.935C299.265 228.382 294.168 227.962 267.412 225.761C254.685 224.714 237.059 223.264 209.265 225.402Z" fill="#863D83" fill-opacity="0.21"/>
<path d="M111.173 302.421L107.223 297.142L107.828 301.584L108.79 306.753L111.173 302.421Z" fill="#863D83" fill-opacity="0.21"/>
<path fill-rule="evenodd" clip-rule="evenodd" d="M142.521 342.94C142.403 343.261 142.278 343.56 142.147 343.834C142.495 344.049 165.1 348.626 165.301 348.696C165.301 348.696 143.037 343.455 142.521 342.94Z" fill="#863D83" fill-opacity="0.21"/>
<path d="M195.727 280.697C148.118 292.557 155.606 330.971 165.301 348.696L181.186 357.133C181.186 357.133 178.727 323.859 191.101 309.377C212.659 284.146 246.726 311.823 277.037 325.34C325.891 347.126 343.188 333.655 358.96 304.233C375.137 274.055 373.946 244.032 401.514 223.725C414.504 214.156 432.945 204.882 438.765 205.856L439.155 187.835C423.532 190.178 402.642 202.395 382.808 217.352C351.15 241.227 356.142 280.246 320.422 297.458C276.158 318.787 255.238 265.873 195.727 280.697Z" fill="#863D83" fill-opacity="0.21"/>
<path d="M181.186 357.133L165.301 348.696C166.424 356.945 169.451 364.935 177.611 377.397C185.771 389.859 166.558 405.401 169.055 411.395C171.052 416.19 201.702 432.501 216.777 440.057L183.587 405.151C182.724 403.243 182.501 396.793 188.512 386.254C194.522 375.715 181.186 357.133 181.186 357.133Z" fill="#863D83" fill-opacity="0.21"/>
<path d="M82.4791 407.482C89.386 420.176 101.978 429.897 119.536 436.09C137.094 442.283 159.275 444.826 184.811 443.575C210.348 442.324 238.74 437.303 268.367 428.798C297.994 420.293 328.275 408.472 357.482 394.008C386.689 379.545 414.25 362.723 438.59 344.502C462.931 326.282 483.575 307.02 499.344 287.817C515.112 268.613 525.697 249.844 530.493 232.581C535.289 215.319 534.202 199.9 527.295 187.206L481.34 209.963C486.82 220.034 485.345 224.404 481.54 238.1C477.735 251.795 469.337 266.686 456.827 281.922C444.316 297.157 427.938 312.439 408.627 326.895C389.315 341.35 367.449 354.697 344.277 366.172C321.105 377.647 297.08 387.026 273.575 393.773C250.07 400.521 227.544 404.504 207.284 405.497C187.024 406.49 169.427 404.472 155.496 399.558C141.566 394.645 133.914 394.796 128.434 384.724L82.4791 407.482Z" fill="#863D83" fill-opacity="0.21"/>
<path d="M437.86 205.85L438.792 188.014C446.303 189.06 456.325 197.565 456.747 198.367C457.123 199.079 463.428 215.161 463.066 215.345C463.066 215.345 444.826 207.013 437.86 205.85Z" fill="#863D83" fill-opacity="0.21"/>
<path d="M126.033 356.498C120.881 346.755 123.092 326.35 124.75 317.636L133.931 326.21C133.931 326.21 128.23 353.011 129.614 362.862C130.568 364.8 131.186 366.241 126.033 356.498Z" fill="#863D83" fill-opacity="0.21"/>
<path d="M492.652 207.085C487.973 198.541 478.341 192.573 464.307 189.522C450.273 186.471 432.112 186.397 410.861 189.304C389.609 192.21 365.683 198.041 340.449 206.462C315.215 214.883 289.167 225.731 263.792 238.385C238.417 251.039 214.212 265.252 192.56 280.213C170.907 295.173 152.231 310.588 137.597 325.578C122.963 340.567 112.659 354.837 107.271 367.573C101.884 380.309 101.52 391.261 106.199 399.805L146.124 379.895C142.412 373.116 142.701 364.427 146.975 354.322C151.249 344.218 159.425 332.897 171.035 321.004C182.645 309.112 197.462 296.883 214.641 285.013C231.819 273.144 251.023 261.868 271.155 251.828C291.287 241.788 311.952 233.182 331.973 226.501C351.993 219.82 370.975 215.194 387.836 212.888C404.696 210.582 419.105 210.641 430.239 213.061C441.373 215.482 449.015 220.216 452.727 226.995L492.652 207.085Z" fill="#AF4DBA"/>
<g filter="url(#filter0_i_138_913)">
<path fill-rule="evenodd" clip-rule="evenodd" d="M233.568 431.586C316.943 459.989 407.558 415.425 435.961 332.049C452.546 283.364 444.252 232.211 417.879 192.418C408.119 186.651 382.064 180.935 355.918 204.199C342.481 216.155 335.981 229.959 330.474 241.655C322.586 258.407 316.734 270.835 295.454 267.317C285.222 265.625 275.07 263.262 265.296 260.986C240.555 255.226 218.236 250.03 203.159 257.726C186.419 266.272 180.412 276.626 166.794 300.103C163.303 306.122 159.311 313.004 154.51 320.938C143.125 339.754 142.434 348.226 141.197 348.307C140.798 348.333 140.341 347.485 139.45 345.827C139.906 312.54 155.822 244.812 215.841 240.196C240.023 238.336 255.36 239.598 266.434 240.508C289.714 242.424 294.149 242.788 322.314 209.336C355.564 169.845 391.5 170.587 405.312 175.895C401.736 171.779 397.939 167.835 393.932 164.084C373.847 159.931 328.426 154.678 307.415 166.897C294.283 174.533 292.013 181.197 290.024 187.035C288.036 192.873 286.328 197.885 274.321 202.219C266.853 204.915 257.518 206.135 247.429 207.454C225.081 210.375 199.03 213.78 181.355 234.784C175.995 241.153 171.198 246.565 166.831 251.491C150.298 270.141 139.944 281.822 128.626 312.121C130.982 323.757 134.624 335.062 139.45 345.827C156.928 384.816 189.932 416.721 233.568 431.586ZM355.799 137.694C364.719 142.099 373.081 147.266 380.83 153.087C371.32 151.379 344.062 149.58 311.111 156.046C293.443 159.513 288.218 167.122 282.734 175.107C275.434 185.737 267.676 197.033 229.496 200.112C176.007 204.425 138.375 266.037 126.245 296.304C125.742 291.251 125.481 286.156 125.468 281.034C133.229 252.354 162.217 162.746 206.024 169.721C216.972 171.464 229.807 163.678 242.268 156.119C258.2 146.455 273.519 137.163 283.497 148.635C293.523 160.163 306.475 153.916 320.802 147.004C331.884 141.659 343.788 135.917 355.799 137.694Z" fill="#C456D1"/>
<path d="M355.799 137.694C349.604 134.635 343.14 131.944 336.424 129.656C282.615 111.325 225.792 123.386 184.622 156.657C161.999 174.939 144.103 199.625 134.03 229.193C128.179 246.368 125.425 263.851 125.468 281.034C133.229 252.354 162.217 162.746 206.024 169.721C216.972 171.464 229.807 163.678 242.268 156.119C258.2 146.455 273.519 137.163 283.497 148.635C293.523 160.163 306.475 153.916 320.802 147.004C331.884 141.659 343.788 135.917 355.799 137.694Z" fill="#AF4DBA"/>
<path d="M229.496 200.112C176.007 204.425 138.375 266.037 126.245 296.304C126.774 301.63 127.571 306.908 128.626 312.121C139.944 281.822 150.298 270.141 166.831 251.491C171.198 246.565 175.995 241.153 181.355 234.784C199.03 213.78 225.081 210.375 247.429 207.454C257.518 206.135 266.853 204.915 274.321 202.219C286.328 197.885 288.036 192.873 290.024 187.035C292.013 181.197 294.283 174.533 307.415 166.897C328.426 154.678 373.847 159.931 393.932 164.084C389.786 160.205 385.415 156.531 380.83 153.087C371.32 151.379 344.062 149.58 311.111 156.046C293.443 159.513 288.218 167.122 282.734 175.107C275.434 185.737 267.676 197.033 229.496 200.112Z" fill="#AF4DBA"/>
<path d="M215.841 240.196C155.822 244.812 139.906 312.54 139.45 345.827C140.341 347.485 140.798 348.333 141.197 348.307C142.434 348.226 143.125 339.754 154.51 320.938C159.311 313.004 163.303 306.122 166.794 300.103C180.412 276.626 186.419 266.272 203.159 257.726C218.236 250.03 240.555 255.226 265.296 260.986C275.07 263.262 285.222 265.625 295.454 267.317C316.734 270.835 322.586 258.407 330.474 241.655C335.981 229.959 342.481 216.155 355.918 204.199C382.064 180.935 408.119 186.651 417.879 192.418C414.062 186.658 409.866 181.137 405.312 175.895C391.5 170.587 355.564 169.845 322.314 209.336C294.149 242.788 289.714 242.424 266.434 240.508C255.36 239.598 240.023 238.336 215.841 240.196Z" fill="#AF4DBA"/>
</g>
<path d="M130.491 307.21L127.054 302.617L127.58 306.481L128.418 310.979L130.491 307.21Z" fill="#65176E"/>
<path fill-rule="evenodd" clip-rule="evenodd" d="M157.767 342.465C157.664 342.744 157.556 343.004 157.442 343.243C157.744 343.43 177.413 347.413 177.588 347.473C177.588 347.473 158.216 342.913 157.767 342.465Z" fill="url(#paint0_linear_138_913)"/>
<path d="M204.061 288.308C162.637 298.627 169.152 332.051 177.588 347.473L191.409 354.814C191.409 354.814 189.27 325.862 200.036 313.262C218.794 291.309 248.435 315.39 274.808 327.151C317.316 346.107 332.366 334.386 346.089 308.786C360.164 282.528 359.128 256.406 383.115 238.737C394.418 230.41 410.463 222.341 415.527 223.189L415.866 207.509C402.272 209.548 384.096 220.178 366.839 233.192C339.293 253.965 343.637 287.915 312.557 302.891C274.044 321.449 255.842 275.41 204.061 288.308Z" fill="#AF4DBA"/>
<path d="M191.409 354.814L177.588 347.473C178.565 354.651 181.199 361.603 188.298 372.446C195.398 383.289 178.682 396.812 180.854 402.027C182.592 406.199 209.26 420.391 222.377 426.966L193.498 396.594C192.747 394.934 192.553 389.322 197.783 380.152C203.013 370.982 191.409 354.814 191.409 354.814Z" fill="#65176F"/>
<path d="M105.524 398.622C111.534 409.667 122.49 418.126 137.767 423.514C153.045 428.902 172.344 431.116 194.563 430.027C216.782 428.938 241.486 424.569 267.264 417.17C293.042 409.77 319.39 399.484 344.803 386.899C370.215 374.315 394.196 359.678 415.374 343.824C436.553 327.971 454.515 311.211 468.235 294.502C481.956 277.794 491.165 261.463 495.338 246.443C499.511 231.422 498.565 218.007 492.556 206.962L452.571 226.762C457.339 235.525 456.055 239.327 452.744 251.244C449.434 263.161 442.127 276.117 431.242 289.373C420.357 302.63 406.106 315.926 389.303 328.504C372.5 341.082 353.475 352.694 333.313 362.679C313.151 372.663 292.247 380.824 271.796 386.695C251.344 392.565 231.744 396.032 214.116 396.895C196.488 397.759 181.177 396.003 169.056 391.728C156.936 387.453 150.277 387.584 145.509 378.821L105.524 398.622Z" fill="#AF4DBA"/>
<path d="M414.739 223.184L415.55 207.665C422.085 208.575 430.806 215.975 431.173 216.672C431.5 217.292 436.986 231.285 436.671 231.445C436.671 231.445 420.8 224.196 414.739 223.184Z" fill="#65176E"/>
<path d="M143.421 354.262C138.938 345.785 140.862 328.03 142.304 320.448L150.293 327.908C150.293 327.908 145.332 351.227 146.537 359.799C147.366 361.485 147.904 362.739 143.421 354.262Z" fill="#65176E"/>
<defs>
<filter id="filter0_i_138_913" x="125.468" y="121.093" width="319.056" height="319.056" filterUnits="userSpaceOnUse" color-interpolation-filters="sRGB">
<feFlood flood-opacity="0" result="BackgroundImageFix"/>
<feBlend mode="normal" in="SourceGraphic" in2="BackgroundImageFix" result="shape"/>
<feColorMatrix in="SourceAlpha" type="matrix" values="0 0 0 0 0 0 0 0 0 0 0 0 0 0 0 0 0 0 127 0" result="hardAlpha"/>
<feOffset dx="-29" dy="-72"/>
<feComposite in2="hardAlpha" operator="arithmetic" k2="-1" k3="1"/>
<feColorMatrix type="matrix" values="0 0 0 0 0.480924 0 0 0 0 0.143229 0 0 0 0 0.520833 0 0 0 1 0"/>
<feBlend mode="normal" in2="shape" result="effect1_innerShadow_138_913"/>
</filter>
<linearGradient id="paint0_linear_138_913" x1="152.061" y1="298.762" x2="137.581" y2="319.629" gradientUnits="userSpaceOnUse">
<stop stop-color="#C457D0"/>
<stop offset="0.495" stop-color="#A03EAB"/>
<stop offset="1" stop-color="#7B2585"/>
</linearGradient>
</defs>
</svg>
