<svg width="1115" height="226" viewBox="0 0 1115 226" fill="none" xmlns="http://www.w3.org/2000/svg">
<path d="M130.72 178.488H73.616L63.296 221.488H0L7.42069 198.5L63.296 25.4081H144.136L197.582 198.5L204.68 221.488H141.04L130.72 178.488ZM101.824 67.7201L81.528 140.304H122.464L103.2 67.7201H101.824Z" fill="#9FC7F8"/>
<path d="M222.13 25.4081H284.05V221.488H222.13V25.4081Z" fill="#9FC7F8"/>
<path d="M490.184 112.784V210.824C474.819 215.869 460.256 219.539 446.496 221.832C432.736 224.125 421.155 225.272 411.752 225.272C380.563 225.272 356.139 217.131 338.48 200.848C320.821 184.565 311.992 159.568 311.992 125.856C311.992 91.4561 321.28 65.7708 339.856 48.8001C358.432 31.6001 384.576 23.0001 418.288 23.0001C435.947 23.0001 457.232 2.72533 482 8C482 12.5867 481.469 42.3788 480.552 51.5521C479.635 60.4961 478.717 66.8028 477.8 70.4721L465.416 70.1281C450.28 69.6694 438.469 69.4401 429.984 69.4401C404.528 69.4401 390.653 70.9308 388.36 73.9121C384.691 78.2694 382.053 85.0348 380.448 94.2081C379.072 103.381 378.384 112.211 378.384 120.696C378.384 136.061 380.104 147.987 383.544 156.472C386.984 164.957 392.259 170.92 399.368 174.36C406.477 177.8 416.109 179.52 428.264 179.52H429.64V112.784H490.184Z" fill="#9FC7F8"/>
<path d="M610.587 221.488L605.083 199.816C594.533 217.016 579.856 225.616 561.051 225.616C545.685 225.616 533.072 221.373 523.211 212.888C513.579 204.173 508.763 192.019 508.763 176.424C508.763 166.792 511.515 158.421 517.019 151.312C522.752 143.973 530.549 138.813 540.411 135.832C553.253 132.163 573.091 130.099 599.923 129.64C599.923 114.504 599.235 106.477 597.859 105.56C596.712 104.643 593.043 104.184 586.851 104.184C582.952 104.184 577.563 104.413 570.683 104.872C559.675 105.331 547.433 106.048 528.628 108.112C526.793 95.7281 525.417 82.4268 524.5 68.2081C536.655 65.6854 546.717 64.1654 560.019 62.5601C573.32 60.7254 585.245 59.8081 595.795 59.8081C614.141 59.8081 627.901 62.9041 637.075 69.0961C646.248 75.0588 652.211 82.9708 654.963 92.8321C657.715 102.693 658.976 115.192 658.747 130.328L658.403 180.896L659.435 221.488H610.587ZM581.003 187.088C586.965 187.088 593.272 185.941 599.923 183.648V158.192H597.171C580.2 158.192 570.797 159.109 568.963 160.944C567.816 162.091 566.899 163.811 566.211 166.104C565.752 168.397 565.523 170.576 565.523 172.64C565.523 178.144 566.784 181.928 569.307 183.992C571.829 186.056 575.728 187.088 581.003 187.088Z" fill="#9FC7F8"/>
<path d="M932.643 74.2561C936.312 79.7601 938.147 101.088 938.147 138.24V221.488H879.323V125.512C879.323 117.027 878.521 111.981 876.915 110.376C875.081 108.541 871.182 107.624 865.219 107.624L861.091 107.968C853.982 108.427 847.216 110.032 840.795 112.784C841.024 117.6 841.139 126.085 841.139 138.24V221.488H782.315V123.448C782.315 116.339 781.512 111.981 779.907 110.376C778.072 108.541 774.174 107.624 768.211 107.624L764.083 107.968C757.662 108.197 751.011 109.688 744.131 112.44V221.488H685.307V63.2481H733.123L739.315 89.0481C746.883 78.9574 755.598 71.6188 765.459 67.0321C775.32 62.2161 785.296 59.8081 795.387 59.8081C803.872 59.8081 811.899 61.0694 819.467 63.5921C827.265 66.1148 832.654 69.6694 835.635 74.2561C837.011 76.3201 838.158 80.1041 839.075 85.6081C846.414 76.6641 854.784 70.1281 864.187 66.0001C873.59 61.8721 882.992 59.8081 892.395 59.8081C900.88 59.8081 908.907 61.0694 916.475 63.5921C924.272 66.1148 929.662 69.6694 932.643 74.2561Z" fill="#9FC7F8"/>
<path d="M1061.45 180.208C1067.19 180.208 1077.85 179.635 1093.45 178.488C1095.51 178.488 1102.34 176.527 1107.84 176.068L1113 211.5C1095.34 219.756 1069.37 225.616 1041.16 225.616C1014.79 225.616 994.49 218.965 980.271 205.664C966.282 192.363 959.287 172.296 959.287 145.464C959.287 131.704 961.007 118.403 964.447 105.56C968.116 92.7174 972.244 83.7734 976.831 78.7281C981.647 73.6828 990.591 69.3254 1003.66 65.6561C1016.74 61.9868 1029.69 60.1521 1042.54 60.1521C1063.18 60.1521 1078.66 63.8214 1088.97 71.1601C1099.29 78.4988 1106.06 88.7041 1109.27 101.776C1112.48 114.619 1114.09 131.933 1114.09 153.72C1098.49 154.637 1083.24 155.096 1068.33 155.096H1019.49C1019.49 162.435 1020.98 167.939 1023.96 171.608C1027.17 175.277 1031.64 177.685 1037.38 178.832C1043.11 179.749 1051.14 180.208 1061.45 180.208ZM1022.93 101.088C1021.55 101.776 1020.52 104.757 1019.83 110.032C1019.14 115.307 1018.68 121.269 1018.46 127.92H1036.34C1047.12 127.92 1054.92 127.805 1059.73 127.576C1059.73 116.568 1058.13 108.771 1054.92 104.184C1051.94 99.5974 1046.66 97.3041 1039.09 97.3041C1032.9 97.3041 1027.51 98.5654 1022.93 101.088Z" fill="#9FC7F8"/>
<path d="M0 198.5V221.488L7.42069 198.5H0Z" fill="#9FC7F8"/>
<path d="M197.582 198.5L204.68 221.488V198.5H197.582Z" fill="#9FC7F8"/>
<path d="M130.72 155.488H73.616L63.296 198.488H0L63.296 2.40799H144.136L204.68 198.488H141.04L130.72 155.488ZM101.824 44.72L81.528 117.304H122.464L103.2 44.72H101.824Z" fill="white"/>
<path d="M222.13 2.40799H284.05V198.488H222.13V2.40799Z" fill="white"/>
<path d="M490.184 89.784V187.824C474.819 192.869 460.256 196.539 446.496 198.832C432.736 201.125 421.155 202.272 411.752 202.272C380.563 202.272 356.139 194.131 338.48 177.848C320.821 161.565 311.992 136.568 311.992 102.856C311.992 68.456 321.28 42.7707 339.856 25.8C358.432 8.6 384.576 0 418.288 0C435.947 0 457.16 2.63733 481.928 7.912C481.928 12.4987 481.469 19.3787 480.552 28.552C479.635 37.496 478.717 43.8027 477.8 47.472L465.416 47.128C450.28 46.6693 438.469 46.44 429.984 46.44C404.528 46.44 390.653 47.9307 388.36 50.912C384.691 55.2693 382.053 62.0347 380.448 71.208C379.072 80.3813 378.384 89.2107 378.384 97.696C378.384 113.061 380.104 124.987 383.544 133.472C386.984 141.957 392.259 147.92 399.368 151.36C406.477 154.8 416.109 156.52 428.264 156.52H429.64V89.784H490.184Z" fill="white"/>
<path d="M610.587 198.488L605.083 176.816C594.533 194.016 579.856 202.616 561.051 202.616C545.685 202.616 533.072 198.373 523.211 189.888C513.579 181.173 508.763 169.019 508.763 153.424C508.763 143.792 511.515 135.421 517.019 128.312C522.752 120.973 530.549 115.813 540.411 112.832C553.253 109.163 573.091 107.099 599.923 106.64C599.923 91.504 599.235 83.4773 597.859 82.56C596.712 81.6427 593.043 81.184 586.851 81.184C582.952 81.184 577.563 81.4133 570.683 81.872C559.675 82.3307 544.768 83.592 525.963 85.656C524.128 73.272 522.752 59.9707 521.835 45.752C533.989 43.2293 546.717 41.1653 560.019 39.56C573.32 37.7253 585.245 36.808 595.795 36.808C614.141 36.808 627.901 39.904 637.075 46.096C646.248 52.0587 652.211 59.9707 654.963 69.832C657.715 79.6933 658.976 92.192 658.747 107.328L658.403 157.896L659.435 198.488H610.587ZM581.003 164.088C586.965 164.088 593.272 162.941 599.923 160.648V135.192H597.171C580.2 135.192 570.797 136.109 568.963 137.944C567.816 139.091 566.899 140.811 566.211 143.104C565.752 145.397 565.523 147.576 565.523 149.64C565.523 155.144 566.784 158.928 569.307 160.992C571.829 163.056 575.728 164.088 581.003 164.088Z" fill="white"/>
<path d="M932.643 51.256C936.312 56.76 938.147 78.088 938.147 115.24V198.488H879.323V102.512C879.323 94.0267 878.521 88.9813 876.915 87.376C875.081 85.5413 871.182 84.624 865.219 84.624L861.091 84.968C853.982 85.4267 847.216 87.032 840.795 89.784C841.024 94.6 841.139 103.085 841.139 115.24V198.488H782.315V100.448C782.315 93.3387 781.512 88.9813 779.907 87.376C778.072 85.5413 774.174 84.624 768.211 84.624L764.083 84.968C757.662 85.1973 751.011 86.688 744.131 89.44V198.488H685.307V40.248H733.123L739.315 66.048C746.883 55.9573 755.598 48.6187 765.459 44.032C775.32 39.216 785.296 36.808 795.387 36.808C803.872 36.808 811.899 38.0693 819.467 40.592C827.265 43.1147 832.654 46.6693 835.635 51.256C837.011 53.32 838.158 57.104 839.075 62.608C846.414 53.664 854.784 47.128 864.187 43C873.59 38.872 882.992 36.808 892.395 36.808C900.88 36.808 908.907 38.0693 916.475 40.592C924.272 43.1147 929.662 46.6693 932.643 51.256Z" fill="white"/>
<path d="M1061.45 157.208C1067.19 157.208 1077.85 156.635 1093.45 155.488C1095.51 155.488 1099.29 155.259 1104.8 154.8L1109.96 190.232C1092.3 198.488 1069.37 202.616 1041.16 202.616C1014.79 202.616 994.49 195.965 980.271 182.664C966.282 169.363 959.287 149.296 959.287 122.464C959.287 108.704 961.007 95.4027 964.447 82.56C968.116 69.7173 972.244 60.7733 976.831 55.728C981.647 50.6827 990.591 46.3253 1003.66 42.656C1016.74 38.9867 1029.69 37.152 1042.54 37.152C1063.18 37.152 1078.66 40.8213 1088.97 48.16C1099.29 55.4987 1106.06 65.704 1109.27 78.776C1112.48 91.6187 1114.09 108.933 1114.09 130.72C1098.49 131.637 1083.24 132.096 1068.33 132.096H1019.49C1019.49 139.435 1020.98 144.939 1023.96 148.608C1027.17 152.277 1031.64 154.685 1037.38 155.832C1043.11 156.749 1051.14 157.208 1061.45 157.208ZM1022.93 78.088C1021.55 78.776 1020.52 81.7573 1019.83 87.032C1019.14 92.3067 1018.68 98.2693 1018.46 104.92H1036.34C1047.12 104.92 1054.92 104.805 1059.73 104.576C1059.73 93.568 1058.13 85.7707 1054.92 81.184C1051.94 76.5973 1046.66 74.304 1039.09 74.304C1032.9 74.304 1027.51 75.5653 1022.93 78.088Z" fill="white"/>
</svg>
