<svg width="1115" height="220" viewBox="0 0 1115 220" fill="none" xmlns="http://www.w3.org/2000/svg">
<g filter="url(#filter0_d_34_16)">
<path d="M130.72 155.488H73.616L63.296 198.488H0L63.296 2.40799H144.136L204.68 198.488H141.04L130.72 155.488ZM101.824 44.72L81.528 117.304H122.464L103.2 44.72H101.824Z" fill="white"/>
<path d="M222.13 2.40799H284.05V198.488H222.13V2.40799Z" fill="white"/>
<path d="M490.184 89.784V187.824C474.819 192.869 460.256 196.539 446.496 198.832C432.736 201.125 421.155 202.272 411.752 202.272C380.563 202.272 356.139 194.131 338.48 177.848C320.821 161.565 311.992 136.568 311.992 102.856C311.992 68.456 321.28 42.7707 339.856 25.8C358.432 8.6 384.576 0 418.288 0C435.947 0 457.16 2.63733 481.928 7.912C481.928 12.4987 481.469 19.3787 480.552 28.552C479.635 37.496 478.717 43.8027 477.8 47.472L465.416 47.128C450.28 46.6693 438.469 46.44 429.984 46.44C404.528 46.44 390.653 47.9307 388.36 50.912C384.691 55.2693 382.053 62.0347 380.448 71.208C379.072 80.3813 378.384 89.2107 378.384 97.696C378.384 113.061 380.104 124.987 383.544 133.472C386.984 141.957 392.259 147.92 399.368 151.36C406.477 154.8 416.109 156.52 428.264 156.52H429.64V89.784H490.184Z" fill="white"/>
<path d="M610.587 198.488L605.083 176.816C594.533 194.016 579.856 202.616 561.051 202.616C545.685 202.616 533.072 198.373 523.211 189.888C513.579 181.173 508.763 169.019 508.763 153.424C508.763 143.792 511.515 135.421 517.019 128.312C522.752 120.973 530.549 115.813 540.411 112.832C553.253 109.163 573.091 107.099 599.923 106.64C599.923 91.504 599.235 83.4773 597.859 82.56C596.712 81.6427 593.043 81.184 586.851 81.184C582.952 81.184 577.563 81.4133 570.683 81.872C559.675 82.3307 544.768 83.592 525.963 85.656C524.128 73.272 522.752 59.9707 521.835 45.752C533.989 43.2293 546.717 41.1653 560.019 39.56C573.32 37.7253 585.245 36.808 595.795 36.808C614.141 36.808 627.901 39.904 637.075 46.096C646.248 52.0587 652.211 59.9707 654.963 69.832C657.715 79.6933 658.976 92.192 658.747 107.328L658.403 157.896L659.435 198.488H610.587ZM581.003 164.088C586.965 164.088 593.272 162.941 599.923 160.648V135.192H597.171C580.2 135.192 570.797 136.109 568.963 137.944C567.816 139.091 566.899 140.811 566.211 143.104C565.752 145.397 565.523 147.576 565.523 149.64C565.523 155.144 566.784 158.928 569.307 160.992C571.829 163.056 575.728 164.088 581.003 164.088Z" fill="white"/>
<path d="M932.643 51.256C936.312 56.76 938.147 78.088 938.147 115.24V198.488H879.323V102.512C879.323 94.0267 878.521 88.9813 876.915 87.376C875.081 85.5413 871.182 84.624 865.219 84.624L861.091 84.968C853.982 85.4267 847.216 87.032 840.795 89.784C841.024 94.6 841.139 103.085 841.139 115.24V198.488H782.315V100.448C782.315 93.3387 781.512 88.9813 779.907 87.376C778.072 85.5413 774.174 84.624 768.211 84.624L764.083 84.968C757.662 85.1973 751.011 86.688 744.131 89.44V198.488H685.307V40.248H733.123L739.315 66.048C746.883 55.9573 755.598 48.6187 765.459 44.032C775.32 39.216 785.296 36.808 795.387 36.808C803.872 36.808 811.899 38.0693 819.467 40.592C827.265 43.1147 832.654 46.6693 835.635 51.256C837.011 53.32 838.158 57.104 839.075 62.608C846.414 53.664 854.784 47.128 864.187 43C873.59 38.872 882.992 36.808 892.395 36.808C900.88 36.808 908.907 38.0693 916.475 40.592C924.272 43.1147 929.662 46.6693 932.643 51.256Z" fill="white"/>
<path d="M1061.45 157.208C1067.19 157.208 1077.85 156.635 1093.45 155.488C1095.51 155.488 1099.29 155.259 1104.8 154.8L1109.96 190.232C1092.3 198.488 1069.37 202.616 1041.16 202.616C1014.79 202.616 994.49 195.965 980.271 182.664C966.282 169.363 959.287 149.296 959.287 122.464C959.287 108.704 961.007 95.4027 964.447 82.56C968.116 69.7173 972.244 60.7733 976.831 55.728C981.647 50.6827 990.591 46.3253 1003.66 42.656C1016.74 38.9867 1029.69 37.152 1042.54 37.152C1063.18 37.152 1078.66 40.8213 1088.97 48.16C1099.29 55.4987 1106.06 65.704 1109.27 78.776C1112.48 91.6187 1114.09 108.933 1114.09 130.72C1098.49 131.637 1083.24 132.096 1068.33 132.096H1019.49C1019.49 139.435 1020.98 144.939 1023.96 148.608C1027.17 152.277 1031.64 154.685 1037.38 155.832C1043.11 156.749 1051.14 157.208 1061.45 157.208ZM1022.93 78.088C1021.55 78.776 1020.52 81.7573 1019.83 87.032C1019.14 92.3067 1018.68 98.2693 1018.46 104.92H1036.34C1047.12 104.92 1054.92 104.805 1059.73 104.576C1059.73 93.568 1058.13 85.7707 1054.92 81.184C1051.94 76.5973 1046.66 74.304 1039.09 74.304C1032.9 74.304 1027.51 75.5653 1022.93 78.088Z" fill="white"/>
</g>
<defs>
<filter id="filter0_d_34_16" x="0" y="0" width="1114.09" height="219.616" filterUnits="userSpaceOnUse" color-interpolation-filters="sRGB">
<feFlood flood-opacity="0" result="BackgroundImageFix"/>
<feColorMatrix in="SourceAlpha" type="matrix" values="0 0 0 0 0 0 0 0 0 0 0 0 0 0 0 0 0 0 127 0" result="hardAlpha"/>
<feOffset dy="17"/>
<feComposite in2="hardAlpha" operator="out"/>
<feColorMatrix type="matrix" values="0 0 0 0 0.623529 0 0 0 0 0.780392 0 0 0 0 0.972549 0 0 0 1 0"/>
<feBlend mode="normal" in2="BackgroundImageFix" result="effect1_dropShadow_34_16"/>
<feBlend mode="normal" in="SourceGraphic" in2="effect1_dropShadow_34_16" result="shape"/>
</filter>
</defs>
</svg>
