<svg width="93" height="17" viewBox="0 0 93 17" fill="none" xmlns="http://www.w3.org/2000/svg">
<path d="M10.912 13.0458H6.1452L5.28372 16.6537H0L5.28372 0.202036H12.032L17.086 16.6537H11.7735L10.912 13.0458ZM8.4999 3.75212L6.80567 9.8421H10.2229L8.61477 3.75212H8.4999Z" fill="white"/>
<path d="M18.5426 0.202036H23.7115V16.6537H18.5426V0.202036Z" fill="white"/>
<path d="M40.9188 7.53311V15.7589C39.6362 16.1822 38.4205 16.4901 37.2719 16.6825C36.1232 16.8749 35.1565 16.9711 34.3716 16.9711C31.768 16.9711 29.7292 16.2881 28.2551 14.9219C26.781 13.5557 26.044 11.4584 26.044 8.62988C26.044 5.74363 26.8193 3.58857 28.37 2.16469C29.9206 0.721562 32.103 0 34.9172 0C36.3913 0 38.1621 0.221279 40.2296 0.663837C40.2296 1.04867 40.1913 1.62592 40.1148 2.39559C40.0382 3.14601 39.9616 3.67516 39.885 3.98302L38.8513 3.95416C37.5878 3.91568 36.6018 3.89643 35.8935 3.89643C33.7685 3.89643 32.6103 4.02151 32.4189 4.27165C32.1126 4.63724 31.8924 5.20487 31.7584 5.97453C31.6436 6.7442 31.5861 7.485 31.5861 8.19694C31.5861 9.48614 31.7297 10.4867 32.0169 11.1986C32.304 11.9106 32.7443 12.4109 33.3378 12.6995C33.9313 12.9881 34.7353 13.1324 35.7499 13.1324H35.8648V7.53311H40.9188Z" fill="white"/>
<path d="M50.9696 16.6537L50.5101 14.8353C49.6295 16.2784 48.4043 17 46.8345 17C45.5518 17 44.4989 16.644 43.6757 15.9321C42.8717 15.2009 42.4697 14.1811 42.4697 12.8727C42.4697 12.0645 42.6994 11.3622 43.1589 10.7657C43.6375 10.15 44.2884 9.71703 45.1115 9.46689C46.1836 9.15903 47.8396 8.98585 50.0794 8.94737C50.0794 7.67742 50.022 7.00396 49.9071 6.927C49.8114 6.85003 49.5051 6.81154 48.9882 6.81154C48.6627 6.81154 48.2129 6.83079 47.6385 6.86927C46.7196 6.90775 45.4753 7.01358 43.9055 7.18676C43.7523 6.14771 43.6375 5.03169 43.5609 3.83871C44.5755 3.62705 45.638 3.45388 46.7483 3.31919C47.8587 3.16525 48.8542 3.08828 49.7348 3.08828C51.2663 3.08828 52.415 3.34805 53.1807 3.86757C53.9465 4.36786 54.4442 5.03169 54.6739 5.85908C54.9037 6.68647 55.009 7.73514 54.9898 9.00509L54.9611 13.2479L55.0472 16.6537H50.9696ZM48.5 13.7674C48.9978 13.7674 49.5242 13.6712 50.0794 13.4788V11.343H49.8497C48.433 11.343 47.6481 11.4199 47.495 11.5739C47.3992 11.6701 47.3227 11.8144 47.2652 12.0068C47.2269 12.1992 47.2078 12.382 47.2078 12.5552C47.2078 13.017 47.3131 13.3345 47.5237 13.5076C47.7343 13.6808 48.0597 13.7674 48.5 13.7674Z" fill="white"/>
<path d="M77.8537 4.30051C78.16 4.76231 78.3132 6.55178 78.3132 9.66893V16.6537H73.4027V8.60102C73.4027 7.88908 73.3357 7.46576 73.2017 7.33107C73.0486 7.17714 72.7231 7.10017 72.2254 7.10017L71.8808 7.12903C71.2873 7.16752 70.7226 7.30221 70.1866 7.53311C70.2057 7.93718 70.2153 8.64912 70.2153 9.66893V16.6537H65.3049V8.42784C65.3049 7.83135 65.2379 7.46576 65.1039 7.33107C64.9507 7.17714 64.6253 7.10017 64.1275 7.10017L63.7829 7.12903C63.2469 7.14827 62.6917 7.27334 62.1174 7.50425V16.6537H57.207V3.37691H61.1985L61.7154 5.5416C62.3471 4.69496 63.0746 4.07923 63.8978 3.6944C64.721 3.29032 65.5537 3.08828 66.3961 3.08828C67.1044 3.08828 67.7744 3.19411 68.4062 3.40577C69.0571 3.61743 69.507 3.91568 69.7558 4.30051C69.8707 4.47368 69.9664 4.79117 70.043 5.25297C70.6556 4.50255 71.3543 3.95416 72.1393 3.60781C72.9242 3.26146 73.7091 3.08828 74.494 3.08828C75.2023 3.08828 75.8723 3.19411 76.5041 3.40577C77.155 3.61743 77.6048 3.91568 77.8537 4.30051Z" fill="white"/>
<path d="M88.6065 13.1902C89.0851 13.1902 89.9753 13.142 91.277 13.0458C91.4493 13.0458 91.7652 13.0266 92.2247 12.9881L92.6554 15.961C91.1813 16.6537 89.2669 17 86.9122 17C84.7107 17 83.0164 16.442 81.8295 15.326C80.6617 14.21 80.0779 12.5263 80.0779 10.275C80.0779 9.12054 80.2214 8.00453 80.5086 6.927C80.8149 5.84946 81.1595 5.09904 81.5424 4.67572C81.9444 4.25241 82.691 3.88681 83.7822 3.57895C84.8734 3.27108 85.955 3.11715 87.0271 3.11715C88.7501 3.11715 90.0423 3.42501 90.9037 4.04075C91.7652 4.65648 92.33 5.51273 92.598 6.60951C92.866 7.68704 93 9.13978 93 10.9677C91.6982 11.0447 90.4251 11.0832 89.1808 11.0832H85.1031C85.1031 11.6989 85.2276 12.1607 85.4764 12.4686C85.7444 12.7765 86.1178 12.9785 86.5964 13.0747C87.075 13.1517 87.745 13.1902 88.6065 13.1902ZM85.3903 6.55178C85.2754 6.60951 85.1893 6.85965 85.1318 7.30221C85.0744 7.74476 85.0361 8.24505 85.017 8.80306H86.5102C87.41 8.80306 88.0609 8.79344 88.4629 8.77419C88.4629 7.85059 88.3289 7.19638 88.0609 6.81154C87.812 6.42671 87.3717 6.23429 86.7399 6.23429C86.223 6.23429 85.7732 6.34012 85.3903 6.55178Z" fill="white"/>
</svg>
