<svg width="123" height="122" viewBox="0 0 123 122" fill="none" xmlns="http://www.w3.org/2000/svg">
<path d="M121.44 47.5C120.66 44.0464 119.587 40.7039 118.248 37.5C117.345 35.3387 116.321 33.2404 115.185 31.2137C102.161 12.8681 58.6132 6.45211 36.4395 5.56942C33.6608 6.84982 30.9948 8.333 28.4606 10C71.6774 7.6 108.454 34 121.44 47.5Z" fill="#9FC7F8"/>
<path d="M120.953 76.5C98.1634 40.1 40.7817 25.0753 14.9395 22.113C13.5157 23.8318 12.1845 25.63 10.9533 27.5C43.3644 23.1 95.7024 64.3333 117.82 85.5C119.089 82.6103 120.14 79.6034 120.953 76.5Z" fill="#9FC7F8"/>
<path d="M102.939 106.167C93.3395 77.9005 34.0669 48.6113 5.63058 37.5C4.74929 39.6092 3.98305 41.7785 3.33971 44C44.8599 61.5096 80.4257 97.629 93.0186 113.5C96.5741 111.391 99.897 108.93 102.939 106.167Z" fill="#9FC7F8"/>
<path d="M61.9395 122C68.3888 122 74.6045 120.999 80.4395 119.144C70.3761 101.26 23.2464 72.9295 0.939453 61C0.939453 65.1075 1.34542 69.1201 2.11943 73C31.8634 86.6 54.3928 111.333 61.9395 122Z" fill="#9FC7F8"/>
<path d="M40.4395 118.103C27.9144 113.385 17.3512 104.664 10.3088 93.5C14.519 95.2354 26.4395 102.586 40.4395 118.103Z" fill="#9FC7F8"/>
<path d="M61.9395 122C54.3928 111.333 31.8634 86.6 2.11943 73C3.59661 80.4048 6.41432 87.326 10.3088 93.5C14.519 95.2354 26.4395 102.586 40.4395 118.103C47.1261 120.622 54.3718 122 61.9395 122Z" fill="#7CAEE9"/>
<path d="M3.33971 44C1.77701 49.3961 0.939453 55.1002 0.939453 61C23.2464 72.9295 70.3761 101.26 80.4395 119.144C84.8738 117.735 89.0883 115.832 93.0186 113.5C80.4257 97.629 44.8599 61.5096 3.33971 44Z" fill="#7CAEE9"/>
<path d="M117.82 85.5C95.7024 64.3333 43.3644 23.1 10.9533 27.5C8.88426 30.6427 7.09794 33.9881 5.63058 37.5C34.0669 48.6113 93.3395 77.9005 102.939 106.167C109.246 100.439 114.348 93.4083 117.82 85.5Z" fill="#7CAEE9"/>
<path d="M122.939 61C122.939 56.3608 122.422 51.8426 121.44 47.5C108.454 34 71.6774 7.6 28.4606 10C23.3713 13.3476 18.8131 17.4365 14.9395 22.113C40.7817 25.0753 98.1634 40.1 120.953 76.5C122.249 71.5506 122.939 66.3559 122.939 61Z" fill="#7CAEE9"/>
<path d="M61.9395 0C52.836 0 44.1984 1.99414 36.4395 5.56942C58.6132 6.45211 102.161 12.8681 115.185 31.2137C104.743 12.5879 84.8114 0 61.9395 0Z" fill="#7CAEE9"/>
</svg>
