<svg width="123" height="122" viewBox="0 0 123 122" fill="none" xmlns="http://www.w3.org/2000/svg">
<path d="M61.9394 0C46.3965 0 32.2114 5.81314 21.4395 15.3839C17.9395 27.2559 17.2395 52 42.4394 56C73.9394 61 45.4394 87.5 28.4395 77C14.8395 68.6 9.87993 83.1667 9.10017 91.5C15.0258 101.744 23.8447 110.104 34.4394 115.464C36.1161 116.313 37.8373 117.086 39.5986 117.779C46.6174 119.853 56.8099 119.019 63.9394 106C71.7628 91.7138 75.1896 98.9478 77.9979 104.876C79.3176 107.662 80.5008 110.16 81.9394 110C82.2417 109.966 82.6048 109.937 83.0156 109.904C88.7219 109.448 95.4069 98.0001 78.9069 91.5C52.2641 81.0041 76.4739 56.44 95.4069 61C109.939 64.5001 118.922 55.4459 122.355 52.5229C122.317 52.2515 122.278 51.9806 122.237 51.7103C120.854 42.659 117.481 34.2623 112.58 26.9804C106.785 28.2524 101.027 32.6611 95.4069 36.9645C85.6623 44.4258 76.3314 51.5703 67.9394 41.5C52.9394 23.5 89.5038 6.37508 93.0038 8.49121C83.9051 3.09682 73.2839 0 61.9394 0Z" fill="#FDB215"/>
<path d="M93.0038 8.49121C89.5038 6.37508 52.9394 23.5 67.9394 41.5C76.3314 51.5703 85.6623 44.4258 95.4069 36.9645C101.027 32.6611 106.785 28.2524 112.58 26.9804C107.517 19.4588 100.822 13.1267 93.0038 8.49121Z" fill="#FF8D13"/>
<path d="M21.4395 15.3839C8.86318 26.5578 0.939453 42.8535 0.939453 61C0.939453 72.1108 3.90998 82.5277 9.10017 91.5C9.87993 83.1667 14.8395 68.6 28.4395 77C45.4394 87.5 73.9394 61 42.4394 56C17.2395 52 17.9395 27.2559 21.4395 15.3839Z" fill="#FF8D13"/>
<path d="M61.9394 122C95.6288 122 122.939 94.6894 122.939 61C122.939 58.1235 122.74 55.2934 122.355 52.5229C118.922 55.4459 109.939 64.5001 95.4069 61C76.4739 56.44 52.2641 81.0041 78.9069 91.5C95.4069 98.0001 88.7219 109.448 83.0156 109.904C82.6048 109.937 82.2417 109.966 81.9394 110C80.5008 110.16 79.3176 107.662 77.9979 104.876C75.1896 98.9478 71.7628 91.7138 63.9394 106C56.8099 119.019 46.6174 119.853 39.5986 117.779C46.517 120.504 54.0535 122 61.9394 122Z" fill="#FF8D13"/>
</svg>
