<svg width="78" height="50" viewBox="0 0 78 50" fill="none" xmlns="http://www.w3.org/2000/svg">
<path d="M0.772052 45.2446C-1.27659 41.4147 0.789989 35.627 6.51716 29.1548C8.52857 26.8818 10.9336 24.5897 13.6473 22.3417C18.6605 18.1889 24.727 14.1866 31.311 10.733C37.8288 7.31414 44.5108 4.61282 50.7424 2.83791C54.2134 1.84931 57.5445 1.14811 60.6298 0.7704C69.2542 -0.285431 74.9469 0.771411 76.9955 4.60135L66.6901 10.6678C65.3854 8.22867 61.8656 7.06424 56.783 7.34398C56.0974 7.38171 55.3834 7.44571 54.6426 7.53641C48.4094 8.2995 40.7871 10.8896 33.4527 14.7368C26.1182 18.584 19.6723 23.3733 15.5331 28.0511C15.0465 28.601 14.5964 29.144 14.1835 29.6787C11.0837 33.6927 10.0742 37.2372 11.3808 39.6799L0.772052 45.2446Z" fill="#9FC7F8"/>
<path fill-rule="evenodd" clip-rule="evenodd" d="M13.6473 22.3417C13.4493 22.5057 13.253 22.67 13.0583 22.8345C10.5847 24.9241 8.3818 27.0476 6.51716 29.1548C1.26475 35.0905 -0.908812 40.4504 0.347156 44.2525C0.460679 44.5962 0.602228 44.9271 0.772052 45.2446L11.3808 39.6799C10.0742 37.2372 11.0837 33.6927 14.1835 29.6787C14.3152 29.5082 14.4507 29.3367 14.59 29.1645C14.8873 28.7968 15.2017 28.4255 15.5331 28.0511C19.6723 23.3733 26.1182 18.584 33.4527 14.7368C40.7871 10.8896 48.4094 8.2995 54.6426 7.53641C55.1324 7.47645 55.6104 7.42816 56.0762 7.39141C56.315 7.37257 56.5506 7.35676 56.783 7.34398C61.5928 7.07926 65.003 8.10781 66.4609 10.286C66.5436 10.4095 66.62 10.5368 66.6901 10.6678L76.9955 4.60135C76.8986 4.4201 76.7935 4.24506 76.6803 4.07616C76.5937 3.94693 76.5023 3.82129 76.4063 3.69921C73.9753 0.609587 68.5337 -0.197232 60.6298 0.7704C57.7801 1.11927 54.7206 1.74412 51.535 2.6165C51.2717 2.68862 51.0075 2.76243 50.7424 2.83791C44.5108 4.61282 37.8288 7.31414 31.311 10.733C24.727 14.1866 18.6605 18.1889 13.6473 22.3417ZM51.4045 3.76744C51.2839 3.80118 51.1631 3.83527 51.0421 3.86973C44.8897 5.62208 38.2771 8.29396 31.8185 11.6818C25.2942 15.104 19.2921 19.0655 14.343 23.1652C14.2654 23.2295 14.188 23.2938 14.1109 23.3582C14.0761 24.004 14.0611 24.7963 14.0937 25.6356C14.1219 26.3614 14.1854 27.1111 14.2989 27.8253C14.4356 27.6651 14.5752 27.5045 14.7176 27.3435C18.9669 22.5415 25.5295 17.6779 32.9452 13.788C40.3609 9.89819 48.1108 7.25423 54.5096 6.47087C54.6884 6.44897 54.8659 6.42857 55.042 6.40965C53.6235 5.1417 52.306 4.27122 51.4045 3.76744ZM52.846 3.37892C53.8874 4.0469 55.1736 5.00962 56.4918 6.28559C56.5691 6.28074 56.6461 6.2762 56.7228 6.27198C59.3493 6.12742 61.6487 6.35019 63.5 6.96905C64.9496 7.45359 66.1644 8.19661 67.0169 9.22634L75.4648 4.25338C74.5503 3.15414 73.1093 2.35957 71.0418 1.90145C68.4594 1.32922 65.0213 1.31459 60.7628 1.83594C58.2776 2.14018 55.6194 2.66025 52.846 3.37892ZM13.407 28.9173C13.1642 27.8712 13.0512 26.7285 13.0103 25.6769C12.9919 25.2013 12.988 24.7399 12.9942 24.3086C10.866 26.1556 8.96372 28.0191 7.33258 29.8624C4.52297 33.0375 2.66594 35.9857 1.75086 38.5485C1.0196 40.5965 0.910562 42.3301 1.32274 43.7408L10.0074 39.1853C9.60954 37.8936 9.66864 36.4611 10.0854 34.9803C10.6109 33.1129 11.7206 31.1006 13.3223 29.0265C13.3504 28.9902 13.3786 28.9537 13.407 28.9173Z" fill="#9FC7F8"/>
<path fill-rule="evenodd" clip-rule="evenodd" d="M50.576 2.83342L50.6035 2.83915C50.9131 2.9037 51.3565 3.1335 51.8639 3.45394C52.3744 3.77633 52.9592 4.19678 53.5545 4.65185C54.7451 5.5621 55.9819 6.61405 56.7573 7.30517L56.8396 7.3785L56.7429 7.42933L54.3032 8.71199L16.5759 28.5469L15.3154 29.2096C15.3154 29.2096 14.7059 29.4118 14.59 29.5691C14.4742 29.7264 14.1348 29.8303 14.1348 29.8303L14.0623 29.8684L14.0372 29.7752C13.973 29.5368 13.9224 29.0772 13.8818 28.4966C13.841 27.9132 13.81 27.2003 13.7868 26.4506C13.7403 24.9509 13.7248 23.3013 13.7248 22.2399V22.1938L50.576 2.83342ZM50.5985 2.99523L13.8797 22.286C13.8801 23.3476 13.8958 24.9698 13.9416 26.4459C13.9648 27.1947 13.9958 27.9054 14.0363 28.486C14.0719 28.9954 14.1146 29.3991 14.1646 29.6409L56.5713 7.34591C55.7945 6.657 54.6053 5.64897 53.4598 4.77326C52.8663 4.31956 52.2856 3.90218 51.7806 3.58326C51.2887 3.27255 50.8774 3.06112 50.5985 2.99523Z" fill="#9FC7F8"/>
<path d="M77.0198 4.57797C79.0918 8.39554 77.0589 14.1965 71.3682 20.7047C65.6775 27.2128 56.7951 33.8951 46.6752 39.2815C36.5553 44.6678 26.0267 48.3171 17.4057 49.4264C8.7847 50.5357 2.77739 49.0142 0.705346 45.1966L11.2847 39.5657C12.6117 42.0107 16.1721 43.1526 21.3013 42.823C21.9604 42.7807 22.6453 42.714 23.3548 42.6228C23.8315 42.5614 24.3162 42.4893 24.8083 42.4068C30.7482 41.4101 37.7546 38.8857 44.5091 35.2906C51.8232 31.3976 58.2429 26.5681 62.3558 21.8643C62.4611 21.7438 62.5647 21.6237 62.6666 21.5039C62.9848 21.1297 63.286 20.759 63.5701 20.3921C66.746 16.291 67.7798 12.6766 66.4405 10.2089L77.0198 4.57797Z" fill="#9FC7F8"/>
<path fill-rule="evenodd" clip-rule="evenodd" d="M76.0807 11.2803C76.8001 9.22762 76.8989 7.49321 76.4783 6.0851L67.817 10.6951C68.2916 12.2024 68.1415 13.9039 67.5263 15.6594C66.7717 17.8126 65.2855 20.154 63.1754 22.5671C58.9533 27.3957 52.4174 32.3003 45.0224 36.2363C37.6274 40.1723 29.8906 42.8644 23.4945 43.6875C20.2979 44.0988 17.506 44.0345 15.2761 43.4697C13.4582 43.0093 11.9424 42.1944 10.9348 40.9709L2.27346 45.5809C3.22733 46.7052 4.74258 47.5805 6.86831 48.1189C9.52841 48.7926 13.0367 48.9059 17.266 48.3617C25.7217 47.2737 36.1229 43.6791 46.1619 38.3358C56.2009 32.9925 64.967 26.3852 70.5485 20.0019C73.3403 16.809 75.1805 13.849 76.0807 11.2803ZM1.30101 46.0985C1.07592 45.8138 0.87711 45.5131 0.705346 45.1966L11.2847 39.5657C12.6117 42.0107 16.1721 43.1526 21.3013 42.823C21.9604 42.7807 22.6453 42.714 23.3548 42.6228C23.8315 42.5614 24.3162 42.4893 24.8083 42.4068C30.7482 41.4101 37.7546 38.8857 44.5091 35.2906C51.8232 31.3976 58.2429 26.5681 62.3558 21.8643C62.4611 21.7438 62.5647 21.6237 62.6666 21.5039C62.9848 21.1297 63.286 20.759 63.5701 20.3921C66.746 16.291 67.7798 12.6766 66.4405 10.2089L77.0198 4.57797C77.1916 4.89443 77.3351 5.22451 77.4507 5.56751C78.7297 9.36215 76.5871 14.736 71.3682 20.7047C65.6775 27.2128 56.7951 33.8951 46.6752 39.2815C36.5553 44.6678 26.0267 48.3171 17.4057 49.4264C9.49934 50.4437 3.79131 49.2484 1.30101 46.0985Z" fill="#9FC7F8"/>
<path d="M2.34071 45.6301C1.87605 45.0933 1.4114 44.2497 1.25651 43.4828L10.0075 39.1882C10.0075 39.1882 10.2197 39.7485 10.3948 40.1085C10.5891 40.5081 11.1692 41.2588 11.1692 41.2588L2.34071 45.6301Z" fill="#9FC7F8"/>
<path d="M75.3692 4.14122C75.8339 4.67805 76.376 5.52163 76.5309 6.28852L67.8573 10.8132C67.8573 10.8132 67.5652 10.0786 67.3152 9.66285C67.0517 9.22465 66.5408 8.66589 66.5408 8.66589L75.3692 4.14122Z" fill="#9FC7F8"/>
<path fill-rule="evenodd" clip-rule="evenodd" d="M63.9852 24.924C63.9852 38.6892 52.7166 49.848 38.8162 49.848C32.0085 49.848 25.832 47.1715 21.3013 42.823C21.9604 42.7807 22.6453 42.714 23.3548 42.6228C23.8315 42.5614 24.3162 42.4893 24.8083 42.4068C21.8525 40.0812 19.4999 37.036 18.0208 33.5387C17.3526 31.9588 16.8627 30.2867 16.5759 28.5469L15.3154 29.2096C15.3154 29.2096 14.7059 29.4118 14.59 29.5691C14.4742 29.7264 14.1348 29.8303 14.1348 29.8303C13.8151 28.244 13.6473 26.6034 13.6473 24.924C13.6473 11.1589 24.9158 0 38.8162 0C45.8326 0 52.1784 2.84307 56.7429 7.42933L54.3032 8.71199C57.4338 11.6456 59.7151 15.4588 60.7438 19.7522C60.8576 20.2271 60.9561 20.7079 61.0387 21.1941H62.578L62.6666 21.5039C62.9848 21.1297 63.286 20.759 63.5701 20.3921C63.8427 21.8617 63.9852 23.3764 63.9852 24.924Z" fill="#9FC7F8"/>
<path fill-rule="evenodd" clip-rule="evenodd" d="M52.1698 4.38869C53.138 5.01595 54.3338 5.91996 55.5593 7.11812C55.6312 7.11357 55.7027 7.10931 55.774 7.10535C58.2159 6.9696 60.3535 7.17879 62.0747 7.75991C63.3751 8.19896 64.4723 8.86401 65.2598 9.77888C65.2884 9.81211 65.3166 9.84567 65.3444 9.87956L73.1983 5.20983C73.1768 5.18378 73.155 5.15791 73.1329 5.13222C72.28 4.14015 70.9598 3.42064 69.0863 3.00132C66.6854 2.46397 63.4891 2.45024 59.53 2.9398C57.2195 3.22549 54.7482 3.71384 52.1698 4.38869ZM15.5039 28.3698C15.2782 27.3876 15.1731 26.3146 15.1351 25.327C15.1179 24.8805 15.1143 24.4472 15.1201 24.0422C13.1416 25.7766 11.373 27.5264 9.85656 29.2573C7.2445 32.2388 5.51804 35.0073 4.6673 37.4138C3.98746 39.3369 3.88609 40.9648 4.26928 42.2895L12.3433 38.0118C11.9734 36.7988 12.0284 35.4537 12.4158 34.0632C12.9044 32.3096 13.936 30.4201 15.4251 28.4724C15.4512 28.4383 15.4775 28.4041 15.5039 28.3698Z" fill="#9FC7F8"/>
<path d="M5.21568 44.0636C5.20028 44.0456 5.18487 44.0273 5.16948 44.0086C4.75325 43.5031 4.34657 42.7417 4.20771 42.0472L12.3434 38.0145C12.3434 38.0145 12.5406 38.5406 12.7034 38.8787C12.8391 39.1605 13.1771 39.6283 13.337 39.8437C13.39 39.9152 13.4234 39.9589 13.4234 39.9589L5.21568 44.0636Z" fill="#9FC7F8"/>
<path d="M73.1094 5.10451C73.1172 5.11365 73.1251 5.12289 73.1329 5.13222C73.3359 5.37251 73.5528 5.67424 73.7397 6.00069C73.7483 6.01562 73.7568 6.0306 73.7652 6.04563C73.9452 6.36691 74.0945 6.71021 74.172 7.04126C74.1783 7.06789 74.1841 7.09443 74.1893 7.12088L66.1256 11.3697C66.1256 11.3697 66.1201 11.3555 66.1098 11.3302C66.0727 11.2379 65.974 10.9971 65.8576 10.7473C65.793 10.6087 65.723 10.4673 65.655 10.347C65.6438 10.3272 65.6327 10.308 65.6216 10.2895C65.523 10.1237 65.387 9.93966 65.2598 9.77888C65.0711 9.54045 64.9017 9.35328 64.9017 9.35328L73.1094 5.10451Z" fill="#9FC7F8"/>
<path d="M23.8587 42.3562C21.3124 42.6052 19.073 42.5035 17.2416 42.0349C15.6288 41.6224 14.2718 40.9067 13.337 39.8437C13.39 39.9152 13.4234 39.9589 13.4234 39.9589L5.21568 44.0636C5.20028 44.0456 5.18487 44.0273 5.16948 44.0086L5.15316 44.0174C6.03996 45.0731 7.44867 45.8951 9.42494 46.4006C11.898 47.0333 15.1596 47.1396 19.0916 46.6286C21.7727 46.2801 24.7282 45.8006 27.8293 45.1207C26.409 44.3361 25.079 43.4081 23.8587 42.3562Z" fill="#9FC7F8"/>
<path d="M65.8576 10.7473L65.0405 11.2331C64.9995 11.1557 64.9561 11.0796 64.9105 11.0049C65.9713 13.2613 65.0525 16.4705 62.3375 20.1035C62.2726 20.1903 62.2068 20.2773 62.1399 20.3645C62.2223 20.8133 62.2919 21.2665 62.3484 21.7239C64.0063 19.6995 65.1871 17.7385 65.8179 15.9203C66.3803 14.2996 66.5246 12.7278 66.1098 11.3302C66.0727 11.2379 65.974 10.9971 65.8576 10.7473Z" fill="#9FC7F8"/>
<path d="M74.6173 5.52893C74.6186 5.53148 74.62 5.53403 74.6213 5.53659L73.7652 6.04563C73.9452 6.36691 74.0945 6.71021 74.172 7.04126C74.1783 7.06789 74.1841 7.09443 74.1893 7.12088L66.1256 11.3697L66.1098 11.3302C66.5246 12.7278 66.3803 14.2996 65.8179 15.9203C65.1871 17.7385 64.0063 19.6995 62.3484 21.7239C62.4655 22.6728 62.5258 23.6394 62.5258 24.6201C62.5258 25.8652 62.4285 27.0876 62.2413 28.2801C64.9494 25.6532 67.341 23.0244 69.3897 20.658C74.2417 15.0533 76.2335 10.0071 75.0445 6.44383L75.0433 6.44015L75.0375 6.423L75.0257 6.38834C74.9216 6.08612 74.7944 5.79469 74.6439 5.51463L74.6173 5.52893Z" fill="#9FC7F8"/>
<path d="M60.005 22.8596C60.0429 23.3154 60.0662 23.7755 60.0744 24.2392C60.6774 23.6287 61.2447 23.0171 61.773 22.4069C61.9707 22.1785 62.1625 21.9508 62.3484 21.7239C62.2919 21.2665 62.2223 20.8133 62.1399 20.3645C61.7912 20.8193 61.4148 21.2804 61.0109 21.7469C60.6904 22.1172 60.3548 22.4883 60.005 22.8596Z" fill="#9FC7F8"/>
<path d="M50.8929 3.68887C50.6673 3.75146 50.4411 3.8154 50.2142 3.88067C51.0898 4.2456 53.403 5.57736 55.7315 8.00852C55.7569 8.03123 55.7817 8.05358 55.8061 8.07554L55.8457 8.11111C60.309 7.86566 63.4736 8.83163 64.8274 10.8746C64.8289 10.8768 64.8303 10.8789 64.8318 10.8811C64.8587 10.922 64.8849 10.9632 64.9105 11.0049C64.8783 10.9365 64.8443 10.8689 64.8084 10.8022L65.655 10.347C65.6438 10.3272 65.6327 10.308 65.6216 10.2895C65.523 10.1237 65.387 9.93966 65.2598 9.77888C64.4723 8.86401 63.3751 8.19896 62.0747 7.75991C60.3535 7.17879 58.2159 6.9696 55.774 7.10535C55.7027 7.10931 55.6312 7.11357 55.5593 7.11812C54.3338 5.91996 53.138 5.01595 52.1698 4.38869C54.7482 3.71384 57.2195 3.22549 59.53 2.9398C63.4891 2.45024 66.6854 2.46397 69.0863 3.00132C70.9425 3.41675 72.2558 4.12667 73.1094 5.10451C73.1172 5.11365 73.1251 5.12289 73.1329 5.13222C73.155 5.15791 73.1768 5.18378 73.1983 5.20983C73.382 5.43601 73.5725 5.70867 73.7397 6.00069L74.6173 5.52893C74.5283 5.36146 74.4319 5.19964 74.3282 5.04342C74.2477 4.92206 74.1628 4.80409 74.0735 4.68946C71.8135 1.78822 66.7545 1.0306 59.4063 1.93923C56.757 2.26682 53.9126 2.85357 50.951 3.67277C50.9316 3.67813 50.9123 3.68349 50.8929 3.68887Z" fill="#9FC7F8"/>
<path d="M65.0405 11.2331L65.8576 10.7473C65.793 10.6087 65.723 10.4673 65.655 10.347L64.8084 10.8022C64.8443 10.8689 64.8783 10.9365 64.9105 11.0049C64.9561 11.0796 64.9995 11.1557 65.0405 11.2331Z" fill="#9FC7F8"/>
<path d="M53.4137 9.29238L55.6121 8.12499C55.6481 8.12269 55.6839 8.12048 55.7197 8.11834C54.0632 6.452 52.1575 5.03378 50.0632 3.92427C48.9134 4.25762 47.7474 4.62509 46.5695 5.02514C47.0472 5.20675 47.5165 5.40533 47.9767 5.62014C49.9821 6.55625 51.8147 7.80065 53.4137 9.29238Z" fill="#9FC7F8"/>
<path d="M52.8285 5.58401C52.2751 5.15669 51.7314 4.76187 51.2568 4.45914C50.821 4.18114 50.4359 3.97579 50.1528 3.89834L50.0632 3.92427C52.1575 5.03378 54.0632 6.452 55.7197 8.11834L55.83 8.11198C55.7972 8.07727 55.7643 8.04279 55.7315 8.00852C55.0075 7.35987 53.898 6.40983 52.8285 5.58401Z" fill="#9FC7F8"/>
</svg>
