<svg width="425" height="820" viewBox="0 0 425 820" fill="none" xmlns="http://www.w3.org/2000/svg">
<path d="M103.036 212.462C137.066 191.147 162.255 192.196 170.596 195.385C173.245 199.457 180.419 214.883 197.975 236.597C208.662 249.814 159.326 312.726 118.702 334.364C136.629 301.158 155.947 289.664 140.779 286.821C126.177 284.084 63.3495 358.28 30.3893 376.318C59.944 346.103 125.453 292.627 93.4715 284.291C61.4895 275.956 47.2547 312.357 44.135 331.6C37.6189 321.278 33.7949 295.727 70.6271 276.108C107.459 256.489 110.191 239.319 106.952 233.186C94.7056 227.77 70.1547 242.215 59.4101 250.115C50.6574 256.925 38.492 265.989 59.8516 247.76C81.2111 229.531 97.541 216.632 103.036 212.462Z" fill="#E53636" fill-opacity="0.74"/>
<path d="M111.073 216.406C133.587 206.585 160.43 201.93 171.038 200.831L187.435 219.994C187.622 225.068 186.594 239.047 180.99 254.378C175.386 269.71 158.265 289.774 150.405 297.889C156.165 289.705 163.528 273.143 146.901 272.367C130.275 271.59 112.695 290.983 105.983 300.776C107.318 297.126 112.483 286.392 122.468 272.662C132.452 258.932 109.711 267.02 97.0919 272.781C122.703 261.004 137.244 235.451 142.16 222.234C146.092 211.659 123.074 213.943 111.073 216.406Z" fill="#FDB916" fill-opacity="0.51"/>
<path d="M127.678 260.474C156.464 238.003 152.684 214.705 139.775 211.548C139.775 211.548 150.359 204.726 159.204 209.339C169.419 214.667 173.157 205.129 173.157 205.129C174.136 203.296 174.536 201.703 174.625 200.43C172.131 195.596 174.906 196.434 174.625 200.43C176.012 203.119 179.03 207.563 185.11 214.195C191.586 221.26 176.192 253.966 163.475 267.185C168.867 246.743 145.242 259.541 134.567 270.542C144.899 254.439 137.323 254.969 127.678 260.474Z" fill="#FFE600" fill-opacity="0.44"/>
<path d="M75.6599 293.069C82.6895 291.567 86.9061 293.009 93.2648 293.816C82.5087 295.385 74.456 305.953 64.6963 304.224C54.9365 302.496 51.1936 312.876 47.3983 315.377C53.9919 298.291 61.1329 294.801 75.6599 293.069Z" fill="#E53636" fill-opacity="0.74"/>
<path d="M129.065 344.108C122.618 347.288 118.177 346.923 111.814 347.7C121.857 343.542 127.074 331.322 136.959 330.606C146.845 329.889 147.929 318.908 150.995 315.552C148.792 333.734 142.724 338.868 129.065 344.108Z" fill="#E53636" fill-opacity="0.74"/>
<path d="M133.655 296.212C125.795 301.727 108.198 314.453 100.686 321.236C109.409 319.783 128.216 312.745 133.655 296.212Z" fill="#E53636" fill-opacity="0.74"/>
<path d="M62.318 272.388C70.259 266.991 88.044 254.528 95.6565 247.858C86.9124 249.18 68.003 255.938 62.318 272.388Z" fill="#E53636" fill-opacity="0.74"/>
<path d="M168.724 196.329C168.134 193.68 169.413 191.171 171.532 189.475L187.845 176.42C192.305 172.851 198.844 173.736 202.193 178.363L227.265 212.993C230.735 217.784 229.309 224.524 224.196 227.5L203.379 239.616C202.579 240.082 201.703 240.437 200.788 240.294C197.94 239.847 190.759 236.863 179.817 219.881C172.365 208.315 169.68 200.623 168.724 196.329Z" fill="#898989"/>
<path d="M260.438 275.748C295.935 251.186 302.77 219.495 301.751 206.72L265.263 221.429C264.125 253.638 184.572 301.319 192.171 304.686C199.77 308.054 224.941 300.309 260.438 275.748Z" fill="#6DA0DD"/>
<path d="M260.438 275.748C295.935 251.186 302.77 219.495 301.751 206.72L265.263 221.429C264.125 253.638 184.572 301.319 192.171 304.686C199.77 308.054 224.941 300.309 260.438 275.748Z" fill="#436D9F"/>
<path d="M138.894 140.852C169.328 110.24 204.072 110.263 216.468 113.518L193.213 145.677C161.307 141.12 100.351 211.023 98.3759 202.95C96.4005 194.876 108.46 171.464 138.894 140.852Z" fill="#6DA0DD"/>
<path d="M138.894 140.852C169.328 110.24 204.072 110.263 216.468 113.518L193.213 145.677C161.307 141.12 100.351 211.023 98.3759 202.95C96.4005 194.876 108.46 171.464 138.894 140.852Z" fill="#6DA0DD"/>
<path d="M279.48 66.1595C213 101.377 182.219 156.012 175.139 178.928C175.139 178.928 175.72 195.494 189.866 214.184C281.332 147.698 422.958 40.7781 422.958 40.7781C400.613 32.8025 345.96 30.9423 279.48 66.1595Z" fill="#EEEFEF"/>
<path d="M422.958 40.7781C422.958 40.7781 281.332 147.698 189.866 214.184C202.115 230.37 210.014 237.935 210.014 237.935C233.521 238.22 293.91 225.4 347.408 171.847C400.905 118.294 423.389 64.968 422.958 40.7781Z" fill="#B9B9B9"/>
<circle cx="338.587" cy="106.78" r="24.4949" transform="rotate(5.0758 338.587 106.78)" fill="#8A8A8A"/>
<circle cx="338.587" cy="106.78" r="24.4949" transform="rotate(5.0758 338.587 106.78)" fill="#8A8A8A"/>
<circle cx="338.587" cy="106.78" r="24.4949" transform="rotate(5.0758 338.587 106.78)" fill="#8A8A8A"/>
<circle cx="338.587" cy="106.78" r="21.7393" transform="rotate(5.0758 338.587 106.78)" fill="#3E3E3E"/>
<circle cx="338.587" cy="106.78" r="21.7393" transform="rotate(5.0758 338.587 106.78)" fill="#3E3E3E"/>
<circle cx="338.587" cy="106.78" r="21.7393" transform="rotate(5.0758 338.587 106.78)" fill="#3E3E3E"/>
<circle cx="338.587" cy="106.78" r="21.7393" transform="rotate(5.0758 338.587 106.78)" fill="#3E3E3E"/>
<circle cx="338.753" cy="106.641" r="17.9119" transform="rotate(5.0758 338.753 106.641)" fill="#71C3FA"/>
<path d="M335.675 92.8423C331.101 92.4361 319.655 102.485 327.653 114.877C330.284 118.953 340.25 93.2486 335.675 92.8423Z" fill="#D4E7EB"/>
<path fill-rule="evenodd" clip-rule="evenodd" d="M423.516 41.1404C416.359 38.4893 396.712 33.9226 375.389 36.8656L396.087 61.6695L423.516 41.1404Z" fill="#E63636"/>
<path d="M412.874 81.7861C417.069 72.448 425.071 51.2457 423.516 41.1404L396.087 61.6695L412.874 81.7861Z" fill="#B32626"/>
<path d="M270.737 155.233C278.31 162.312 149.092 256.292 143.414 252.369C134.739 244.432 263.163 148.153 270.737 155.233Z" fill="#6DA0DD"/>
<path d="M153.049 236.79C167.421 233.039 184.257 236.664 197.867 242.622C181.538 239.584 166.634 237.68 153.049 236.79C125.206 244.058 106.615 279.014 138.665 378.328C199.405 566.543 362.925 648.422 224.593 808.37C242.165 787.48 266.528 727.324 223.405 653.83C169.503 561.962 40.9821 557.282 52.2176 430.787C16.392 357.952 -7.87717 226.247 153.049 236.79Z" fill="#EC864D" fill-opacity="0.08"/>
<path d="M38.116 367.472C129.997 305.898 183.799 293.541 210.414 246.079C220.034 284.216 145.208 359.6 79.0305 388.907C-0.597542 424.172 170.506 501.913 116.076 616.393C121.122 559.589 -20.2013 406.554 38.116 367.472Z" fill="#EC2020" fill-opacity="0.11"/>
</svg>
