<svg width="33" height="45" viewBox="0 0 33 45" fill="none" xmlns="http://www.w3.org/2000/svg">
<path d="M16.1932 2.30048C16.179 1.48019 16.199 0.707266 16.2462 0C16.2462 0.792396 16.2281 1.55897 16.1932 2.30048C16.3318 10.3168 19.7358 22.8571 33 22.8571C27.4931 23.3267 16.5558 28.2877 16.2526 44.3151C16.2535 44.5496 16.2512 44.7782 16.2462 45C16.2462 44.7695 16.2483 44.5412 16.2526 44.3151C16.2257 36.9646 13.1846 23.6576 1.10685 22.8917C0.71841 22.9003 0.348021 22.8877 0 22.8571C0.377123 22.8571 0.746019 22.8688 1.10685 22.8917C6.51622 22.7728 15.4267 18.5714 16.1932 2.30048Z" fill="white"/>
<path d="M16.1932 2.30048C16.179 1.48019 16.199 0.707266 16.2462 0C16.2462 0.792396 16.2281 1.55897 16.1932 2.30048C16.3318 10.3168 19.7358 22.8571 33 22.8571C27.4931 23.3267 16.5558 28.2877 16.2526 44.3151C16.2535 44.5496 16.2512 44.7782 16.2462 45C16.2462 44.7695 16.2483 44.5412 16.2526 44.3151C16.2257 36.9646 13.1846 23.6576 1.10685 22.8917C0.71841 22.9003 0.348021 22.8877 0 22.8571C0.377123 22.8571 0.746019 22.8688 1.10685 22.8917C6.51622 22.7728 15.4267 18.5714 16.1932 2.30048Z" fill="white"/>
<path d="M16.1932 2.30048C16.179 1.48019 16.199 0.707266 16.2462 0C16.2462 0.792396 16.2281 1.55897 16.1932 2.30048C16.3318 10.3168 19.7358 22.8571 33 22.8571C27.4931 23.3267 16.5558 28.2877 16.2526 44.3151C16.2535 44.5496 16.2512 44.7782 16.2462 45C16.2462 44.7695 16.2483 44.5412 16.2526 44.3151C16.2257 36.9646 13.1846 23.6576 1.10685 22.8917C0.71841 22.9003 0.348021 22.8877 0 22.8571C0.377123 22.8571 0.746019 22.8688 1.10685 22.8917C6.51622 22.7728 15.4267 18.5714 16.1932 2.30048Z" fill="white"/>
<path d="M16.1932 2.30048C16.179 1.48019 16.199 0.707266 16.2462 0C16.2462 0.792396 16.2281 1.55897 16.1932 2.30048C16.3318 10.3168 19.7358 22.8571 33 22.8571C27.4931 23.3267 16.5558 28.2877 16.2526 44.3151C16.2535 44.5496 16.2512 44.7782 16.2462 45C16.2462 44.7695 16.2483 44.5412 16.2526 44.3151C16.2257 36.9646 13.1846 23.6576 1.10685 22.8917C0.71841 22.9003 0.348021 22.8877 0 22.8571C0.377123 22.8571 0.746019 22.8688 1.10685 22.8917C6.51622 22.7728 15.4267 18.5714 16.1932 2.30048Z" fill="#D4E7EB"/>
</svg>
