<svg width="708" height="670" viewBox="0 0 708 670" fill="none" xmlns="http://www.w3.org/2000/svg">
<path d="M757 335C757 520.015 606.942 670 421.836 670C236.729 670 86.671 520.015 86.671 335C86.671 149.985 236.729 0 421.836 0C606.942 0 757 149.985 757 335Z" fill="#261644" fill-opacity="0.15"/>
<path d="M659.358 335C659.358 466.116 553.016 572.406 421.836 572.406C290.655 572.406 184.313 466.116 184.313 335C184.313 203.884 290.655 97.5941 421.836 97.5941C553.016 97.5941 659.358 203.884 659.358 335Z" fill="#FFE926" fill-opacity="0.15"/>
<path d="M699.951 329.517C699.951 480.921 577.153 603.658 425.675 603.658C274.197 603.658 151.4 480.921 151.4 329.517C151.4 178.114 274.197 55.3766 425.675 55.3766C577.153 55.3766 699.951 178.114 699.951 329.517Z" fill="#785DAA" fill-opacity="0.09"/>
<path d="M640.707 335.548C640.707 453.643 544.925 549.378 426.772 549.378C308.62 549.378 212.838 453.643 212.838 335.548C212.838 217.453 308.62 121.718 426.772 121.718C544.925 121.718 640.707 217.453 640.707 335.548Z" fill="#FDB916"/>
<path d="M316.94 198.086C342.918 204.578 337.474 168.494 352.755 169.926C368.036 171.358 344.637 180.904 355.142 183.767C365.648 186.631 364.249 179.076 368.513 177.085C384.86 169.453 359.918 211.451 345.592 217.178C331.266 222.906 350.845 246.293 316.94 242.952C283.035 239.611 284.468 189.972 316.94 198.086Z" fill="url(#paint0_linear_138_896)"/>
<path d="M341.928 260.394C360.417 271.7 352.08 258.023 358.849 256.126C367.098 253.814 357.368 262.385 361.598 270.352C366.886 280.311 366.886 251.383 388.037 270.352C409.188 289.322 370.905 276.043 359.695 283.631C350.727 289.701 322.469 273.672 322.257 260.394C319.226 261.974 318.662 246.167 341.928 260.394Z" fill="url(#paint1_linear_138_896)"/>
<path d="M336.996 405.234C331.266 353.686 395.255 342.708 408.149 361.323C421.042 379.937 374.721 388.528 391.435 412.393C408.149 436.258 404.806 391.87 441.098 409.53C501.467 438.905 441.098 357.981 516.549 361.8C554.751 370.868 551.249 345.731 535.172 327.434C519.255 313.274 496.97 281.041 535.172 265.385C582.926 245.816 535.172 206.678 539.948 182.336C543.768 162.862 553.319 160.221 562.869 170.88L563.824 170.88C566.69 193.791 640.707 226.724 640.23 327.434C639.752 428.144 592.476 469.192 578.15 486.375C563.824 503.557 502.223 548.423 441.098 548.423C417.643 549.696 362.265 546.801 328.401 525.036C327.308 524.662 326.189 524.213 325.045 523.693C277.571 503.726 242.785 447.799 231.052 421.615C231.029 421.564 231.006 421.513 230.984 421.462C236.802 425.095 244.556 429.809 252.95 434.719C264.889 428.55 281.602 406.189 252.95 366.095C217.135 315.979 271.097 267.295 299.749 292.591C322.67 312.829 309.299 346.844 299.749 361.323C287.81 372.141 270.046 396.07 294.496 405.234C318.946 414.398 313.279 446.496 307.389 461.399C322.001 455.88 340.853 439.924 336.996 405.234Z" fill="url(#paint2_linear_138_896)"/>
<path d="M426.295 379.46C421.711 402.37 443.804 402.688 455.424 399.984C457.016 398.87 459.245 393.97 455.424 383.278C450.649 369.914 476.436 362.754 479.779 350.345C483.121 337.935 464.02 312.638 455.424 343.662C446.829 374.687 432.025 350.822 426.295 379.46Z" fill="url(#paint3_linear_138_896)"/>
<path d="M293.063 168.494C277.792 181.941 269.836 190.099 256.771 205.723C266.162 195.382 286.569 178.803 293.063 195.222C301.181 215.746 262.024 204.768 252.95 217.656C248.271 224.303 241.49 228.156 244.355 254.885C247.22 281.614 282.558 269.204 266.321 245.339C253.332 226.247 268.55 222.429 277.782 222.906C291.153 225.133 315.125 224.242 304.046 202.859C290.198 176.131 341.772 205.723 343.204 183.767C344.35 166.203 310.254 166.266 293.063 168.494Z" fill="url(#paint4_linear_138_896)"/>
<path fill-rule="evenodd" clip-rule="evenodd" d="M458.767 165.153C451.127 176.608 366.985 193.027 418.177 231.974C482.166 280.659 518.936 241.998 525.144 226.247C531.352 210.496 475.958 185.199 511.296 154.652C518.777 148.765 522.184 137.66 475.958 140.333C418.177 143.674 412.447 107.877 369.469 140.333C326.491 172.789 391.913 188.54 413.879 157.993C431.452 133.555 466.408 153.697 458.767 165.153ZM429.16 201.905C430.063 177.768 475.958 204.768 480.256 194.268C484.554 183.767 464.975 187.586 461.155 178.994C457.335 170.403 470.706 168.494 486.464 180.904C502.223 193.313 484.076 204.768 475.958 215.746C467.84 226.724 499.357 231.974 493.15 242.475C486.942 252.976 458.767 247.248 456.857 230.543C454.947 213.837 428.308 224.684 429.16 201.905Z" fill="url(#paint5_linear_138_896)"/>
<path fill-rule="evenodd" clip-rule="evenodd" d="M339.611 317.081C336.556 327.089 334.341 334.346 360.395 333.162C402.418 331.253 425.34 307.865 397.643 284.955C383.429 273.197 381.163 256.536 379.485 244.198C377.894 232.496 376.831 224.684 366.603 228.633C355.785 232.811 358.892 241.924 362.171 251.541C365.261 260.602 368.503 270.112 360.395 276.363C352.373 282.549 338.41 280.047 327.219 278.043C315.095 275.871 306.224 274.282 311.687 284.955C316.173 293.719 320.769 293.127 325.749 292.484C330.098 291.923 334.741 291.324 339.861 296.887C343.672 303.779 341.484 310.947 339.611 317.081ZM367.326 292.484C379.742 290.415 369.946 286.864 369.946 286.864C369.946 286.864 368.653 280.659 374.383 274.931C381.546 267.772 387.775 284 381.407 291.159C375.529 297.767 370.901 295.933 370.901 303.092C370.901 310.439 381.689 305.751 387.775 302.599C394.304 299.218 397.752 296.564 400.031 306.433C401.463 312.638 392.868 318.835 382.362 317.081C377.86 316.329 378.248 319.516 372.579 319.053C349.179 317.144 352.876 294.892 367.326 292.484Z" fill="url(#paint6_linear_138_896)"/>
<path d="M340.339 480.647C360.586 474.538 362.465 446.282 360.873 432.917C359.44 426.871 359.154 416.307 369.469 422.417C382.362 430.053 380.452 453.441 400.031 464.419C419.609 475.397 409.104 516.922 389.525 516.922C369.946 516.922 315.03 488.284 340.339 480.647Z" fill="url(#paint7_linear_138_896)"/>
<path d="M378.064 462.987C370.742 467.76 356.575 478.738 358.485 484.465C360.873 491.625 375.199 506.899 384.75 499.739C392.39 494.011 383.476 472.851 378.064 462.987Z" fill="url(#paint8_linear_138_896)"/>
<path fill-rule="evenodd" clip-rule="evenodd" d="M581.971 319.32C551.409 316.648 533.74 308.342 528.965 287.819C524.189 267.295 567.167 268.727 574.808 284C578.389 291.159 585.462 291.406 593.483 291.685C606.853 292.152 622.859 292.71 629.724 325.525C638.511 367.528 620.014 363.391 609.668 356.072C613.17 344.935 612.533 321.993 581.971 319.32ZM600.117 319.32C589.802 318.175 588.815 308.024 589.611 302.615C593.316 299.375 596.683 301.969 600.422 304.85C604.394 307.91 608.785 311.293 614.443 308.342C617.945 307.865 624.28 309.393 621.606 319.32C622.083 320.752 613.01 320.752 600.117 319.32Z" fill="url(#paint9_linear_138_896)"/>
<path fill-rule="evenodd" clip-rule="evenodd" d="M506.52 451.532C512.251 393.111 557.02 388.014 572.898 413.348C573.803 414.793 574.851 416.39 575.968 418.094C585.975 433.348 601.573 457.126 570.987 456.782C541.055 456.446 537.414 481.916 535.043 498.51C534.047 505.477 533.275 510.879 530.875 512.149C528.241 513.543 523.145 512.877 516.629 512.025C503.061 510.252 483.338 507.675 466.885 521.218C447.402 537.255 409.104 528.713 392.39 522.438C453.463 511.022 502.231 495.262 506.52 451.532ZM530.397 427.667C527.723 416.212 539.47 413.348 545.678 413.348C544.723 414.78 543.1 420.221 544.246 430.531C544.926 436.651 546.253 435.666 549.505 433.251C553.1 430.581 559.048 426.163 569.077 427.667C588.179 430.531 577.195 456.456 572.898 449.145C570.41 444.914 555.123 449.419 544.724 452.483C537.158 454.713 532.18 456.18 536.605 452.964C542.888 448.397 540.631 445.366 537.088 440.606C534.705 437.405 531.741 433.423 530.397 427.667Z" fill="url(#paint10_linear_138_896)" fill-opacity="0.4"/>
<path d="M541.968 191.35C539.457 106.108 476.142 91.563 390.568 126.105C432.989 98.8734 484.37 62.5041 567.201 91.563C636.321 115.812 664.843 180.385 611.086 283.462C570.718 360.864 458.04 368.445 407.025 370.09C356.009 371.735 304.446 365.156 206.255 329.517C108.064 293.879 25.3231 314.528 0 365.156C3.2913 228.085 256.173 323.486 310.48 329.517C364.786 335.548 545.067 296.547 541.968 191.35Z" fill="#FFF59D" fill-opacity="0.17"/>
<path d="M650.606 253.265C650.648 207.905 586.441 192.493 586.441 192.493C586.441 192.493 624.806 170.124 674.669 227.891C701.781 259.302 703.146 307.258 677.543 351.91C625.512 442.655 517.687 454.842 467.365 446.301C417.044 437.76 401.799 430.472 312.674 376.006C307.707 372.97 302.55 370.165 297.269 367.593C205.715 352.246 124.088 356.282 255.576 459.417C83.1345 347.629 207.8 324.019 297.269 367.593C351.205 376.634 408.586 392.403 427.87 398.601C479.887 415.319 650.527 340.275 650.606 253.265Z" fill="#FFF59D" fill-opacity="0.2"/>
<defs>
<linearGradient id="paint0_linear_138_896" x1="-282.16" y1="96.2381" x2="359.713" y2="678.81" gradientUnits="userSpaceOnUse">
<stop stop-color="#FFCB31"/>
<stop offset="1" stop-color="#FDB916"/>
</linearGradient>
<linearGradient id="paint1_linear_138_896" x1="485.386" y1="-1167.44" x2="485.386" y2="661.425" gradientUnits="userSpaceOnUse">
<stop stop-color="#FCDF47"/>
<stop offset="1" stop-color="#FDB916"/>
</linearGradient>
<linearGradient id="paint2_linear_138_896" x1="132.496" y1="68.2749" x2="405.445" y2="179.835" gradientUnits="userSpaceOnUse">
<stop offset="0.0818075" stop-color="#FDB916"/>
<stop offset="0.555" stop-color="#FF9416"/>
<stop offset="1" stop-color="#FF8712"/>
</linearGradient>
<linearGradient id="paint3_linear_138_896" x1="378.5" y1="0" x2="378.5" y2="670" gradientUnits="userSpaceOnUse">
<stop stop-color="#FDB916"/>
<stop offset="1" stop-color="#FF8712"/>
</linearGradient>
<linearGradient id="paint4_linear_138_896" x1="378.5" y1="0" x2="378.5" y2="670" gradientUnits="userSpaceOnUse">
<stop stop-color="#FDB916"/>
<stop offset="1" stop-color="#FF8712" stop-opacity="0.07"/>
</linearGradient>
<linearGradient id="paint5_linear_138_896" x1="378.5" y1="0" x2="378.5" y2="670" gradientUnits="userSpaceOnUse">
<stop stop-color="#FDB916"/>
<stop offset="1" stop-color="#FF8712" stop-opacity="0.09"/>
</linearGradient>
<linearGradient id="paint6_linear_138_896" x1="378.5" y1="0" x2="378.5" y2="669.936" gradientUnits="userSpaceOnUse">
<stop stop-color="#FDB916"/>
<stop offset="0.5" stop-color="#FF8712" stop-opacity="0.3"/>
</linearGradient>
<linearGradient id="paint7_linear_138_896" x1="378.5" y1="0" x2="378.5" y2="670" gradientUnits="userSpaceOnUse">
<stop stop-color="#FFA115"/>
<stop offset="1" stop-color="#FF8712"/>
</linearGradient>
<linearGradient id="paint8_linear_138_896" x1="614.486" y1="11.6992" x2="614.486" y2="258.126" gradientUnits="userSpaceOnUse">
<stop stop-color="#FFA012"/>
<stop offset="1" stop-color="#FF8712"/>
</linearGradient>
<linearGradient id="paint9_linear_138_896" x1="614.486" y1="11.6992" x2="614.486" y2="258.126" gradientUnits="userSpaceOnUse">
<stop stop-color="#FFA012"/>
<stop offset="1" stop-color="#FF8712"/>
</linearGradient>
<linearGradient id="paint10_linear_138_896" x1="307.042" y1="8.03874" x2="535.652" y2="616.65" gradientUnits="userSpaceOnUse">
<stop stop-color="#FFE926" stop-opacity="0.3"/>
<stop offset="1" stop-color="#FF8712"/>
</linearGradient>
</defs>
</svg>
